<svg version="1.1" xmlns="http://www.w3.org/2000/svg" xmlns:xlink="http://www.w3.org/1999/xlink" width="630.63063" height="513.51352" viewBox="0,0,630.63063,513.51352"><g transform="translate(90.74727,92.14969)"><g data-paper-data="{&quot;isPaintingLayer&quot;:true}" fill-rule="nonzero" stroke-linejoin="miter" stroke-miterlimit="10" stroke-dasharray="" stroke-dashoffset="0" style="mix-blend-mode: normal"><path d="M237.33334,200.66667v-175.66667h131v175.66667z" fill="#ffffff" stroke="none" stroke-width="0" stroke-linecap="butt"/><path d="M229.78618,175.50001c0,0 -22.63237,-73.74928 -0.42189,-117.06784c11.70112,-22.82147 43.12705,-29.82142 81.04761,-29.17017c30.71758,0.52754 57.98354,3.89482 69.36968,22.54253c26.09176,42.73188 4.48834,122.30334 4.48834,122.30334" fill="none" stroke="#ffffff" stroke-width="50" stroke-linecap="round"/><path d="M73.33334,332.66668v-39.31844c1.311,0.63133 2.78085,0.98511 4.33333,0.98511c5.52285,0 10,-4.47715 10,-10c0,-5.52285 -4.47715,-10 -10,-10c-1.55248,0 -3.02233,0.35378 -4.33333,0.98511v-16.65848c2.75025,3.1692 6.80774,5.17337 11.33333,5.17337c8.28427,0 15,-6.71573 15,-15c0,-8.28427 -6.71573,-15 -15,-15c-4.52559,0 -8.58308,2.00417 -11.33333,5.17337v-5.24251c0.27101,0.04547 0.54941,0.06913 0.83333,0.06913c2.76142,0 5,-2.23858 5,-5c0,-2.76142 -2.23858,-5 -5,-5c-0.28393,0 -0.56233,0.02367 -0.83333,0.06913v-42.2358h4.31193c-2.25479,1.58276 -3.7286,4.2026 -3.7286,7.16667c0,4.83249 3.91751,8.75 8.75,8.75c4.83249,0 8.75,-3.91751 8.75,-8.75c0,-2.96407 -1.47382,-5.5839 -3.7286,-7.16667h19.86187c-1.5285,3.23522 -2.38327,6.85112 -2.38327,10.66667c0,13.80712 11.19288,25 25,25c13.80712,0 25,-11.19288 25,-25c0,-3.81554 -0.85477,-7.43145 -2.38327,-10.66667h48.98785c-1.33672,2.24354 -2.10458,4.86543 -2.10458,7.66667c0,8.28427 6.71573,15 15,15c8.28427,0 15,-6.71573 15,-15c0,-2.80123 -0.76786,-5.42312 -2.10458,-7.66667h30.77125v17.23778c-2.74993,-3.39833 -6.95456,-5.57111 -11.66667,-5.57111c-8.28427,0 -15,6.71573 -15,15c0,8.28427 6.71573,15 15,15c4.71211,0 8.91674,-2.17278 11.66667,-5.57111v17.00112c-1.13426,-4.27751 -5.03231,-7.43 -9.66667,-7.43c-5.52285,0 -10,4.47715 -10,10c0,5.52285 4.47715,10 10,10c4.63436,0 8.53241,-3.1525 9.66667,-7.43v13.17292c-2.92889,-1.89365 -6.4194,-2.99292 -10.16667,-2.99292c-10.35534,0 -18.75,8.39466 -18.75,18.75c0,10.35534 8.39466,18.75 18.75,18.75c3.74726,0 7.23778,-1.09927 10.16667,-2.99292v7.15146c-0.53955,-0.10405 -1.09674,-0.15854 -1.66667,-0.15854c-4.83249,0 -8.75,3.91751 -8.75,8.75c0,4.83249 3.91751,8.75 8.75,8.75c0.56992,0 1.12712,-0.05449 1.66667,-0.15854v5.53445c-2.53491,-1.9598 -5.71461,-3.12591 -9.16667,-3.12591c-8.28427,0 -15,6.71573 -15,15c0,2.26315 0.5012,4.40925 1.39866,6.33333h-21.53693c-0.79346,-4.72952 -4.90674,-8.33333 -9.86174,-8.33333c-4.95499,0 -9.06827,3.60381 -9.86174,8.33333h-5.81478c0.75762,-1.79315 1.17652,-3.76432 1.17652,-5.83333c0,-8.28427 -6.71573,-15 -15,-15c-8.28427,0 -15,6.71573 -15,15c0,2.06901 0.4189,4.04019 1.17652,5.83333zM116.33334,304.66668c13.80712,0 25,-11.19288 25,-25c0,-13.80712 -11.19288,-25 -25,-25c-13.80712,0 -25,11.19288 -25,25c0,13.80712 11.19288,25 25,25zM209.16667,257.83335c13.80712,0 25,-11.19288 25,-25c0,-13.80712 -11.19288,-25 -25,-25c-13.80712,0 -25,11.19288 -25,25c0,13.80712 11.19288,25 25,25zM134.16667,253.83335c9.66498,0 17.5,-7.83502 17.5,-17.5c0,-9.66498 -7.83502,-17.5 -17.5,-17.5c-9.66498,0 -17.5,7.83502 -17.5,17.5c0,9.66498 7.83502,17.5 17.5,17.5zM165.66667,236.83335c8.28427,0 15,-6.71573 15,-15c0,-8.28427 -6.71573,-15 -15,-15c-8.28427,0 -15,6.71573 -15,15c0,8.28427 6.71573,15 15,15zM93.66667,232.33335c8.28427,0 15,-6.71573 15,-15c0,-8.28427 -6.71573,-15 -15,-15c-8.28427,0 -15,6.71573 -15,15c0,8.28427 6.71573,15 15,15zM187.16667,304.83335c8.28427,0 15,-6.71573 15,-15c0,-8.28427 -6.71573,-15 -15,-15c-8.28427,0 -15,6.71573 -15,15c0,8.28427 6.71573,15 15,15zM172.16667,268.33335c8.28427,0 15,-6.71573 15,-15c0,-8.28427 -6.71573,-15 -15,-15c-8.28427,0 -15,6.71573 -15,15c0,8.28427 6.71573,15 15,15zM146.33334,328.16668c6.90356,0 12.5,-5.59644 12.5,-12.5c0,-6.90356 -5.59644,-12.5 -12.5,-12.5c-6.90356,0 -12.5,5.59644 -12.5,12.5c0,6.90356 5.59644,12.5 12.5,12.5zM232.16667,311.33335c6.90356,0 12.5,-5.59644 12.5,-12.5c0,-6.90356 -5.59644,-12.5 -12.5,-12.5c-6.90356,0 -12.5,5.59644 -12.5,12.5c0,6.90356 5.59644,12.5 12.5,12.5zM159.33334,295.16668c6.90356,0 12.5,-5.59644 12.5,-12.5c0,-6.90356 -5.59644,-12.5 -12.5,-12.5c-6.90356,0 -12.5,5.59644 -12.5,12.5c0,6.90356 5.59644,12.5 12.5,12.5zM214.66667,287.33335c6.90356,0 12.5,-5.59644 12.5,-12.5c0,-6.90356 -5.59644,-12.5 -12.5,-12.5c-6.90356,0 -12.5,5.59644 -12.5,12.5c0,6.90356 5.59644,12.5 12.5,12.5zM115.66667,328.83335c5.52285,0 10,-4.47715 10,-10c0,-5.52285 -4.47715,-10 -10,-10c-5.52285,0 -10,4.47715 -10,10c0,5.52285 4.47715,10 10,10zM199.66667,323.33335c5.52285,0 10,-4.47715 10,-10c0,-5.52285 -4.47715,-10 -10,-10c-5.52285,0 -10,4.47715 -10,10c0,5.52285 4.47715,10 10,10zM222.16667,332.33335c5.52285,0 10,-4.47715 10,-10c0,-5.52285 -4.47715,-10 -10,-10c-5.52285,0 -10,4.47715 -10,10c0,5.52285 4.47715,10 10,10zM185.66667,212.58335c4.83249,0 8.75,-3.91751 8.75,-8.75c0,-4.83249 -3.91751,-8.75 -8.75,-8.75c-4.83249,0 -8.75,3.91751 -8.75,8.75c0,4.83249 3.91751,8.75 8.75,8.75zM194.16667,274.58335c4.83249,0 8.75,-3.91751 8.75,-8.75c0,-4.83249 -3.91751,-8.75 -8.75,-8.75c-4.83249,0 -8.75,3.91751 -8.75,8.75c0,4.83249 3.91751,8.75 8.75,8.75zM209.66667,304.33335c4.14214,0 7.5,-3.35786 7.5,-7.5c0,-4.14214 -3.35786,-7.5 -7.5,-7.5c-4.14214,0 -7.5,3.35786 -7.5,7.5c0,4.14214 3.35786,7.5 7.5,7.5zM95.66667,314.83335c4.14214,0 7.5,-3.35786 7.5,-7.5c0,-4.14214 -3.35786,-7.5 -7.5,-7.5c-4.14214,0 -7.5,3.35786 -7.5,7.5c0,4.14214 3.35786,7.5 7.5,7.5zM147.16667,268.33335c4.14214,0 7.5,-3.35786 7.5,-7.5c0,-4.14214 -3.35786,-7.5 -7.5,-7.5c-4.14214,0 -7.5,3.35786 -7.5,7.5c0,4.14214 3.35786,7.5 7.5,7.5zM108.16667,246.83335c4.14214,0 7.5,-3.35786 7.5,-7.5c0,-4.14214 -3.35786,-7.5 -7.5,-7.5c-4.14214,0 -7.5,3.35786 -7.5,7.5c0,4.14214 3.35786,7.5 7.5,7.5zM167.66667,311.83335c4.14214,0 7.5,-3.35786 7.5,-7.5c0,-4.14214 -3.35786,-7.5 -7.5,-7.5c-4.14214,0 -7.5,3.35786 -7.5,7.5c0,4.14214 3.35786,7.5 7.5,7.5z" fill="#a5e8ff" stroke="none" stroke-width="NaN" stroke-linecap="butt"/><path d="M259.66667,181.83335c0,0 -13.4783,-79.46319 -0.25125,-126.13797c6.96839,-24.58963 25.68353,-32.13191 48.26644,-31.43021c18.2933,0.56842 34.53105,4.19658 41.31186,24.28907c15.53847,46.04264 2.67295,131.77911 2.67295,131.77911" fill="none" stroke="#a5e8ff" stroke-width="25" stroke-linecap="round"/><path d="M249.44445,200.88889c0,0 -15.16249,1.30745 -19.85612,-0.39636c-3.16313,-1.14823 3.52279,-5.11963 3.52279,-6.27031c0,-3.30028 16.33333,-12 16.33333,-12h22.66667v18.66667z" fill="#a5e8ff" stroke="none" stroke-width="0" stroke-linecap="butt"/><path d="M339.44445,201.55556v-18.66666h22.66667v18.66666l0.14823,9.85489l-6.6403,6.75531l-4.40697,-8.65959l-7.76763,3.38273z" fill="#a5e8ff" stroke="none" stroke-width="0" stroke-linecap="butt"/><path d="M327.06495,244.1039l-2.89827,-14.2684l8.40663,2.83012l6.97649,-1.04657l1.78355,7.80303l-1.78355,4.68182l-6.98557,2.22943z" fill="#a5e8ff" stroke="none" stroke-width="0" stroke-linecap="butt"/><path d="M321.7695,277.10282l-14.2684,2.89826l2.83012,-8.40663l-1.04657,-6.97648l7.80303,-1.78355l4.68182,1.78355l2.22943,6.98557z" fill="#a5e8ff" stroke="none" stroke-width="0" stroke-linecap="butt"/><path d="M322.46888,301.66713l7.46179,-12.50235l4.31147,7.75191l5.86355,3.92242l-3.93383,6.97089l-4.47056,2.26153l-6.66655,-3.05381z" fill="#a5e8ff" stroke="none" stroke-width="0" stroke-linecap="butt"/><path d="M352.54029,331.24466l-6.93077,-12.80436l8.86649,0.25727l6.36863,-3.03432l3.9802,6.94451l-0.34168,4.99838l-6.0326,4.1685z" fill="#a5e8ff" stroke="none" stroke-width="0" stroke-linecap="butt"/><path d="M386.78939,325.86679l-7.5132,-13.88038l9.6116,-9.11608l16.78788,-2.9831l13.52144,-8.75279l13.81306,-4.9232l4.31468,7.5281l-0.37039,5.41842l-14.33595,7.76344l-16.62542,13.75178l-12.79674,5.76833z" fill="#a5e8ff" stroke="none" stroke-width="0" stroke-linecap="butt"/><path d="M462.54029,274.74466l-6.93077,-12.80436l8.86649,0.25727l6.36863,-3.03432l3.9802,6.94451l-0.34168,4.99838l-6.0326,4.1685z" fill="#a5e8ff" stroke="none" stroke-width="0" stroke-linecap="butt"/><path d="M430.54029,241.24466l-6.93077,-12.80436l8.86649,0.25727l6.36863,-3.03432l3.9802,6.94451l-0.34168,4.99838l-6.0326,4.1685z" fill="#a5e8ff" stroke="none" stroke-width="0" stroke-linecap="butt"/><path d="M-90.74727,421.36383v-513.51351h630.63063v513.51352z" fill="none" stroke="none" stroke-width="0" stroke-linecap="butt"/></g></g></svg>