<svg version="1.1" xmlns="http://www.w3.org/2000/svg" xmlns:xlink="http://www.w3.org/1999/xlink" width="67.50678" height="74.54524" viewBox="0,0,67.50678,74.54524"><g transform="translate(-205.08712,-140.37446)"><g data-paper-data="{&quot;isPaintingLayer&quot;:true}" fill-rule="nonzero" stroke-width="0" stroke-linecap="butt" stroke-linejoin="miter" stroke-miterlimit="10" stroke-dasharray="" stroke-dashoffset="0" style="mix-blend-mode: normal"><path d="M257.33342,144.12151c0.53228,0 1.00776,0.22476 1.33745,0.6336c0.68689,0.84882 0.61146,2.30383 0.23438,4.22761c1.06097,-1.14228 2.30539,-2.32155 3.75967,-3.174c0.45395,-0.26615 0.9789,-0.40593 1.52009,-0.40593v0c1.06914,0 2.04588,0.53975 2.48867,1.37522c0.40149,0.76003 0.32015,1.65243 -0.22177,2.44798c-0.31571,0.46429 -0.65211,0.94051 -1.05651,1.39819c0.98335,-0.37789 2.02208,-0.65657 3.04165,-0.65657c0.9279,0 1.75157,0.23211 2.44655,0.68907c1.13867,0.7497 1.74566,1.75231 1.70872,2.82062c-0.03777,1.09571 -0.75343,2.09097 -2.01255,2.80146c-2.01553,1.13713 -4.34299,2.20627 -6.91669,3.17627l-0.79037,0.29801l-0.49763,-0.68317c-2.4754,-3.4011 -5.41874,-5.96592 -8.74733,-7.62209c-0.41628,-0.20551 -0.82813,-0.39404 -1.23988,-0.57078l-1.03519,-0.44651l0.46358,-1.02847c1.0706,-2.37708 2.54423,-4.05095 4.37704,-4.97512c0.40666,-0.20558 0.78001,-0.30536 1.14011,-0.30536z" data-paper-data="{&quot;index&quot;:null}" fill="#f7941e" stroke="#000000"/><path d="M252.15236,208.32147c-0.3601,0 -0.73346,-0.09977 -1.14012,-0.30536c-1.83283,-0.92416 -3.30645,-2.59803 -4.37704,-4.97512l-0.46358,-1.02847l1.03519,-0.44651c0.41174,-0.17673 0.8236,-0.36525 1.23988,-0.57078c3.32858,-1.65617 6.27192,-4.22097 8.74733,-7.62209l0.49763,-0.68317l0.79038,0.29801c2.5737,0.96999 4.90114,2.03914 6.91669,3.17627c1.25912,0.71049 1.9748,1.70573 2.01255,2.80146c0.03693,1.06832 -0.57006,2.07093 -1.70873,2.82062c-0.69496,0.45696 -1.51863,0.68907 -2.44653,0.68907c-1.01958,0 -2.05831,-0.27867 -3.04165,-0.65657c0.4044,0.45768 0.7408,0.93388 1.05651,1.39819c0.54192,0.79555 0.62325,1.68796 0.22176,2.448c-0.4428,0.83548 -1.41952,1.37522 -2.48866,1.37522v0c-0.54118,0 -1.06612,-0.1398 -1.52009,-0.40594c-1.45429,-0.85245 -2.69871,-2.0317 -3.75968,-3.174c0.37709,1.92378 0.45251,3.37877 -0.23438,4.22761c-0.32969,0.40884 -0.80515,0.6336 -1.33745,0.6336z" data-paper-data="{&quot;index&quot;:null}" fill="#f7941e" stroke="#000000"/><path d="M244.09477,208.95523c-14.40864,0 -26.08916,-13.53835 -26.08916,-30.23875c0,-16.7004 11.68051,-30.23875 26.08916,-30.23875c14.40864,0 26.08916,13.53835 26.08916,30.23875c0,16.7004 -11.68051,30.23875 -26.08916,30.23875z" data-paper-data="{&quot;index&quot;:null}" fill="#787cac" stroke="#000000"/><path d="M247.53597,178.96532c0,-12.43831 5.06697,-22.52157 11.31737,-22.52157c6.25041,0 11.31736,10.08325 11.31736,22.52157c0,12.43832 -5.06696,22.52156 -11.31736,22.52156c-6.2504,0 -11.31737,-10.08324 -11.31737,-22.52156z" data-paper-data="{&quot;index&quot;:null}" fill="#f3f3f3" stroke="none"/><path d="M227.72452,207.05884c0.51031,-2.52443 6.68437,-3.40641 13.79016,-1.96996c7.10579,1.43644 12.45249,4.64735 11.94216,7.17178c-0.51033,2.52443 -6.6844,3.40641 -13.79018,1.96996c-7.10578,-1.43645 -12.45246,-4.64737 -11.94215,-7.17179z" data-paper-data="{&quot;index&quot;:null}" fill="#898dc5" stroke="#000000"/><path d="M243.75464,152.5427c-6.00705,4.05842 -12.04556,5.61841 -13.48736,3.48432c-1.44181,-2.13409 2.25905,-7.1541 8.26611,-11.21253c6.00707,-4.05842 12.04556,-5.6184 13.48738,-3.48432c1.4418,2.13409 -2.25907,7.1541 -8.26612,11.21253z" data-paper-data="{&quot;index&quot;:null}" fill="#898dc5" stroke="#000000"/><path d="M231.17629,210.8199c-14.40864,0 -26.08916,-13.53836 -26.08916,-30.23876c0,-16.7004 11.68051,-30.23875 26.08916,-30.23875c14.40864,0 26.08916,13.53835 26.08916,30.23875c0,16.7004 -11.68051,30.23876 -26.08916,30.23876z" data-paper-data="{&quot;index&quot;:null}" fill="#898dc5" stroke="#000000"/><path d="M235.30836,179.79368c0,-12.43831 5.06696,-22.52157 11.31736,-22.52157c6.25041,0 11.31736,10.08325 11.31736,22.52157c0,12.43832 -5.06696,22.52156 -11.31736,22.52156c-6.25041,0 -11.31736,-10.08324 -11.31736,-22.52156z" data-paper-data="{&quot;index&quot;:null}" fill="#ffffff" stroke="none"/><path d="M249.49708,180.24336c0,-5.91472 -0.94112,-10.70955 5.42114,-10.70955c6.36226,0 11.51989,4.79482 11.51989,10.70955c0,5.91473 -5.15763,10.70957 -11.51989,10.70957c-6.36226,0 -5.42114,-4.79484 -5.42114,-10.70957z" data-paper-data="{&quot;index&quot;:null}" fill="#f7941e" stroke="#000000"/><path d="M243.80354,188.72381c2.57755,0 4.66707,1.46638 4.66707,3.27525c0,1.80886 -2.08952,3.27525 -4.66707,3.27525c-2.57755,0 -4.66705,-1.46638 -4.66705,-3.27525c0,-1.80888 2.0895,-3.27525 4.66705,-3.27525z" data-paper-data="{&quot;index&quot;:null}" fill="#231f20" stroke="none"/><path d="M243.80354,161.4975c2.57755,0 4.66707,1.46638 4.66707,3.27525c0,1.80888 -2.08952,3.27525 -4.66707,3.27525c-2.57755,0 -4.66705,-1.46638 -4.66705,-3.27525c0,-1.80886 2.0895,-3.27525 4.66705,-3.27525z" data-paper-data="{&quot;index&quot;:null}" fill="#231f20" stroke="none"/></g></g></svg>