<svg version="1.1" xmlns="http://www.w3.org/2000/svg" xmlns:xlink="http://www.w3.org/1999/xlink" width="630.63063" height="513.51352" viewBox="0,0,630.63063,513.51352"><g transform="translate(90.74727,92.14969)"><g data-paper-data="{&quot;isPaintingLayer&quot;:true}" fill="none" fill-rule="nonzero" stroke-linejoin="miter" stroke-miterlimit="10" stroke-dasharray="" stroke-dashoffset="0" style="mix-blend-mode: normal"><path d="M69.33336,331.66666c0,0 219.15228,62.87568 226.58624,-39.58469c5.66814,-78.12257 -55.72411,-44.4058 -110.78844,-29.14488c-13.96266,3.86971 -73.15393,-11.36475 -97.57805,-33.69799c-13.23768,-12.10444 -44.36877,-65.71967 -27.66219,-95.81802c20.1526,-36.30663 64.98541,-61.95884 105.99641,-66.7389c23.38139,-2.72522 -5.61308,92.78432 65.85401,84.4357c42.2469,-4.93519 51.28018,-27.4863 60.20234,-57.31767c6.17104,-20.63295 0.81335,-54.65936 53.43827,-48.08616c1.51737,0.18953 3.04953,0.42402 4.59395,0.7028" stroke="#a5e8ff" stroke-width="35" stroke-linecap="round"/><path d="M404.26294,62.97205c36.9041,14.46105 74.80691,50.94019 82.55907,101.04289c6.54368,42.29218 -52.20581,76.76714 -60.50932,117.36061c-9.83918,48.10089 29.78874,98.96631 29.78874,98.96631" stroke="#a5e8ff" stroke-width="35" stroke-linecap="round"/><path d="M254.70535,244.42895c-20.30176,2.90383 -50.2454,7.26048 -74.18661,13.89572c-13.96266,3.86971 -68.34772,-5.59729 -92.77184,-27.93053" stroke="#a5e8ff" stroke-width="50" stroke-linecap="round"/><path d="M-90.74727,421.36383v-513.51351h630.63063v513.51352z" stroke="none" stroke-width="0" stroke-linecap="butt"/></g></g></svg>