<svg version="1.1" xmlns="http://www.w3.org/2000/svg" xmlns:xlink="http://www.w3.org/1999/xlink" width="630.63063" height="513.51352" viewBox="0,0,630.63063,513.51352"><g transform="translate(90.74727,92.14969)"><g data-paper-data="{&quot;isPaintingLayer&quot;:true}" fill-rule="nonzero" stroke="none" stroke-width="0" stroke-linecap="butt" stroke-linejoin="miter" stroke-miterlimit="10" stroke-dasharray="" stroke-dashoffset="0" style="mix-blend-mode: normal"><path d="M61.30934,329.43222c0,-9.1127 7.3873,-16.5 16.5,-16.5c9.1127,0 16.5,7.3873 16.5,16.5c0,9.1127 -7.3873,16.5 -16.5,16.5c-9.1127,0 -16.5,-7.3873 -16.5,-16.5z" fill="#ffffff"/><path d="M244.30934,51.43222c-1.8529,-8.92234 7.3889,-16.32918 16.5,-16.5c17.77937,-0.33333 16.5,7.3873 16.5,16.5c0,9.1127 -7.46792,17.7095 -16.5,16.5c-12.44603,-1.66667 -13.5,-2.05397 -16.5,-16.5z" fill="#ffffff"/><path d="M253.30934,132.43223c-1.8529,-8.92234 7.3889,-16.32918 16.5,-16.5c17.77937,-0.33333 16.5,7.3873 16.5,16.5c0,9.1127 -7.46792,17.7095 -16.5,16.5c-12.44603,-1.66667 -13.5,-2.05397 -16.5,-16.5z" fill="#ffffff"/><path d="M394.30934,273.43223c-1.8529,-8.92234 7.3889,-16.32918 16.5,-16.5c17.77937,-0.33333 16.5,7.3873 16.5,16.5c0,9.1127 -7.46792,17.7095 -16.5,16.5c-12.44603,-1.66667 -13.5,-2.05397 -16.5,-16.5z" fill="#ffffff"/><path d="M328.30934,338.43224c-1.8529,-8.92234 7.3889,-16.32918 16.5,-16.5c17.77937,-0.33333 16.5,7.3873 16.5,16.5c0,9.1127 -7.46792,17.7095 -16.5,16.5c-12.44603,-1.66667 -13.5,-2.05397 -16.5,-16.5z" fill="#ffffff"/><path d="M309.33609,75.63423c6.59375,0 11.93904,5.34529 11.93904,11.93904c0,6.59375 -5.34529,11.93904 -11.93904,11.93904c-6.59375,0 -11.93904,-5.34529 -11.93904,-11.93904c0,-6.59375 5.34529,-11.93904 11.93904,-11.93904z" fill="#ffffff"/><path d="M250.92681,73.47797c9.03588,0 16.36091,7.32503 16.36091,16.36091c0,9.03588 -7.32503,16.36091 -16.36091,16.36091c-9.03588,0 -16.36091,-7.32503 -16.36091,-16.36091c0,-9.03588 7.32503,-16.36091 16.36091,-16.36091z" fill="#ffffff"/><path d="M290.57363,77.74987c9.03588,0 16.36091,7.32503 16.36091,16.36091c0,9.03588 -7.32502,16.36091 -16.36091,16.36091c-9.03588,0 -16.36091,-7.32503 -16.36091,-16.36091c0,-9.03588 7.32502,-16.36091 16.36091,-16.36091z" fill="#ffffff"/><path d="M324.13918,62.87179c9.03588,0 16.36091,7.32503 16.36091,16.36091c0,9.03588 -7.32502,16.36091 -16.36091,16.36091c-9.03588,0 -16.36091,-7.32503 -16.36091,-16.36091c0,-9.03588 7.32502,-16.36091 16.36091,-16.36091z" fill="#ffffff"/><path d="M-90.74727,421.36383v-513.51351h630.63063v513.51352z" fill="none"/></g></g></svg>