<svg version="1.1" xmlns="http://www.w3.org/2000/svg" xmlns:xlink="http://www.w3.org/1999/xlink" width="630.63063" height="513.51352" viewBox="0,0,630.63063,513.51352"><g transform="translate(90.74727,92.14969)"><g data-paper-data="{&quot;isPaintingLayer&quot;:true}" fill-rule="nonzero" stroke-linejoin="miter" stroke-miterlimit="10" stroke-dasharray="" stroke-dashoffset="0" style="mix-blend-mode: normal"><path d="M81.83334,340.66669v-22h162v22z" fill="#a5e8ff" stroke="none" stroke-width="0" stroke-linecap="butt"/><path d="M313.33334,348.66668l-3.91605,-20.89188l0.58272,-23.10812l22.7668,7.46742l22.56653,-1.13409l3.33333,18.05556l-3.33333,23.94444l-30.22223,-4z" fill="#a5e8ff" stroke="none" stroke-width="0" stroke-linecap="butt"/><path d="M102.44445,322.40853l7.64704,7.64704l-7.64704,7.64704z" fill="#89e1ff" stroke="none" stroke-width="0" stroke-linecap="butt"/><path d="M121.44445,322.40853l7.64704,7.64704l-7.64704,7.64704z" fill="#89e1ff" stroke="none" stroke-width="0" stroke-linecap="butt"/><path d="M140.77778,322.0752l7.64704,7.64704l-7.64704,7.64704z" fill="#89e1ff" stroke="none" stroke-width="0" stroke-linecap="butt"/><path d="M159.77778,322.0752l7.64704,7.64704l-7.64704,7.64704z" fill="#89e1ff" stroke="none" stroke-width="0" stroke-linecap="butt"/><path d="M176.77778,321.40853l7.64704,7.64704l-7.64704,7.64704z" fill="#89e1ff" stroke="none" stroke-width="0" stroke-linecap="butt"/><path d="M195.77778,321.40853l7.64704,7.64704l-7.64704,7.64704z" fill="#89e1ff" stroke="none" stroke-width="0" stroke-linecap="butt"/><path d="M215.11112,321.0752l7.64704,7.64704l-7.64704,7.64704z" fill="#89e1ff" stroke="none" stroke-width="0" stroke-linecap="butt"/><path d="M234.11112,321.0752l7.64704,7.64704l-7.64704,7.64704z" fill="#89e1ff" stroke="none" stroke-width="0" stroke-linecap="butt"/><path d="M340.39901,290.38278c-0.51907,0.02253 -1.04104,0.03391 -1.56566,0.03391c-19.60611,0 -35.5,-15.89389 -35.5,-35.5c0,-19.06415 15.02735,-34.61848 33.8829,-35.46382" fill="none" stroke="#a5e8ff" stroke-width="10" stroke-linecap="butt"/><path d="M271.51612,148.45286c1.94739,0.08731 71.85395,0.33151 73.70734,0.72027c16.09196,3.3754 28.17556,17.64834 28.17556,34.74356c0,19.60611 -15.89389,35.5 -35.5,35.5c-0.52463,0 -1.04659,-0.01138 -1.56567,-0.03391" data-paper-data="{&quot;index&quot;:null}" fill="none" stroke="#a5e8ff" stroke-width="10" stroke-linecap="butt"/><path d="M224.42014,151.8772c0,0 -26.85698,-4.03012 -40.49279,5.94486c-7.58228,5.54666 -1.96338,19.55694 11.3986,24.41197c2.62362,0.95328 19.18499,16.53048 -1.85484,24.06984c-21.03446,7.53744 -79.66911,7.03695 -85.00547,8.71522" fill="none" stroke="#a5e8ff" stroke-width="2" stroke-linecap="round"/><path d="M34.71178,191.59953c0,-11.34726 9.19878,-20.54603 20.54603,-20.54603c11.34726,0 20.54603,9.19878 20.54603,20.54603c0,11.34726 -9.19878,20.54603 -20.54603,20.54603c-11.34726,0 -20.54603,-9.19878 -20.54603,-20.54603z" fill="none" stroke="#a5e8ff" stroke-width="3" stroke-linecap="butt"/><path d="M4.57761,282.68693z" fill="none" stroke="#a5e8ff" stroke-width="3" stroke-linecap="butt"/><path d="M19.16575,134.96144c0,-11.34726 9.19878,-20.54603 20.54603,-20.54603c11.34726,0 20.54603,9.19878 20.54603,20.54603c0,11.34726 -9.19878,20.54603 -20.54603,20.54603c-11.34726,0 -20.54603,-9.19878 -20.54603,-20.54603z" fill="none" stroke="#a5e8ff" stroke-width="3" stroke-linecap="butt"/><path d="M24.85062,77.63848c0,-11.34726 9.19878,-20.54603 20.54603,-20.54603c11.34726,0 20.54603,9.19878 20.54603,20.54603c0,11.34726 -9.19878,20.54603 -20.54603,20.54603c-11.34726,0 -20.54603,-9.19878 -20.54603,-20.54603z" fill="none" stroke="#a5e8ff" stroke-width="3" stroke-linecap="butt"/><path d="M70.94268,41.54642c0,-11.34726 9.19878,-20.54603 20.54603,-20.54603c11.34726,0 20.54603,9.19878 20.54603,20.54603c0,11.34726 -9.19878,20.54603 -20.54603,20.54603c-11.34726,0 -20.54603,-9.19878 -20.54603,-20.54603z" fill="none" stroke="#a5e8ff" stroke-width="3" stroke-linecap="butt"/><path d="M192.52077,18.73643l5.3033,7.42462l-5.3033,9.54594l-7.42462,-8.83883z" fill="#a5e8ff" stroke="none" stroke-width="0" stroke-linecap="butt"/><path d="M243.55677,33.74347l-1.39689,9.01658l-10.46497,3.11998l0.86831,-11.51069z" fill="#a5e8ff" stroke="none" stroke-width="0" stroke-linecap="butt"/><path d="M271.77747,37.47708l-6.19886,-6.69508l4.05473,-10.13949l8.48186,7.82994z" fill="#a5e8ff" stroke="none" stroke-width="0" stroke-linecap="butt"/><path d="M306.91165,50.69549l-6.19886,-6.69508l4.05472,-10.13949l8.48186,7.82994z" fill="#a5e8ff" stroke="none" stroke-width="0" stroke-linecap="butt"/><path d="M-90.74727,421.36383v-513.51351h630.63063v513.51352z" fill="none" stroke="none" stroke-width="0" stroke-linecap="butt"/></g></g></svg>