<svg version="1.1" xmlns="http://www.w3.org/2000/svg" xmlns:xlink="http://www.w3.org/1999/xlink" width="101.08456" height="78.33334" viewBox="0,0,101.08456,78.33334"><g transform="translate(-189.45772,-140.83333)"><g data-paper-data="{&quot;isPaintingLayer&quot;:true}" fill-rule="nonzero" stroke-linecap="butt" stroke-linejoin="miter" stroke-miterlimit="10" stroke-dasharray="" stroke-dashoffset="0" style="mix-blend-mode: normal"><path d="M255.06971,180.00004c0,8.49438 -6.74694,15.38042 -15.06971,15.38042c-8.32278,0 -15.06969,-6.88604 -15.06969,-15.38042c0,-8.49438 6.74694,-15.38042 15.06969,-15.38042c8.32278,0 15.06971,6.88605 15.06971,15.38042z" fill-opacity="0.74836" fill="#ffffff" stroke="none" stroke-width="0"/><path d="M259.30229,180c0,10.88017 -8.64193,19.70027 -19.3023,19.70027c-10.66037,0 -19.30228,-8.8201 -19.30228,-19.70027c0,-10.88017 8.64193,-19.70027 19.30228,-19.70027c10.66037,0 19.3023,8.82012 19.3023,19.70027z" fill="none" stroke-opacity="0.75" stroke="#ffffff" stroke-width="3"/><path d="M189.45772,219.16667v-78.33334h101.08456v78.33334z" fill="none" stroke="none" stroke-width="NaN"/></g></g></svg>