<svg version="1.1" xmlns="http://www.w3.org/2000/svg" xmlns:xlink="http://www.w3.org/1999/xlink" width="175.36493" height="127.51111" viewBox="0,0,175.36493,127.51111"><g transform="translate(-152.31757,-116.24449)"><g data-paper-data="{&quot;isPaintingLayer&quot;:true}" fill-rule="nonzero" stroke-linecap="butt" stroke-linejoin="miter" stroke-miterlimit="10" stroke-dasharray="" stroke-dashoffset="0" style="mix-blend-mode: normal"><path d="M284.16363,180c0,24.42958 -19.77273,44.23368 -44.16364,44.23368c-24.39089,0 -44.16364,-19.80409 -44.16364,-44.23368c0,-24.42958 19.77273,-44.23368 44.16365,-44.23368c24.39089,0 44.16364,19.80409 44.16364,44.23368z" fill-opacity="0.19834" fill="#000000" stroke="none" stroke-width="0"/><path d="M288.79397,180.00007c0,26.92545 -21.79818,48.75285 -48.68757,48.75285c-26.88939,0 -48.68756,-21.82739 -48.68756,-48.75285c0,-26.92545 21.79817,-48.75286 48.68756,-48.75286c26.88939,0 48.68757,21.8274 48.68757,48.75286z" fill="none" stroke-opacity="0.19834" stroke="#000000" stroke-width="2"/><path d="M152.31758,243.75561v-127.51111h175.36493v127.51111z" fill="none" stroke="none" stroke-width="0"/></g></g></svg>