<svg version="1.1" xmlns="http://www.w3.org/2000/svg" xmlns:xlink="http://www.w3.org/1999/xlink" width="84.54386" height="83.98181" viewBox="0,0,84.54386,83.98181"><g transform="translate(-197.72807,-138.0091)"><g data-paper-data="{&quot;isPaintingLayer&quot;:true}" fill-rule="nonzero" stroke="none" stroke-width="0" stroke-linecap="butt" stroke-linejoin="miter" stroke-miterlimit="10" stroke-dasharray="" stroke-dashoffset="0" style="mix-blend-mode: normal"><g><path d="M207,202.75c0,-13.78609 0,-37.47157 0,-45.25c0,-4.87819 5.46738,-10.5 10.25,-10.5c8.28983,0 33.55253,0 46.75,0c4.5596,0 9,6.72226 9,12.25c0,7.88766 0,29.97135 0,43.25c0,6.21419 -4.05534,10.5 -10,10.5c-13.29227,0 -36.03056,0 -44,0c-5.43698,0 -12,-4.15869 -12,-10.25z" fill="#40a946"/><path d="M232.37587,219.45614c-9.74824,-9.74824 -26.4964,-26.4964 -31.99658,-31.99658c-3.4494,-3.4494 -3.5586,-11.29064 -0.17678,-14.67247c5.8618,-5.8618 23.72522,-23.72522 33.05724,-33.05724c3.22412,-3.22412 11.11731,-1.61061 15.02602,2.2981c5.57741,5.57741 21.19294,21.19294 30.58237,30.58237c4.3941,4.3941 4.55706,10.29218 0.35355,14.49569c-9.39905,9.39905 -25.47746,25.47746 -31.1127,31.1127c-3.84453,3.84453 -11.42592,5.54465 -15.73313,1.23744z" fill="#40a946"/></g><g fill="#43b149"><path d="M212.91412,188.58135c2.85323,-9.34678 7.75527,-25.40521 9.36513,-30.67888c1.00961,-3.30735 5.87993,-5.9873 9.12248,-4.99747c5.62039,1.7157 22.74816,6.94417 31.69586,9.67558c3.09134,0.94367 4.71061,6.42027 3.56657,10.16801c-1.63246,5.34772 -6.20299,20.32016 -8.9512,29.32291c-1.28611,4.21314 -4.92259,6.27955 -8.95299,5.04921c-9.01198,-2.75102 -24.42823,-7.45704 -29.8314,-9.10642c-3.6862,-1.12526 -7.27514,-5.3031 -6.01445,-9.43293z"/><path d="M226.66104,205.15977c-4.59164,-8.62671 -12.48039,-23.448 -15.0711,-28.31539c-1.62474,-3.05255 -0.07592,-8.3914 2.91682,-9.98432c5.1874,-2.76104 20.99564,-11.1751 29.25402,-15.57069c2.85319,-1.51863 7.87073,1.20891 9.71181,4.66792c2.62709,4.93574 9.98235,18.75471 14.40497,27.06388c2.06972,3.88856 0.95951,7.9211 -2.76039,9.90105c-8.3177,4.42716 -22.54629,12.00045 -27.5332,14.65477c-3.40221,1.81086 -8.89416,1.39444 -10.92295,-2.41723z"/></g><g fill="#48bd4e"><path d="M225.26267,190.15982c0,-6.15667 0,-16.73427 0,-20.208c0,-2.17853 2.44165,-4.68915 4.5775,-4.68915c3.70212,0 14.98408,0 20.87788,0c2.03625,0 4.01927,3.00206 4.01927,5.47067c0,3.52251 0,13.38477 0,19.31483c0,2.77517 -1.81106,4.68915 -4.46586,4.68915c-5.93614,0 -16.09073,0 -19.64977,0c-2.42808,0 -5.35903,-1.85721 -5.35903,-4.5775z"/><path d="M236.59517,197.62055c-4.35342,-4.35342 -11.83291,-11.83291 -14.28921,-14.28921c-1.54045,-1.54045 -1.58922,-5.04224 -0.07895,-6.55251c2.6178,-2.6178 10.59534,-10.59534 14.76289,-14.76289c1.43985,-1.43985 4.96483,-0.71928 6.71041,1.0263c2.49079,2.49079 9.46447,9.46447 13.65765,13.65765c1.96234,1.96234 2.03512,4.59634 0.15789,6.47357c-4.19748,4.19748 -11.37787,11.37787 -13.89448,13.89449c-1.71691,1.71691 -5.10265,2.47616 -7.02619,0.55262z"/></g><g fill="#ffffff"><path d="M231.55497,185.82195c0,-3.528 0,-9.58935 0,-11.57993c0,-1.24838 1.39916,-2.68705 2.62308,-2.68705c2.12145,0 8.58643,0 11.96379,0c1.16685,0 2.30319,1.72029 2.30319,3.1349c0,2.01853 0,7.66997 0,11.06811c0,1.59027 -1.0378,2.68705 -2.5591,2.68705c-3.40163,0 -9.22058,0 -11.26004,0c-1.39138,0 -3.07092,-1.06425 -3.07092,-2.62308z"/><path d="M238.04891,190.09722c-2.49467,-2.49467 -6.78069,-6.78069 -8.18824,-8.18824c-0.88274,-0.88274 -0.91068,-2.88938 -0.04524,-3.75483c1.50009,-1.50009 6.07152,-6.07152 8.45968,-8.45968c0.82508,-0.82508 2.84503,-0.41217 3.84531,0.58811c1.42732,1.42732 5.42348,5.42348 7.82633,7.82633c1.12449,1.12449 1.1662,2.63387 0.09048,3.70959c-2.40531,2.40531 -6.51993,6.51993 -7.96205,7.96205c-0.98385,0.98385 -2.924,1.41893 -4.02626,0.31667z"/></g></g></g></svg>