<svg version="1.1" xmlns="http://www.w3.org/2000/svg" xmlns:xlink="http://www.w3.org/1999/xlink" width="146.74044" height="36.26489" viewBox="0,0,146.74044,36.26489"><g transform="translate(-116.51216,-157.81489)"><g data-paper-data="{&quot;isPaintingLayer&quot;:true}" fill-rule="nonzero" stroke-linecap="butt" stroke-linejoin="miter" stroke-miterlimit="10" stroke-dasharray="" stroke-dashoffset="0" style="mix-blend-mode: normal"><path d="M117.51216,177.66357c0,-5.20895 4.22269,-9.43164 9.43164,-9.43164c5.20895,0 9.43164,4.22269 9.43164,9.43164c0,5.20895 -4.22269,9.43164 -9.43164,9.43164c-5.20895,0 -9.43164,-4.22269 -9.43164,-9.43164z" fill="#ffffff" stroke="#000000" stroke-width="2"/><path d="M129.72166,172.83527c0,-5.20895 4.22269,-9.43164 9.43164,-9.43164c5.20895,0 9.43164,4.22269 9.43164,9.43164c0,5.20895 -4.22269,9.43164 -9.43164,9.43164c-5.20895,0 -9.43164,-4.22269 -9.43164,-9.43164z" fill="#ffffff" stroke="#000000" stroke-width="2"/><path d="M144.66938,175.91738c0,-5.71304 4.63134,-10.34438 10.34438,-10.34438c5.71304,0 10.34438,4.63134 10.34438,10.34438c0,5.71304 -4.63134,10.34438 -10.34438,10.34438c-5.71304,0 -10.34438,-4.63134 -10.34438,-10.34438z" fill="#ffffff" stroke="#000000" stroke-width="2"/><path d="M117.51216,189.83343v-11.86561h47.7667v11.86561z" fill="#ffffff" stroke="#000000" stroke-width="2"/><path d="M118.12065,182.83576v-7.30192h46.24547v7.30192z" fill="#ffffff" stroke="none" stroke-width="0"/><path d="M128.46503,179.48905v-8.82315h3.34671v8.82315z" fill="#ffffff" stroke="none" stroke-width="0"/><path d="M142.15612,179.1848v-7.91041h5.17219v7.91041z" fill="#ffffff" stroke="none" stroke-width="0"/><text transform="translate(174.15582,186.15611) scale(0.65289,0.65289)" font-size="40" xml:space="preserve" fill="#000000" fill-rule="nonzero" stroke="none" stroke-width="1" stroke-linecap="butt" stroke-linejoin="miter" stroke-miterlimit="10" stroke-dasharray="" stroke-dashoffset="0" font-family="Sans Serif" font-weight="normal" text-anchor="start" style="mix-blend-mode: normal"><tspan x="0" dy="0">record:</tspan></text></g></g></svg>