<svg version="1.1" xmlns="http://www.w3.org/2000/svg" xmlns:xlink="http://www.w3.org/1999/xlink" width="146" height="60" viewBox="0,0,146,60"><g transform="translate(-168.33333,-150.66666)"><g data-paper-data="{&quot;isPaintingLayer&quot;:true}" fill-rule="nonzero" stroke-linecap="butt" stroke-linejoin="miter" stroke-miterlimit="10" stroke-dasharray="" stroke-dashoffset="0" style="mix-blend-mode: normal"><path d="M175.83333,194.26487c0,-8.24227 0,-19.96063 0,-25c0,-4.48862 6.08431,-11.09821 12.27778,-11.09821c15.10958,0 79.58411,0 106.66667,0c7.43796,0 12.05555,6.97546 12.05555,12.09821c0,5.47807 0,16.74577 0,24.66666c0,4.06817 -4.75301,8.23513 -8.38888,8.23513c-12.65479,0 -85.16376,0 -112.33333,0c-6.39469,0 -10.27778,-3.77967 -10.27778,-8.90179z" fill="#00b5ff" stroke="#ffffff" stroke-width="15"/><path d="M174.5,193.59821c0,-8.24227 0,-19.96063 0,-25c0,-4.48862 6.08431,-11.09821 12.27778,-11.09821c15.10958,0 79.58411,0 106.66667,0c7.43797,0 12.05555,6.97546 12.05555,12.09821c0,5.47807 0,16.74577 0,24.66666c0,4.06817 -4.75301,8.23513 -8.38889,8.23513c-12.65479,0 -85.16376,0 -112.33333,0c-6.39469,0 -10.27778,-3.77967 -10.27778,-8.90179z" fill="#00b5ff" stroke="#000000" stroke-width="7.5"/><path d="M174.5,193.88889c0,-8.24227 0,-19.96063 0,-25c0,-4.48862 6.08431,-11.09821 12.27778,-11.09821c15.10958,0 79.58411,0 106.66667,0c7.43797,0 12.05555,6.97546 12.05555,12.09821c0,5.47807 0,16.74577 0,24.66667c0,4.06817 -4.75301,8.23513 -8.38889,8.23513c-12.65479,0 -85.16376,0 -112.33333,0c-6.39468,0 -10.27778,-3.77967 -10.27778,-8.90179z" fill="#00b5ff" stroke="none" stroke-width="0"/><text transform="translate(218.97248,188.23882) scale(0.74054,0.74054)" font-size="40" xml:space="preserve" fill="#00b7ff" fill-rule="nonzero" stroke="#ffffff" stroke-width="17" stroke-linecap="butt" stroke-linejoin="miter" stroke-miterlimit="10" stroke-dasharray="" stroke-dashoffset="0" font-family="Handwriting" font-weight="normal" text-anchor="start" style="mix-blend-mode: normal"><tspan x="0" dy="0">play</tspan></text><text transform="translate(218.97248,188.23882) scale(0.74054,0.74054)" font-size="40" xml:space="preserve" fill="#00b7ff" fill-rule="nonzero" stroke="#000000" stroke-width="10" stroke-linecap="butt" stroke-linejoin="miter" stroke-miterlimit="10" stroke-dasharray="" stroke-dashoffset="0" font-family="Handwriting" font-weight="normal" text-anchor="start" style="mix-blend-mode: normal"><tspan x="0" dy="0">play</tspan></text><text transform="translate(218.97248,188.23881) scale(0.74054,0.74054)" font-size="40" xml:space="preserve" fill="#00b7ff" fill-rule="nonzero" stroke="#00c3ff" stroke-width="3" stroke-linecap="butt" stroke-linejoin="miter" stroke-miterlimit="10" stroke-dasharray="" stroke-dashoffset="0" font-family="Handwriting" font-weight="normal" text-anchor="start" style="mix-blend-mode: normal"><tspan x="0" dy="0">play</tspan></text><path d="M262.78788,169.86736l0.26606,-2.15507l4.25342,0.52511l-0.26606,2.15507z" fill="#ffffff" stroke="none" stroke-width="0"/><path d="M259.49207,168.55556v-10.66667h11v10.66667c0,0 -3.89969,-0.57143 -5.5873,-0.57143c-1.94296,0 -5.4127,0.57143 -5.4127,0.57143z" fill="#00b5ff" stroke="none" stroke-width="NaN"/><path d="M262.19048,158.09524v-4.14286h8.28571v4.14286z" fill="#000000" stroke="none" stroke-width="0"/></g></g></svg>