<svg version="1.1" xmlns="http://www.w3.org/2000/svg" xmlns:xlink="http://www.w3.org/1999/xlink" width="84.54386" height="121.57922" viewBox="0,0,84.54386,121.57922"><g transform="translate(-197.72807,-60.25411)"><g data-paper-data="{&quot;isPaintingLayer&quot;:true}" fill-rule="nonzero" stroke="none" stroke-width="0" stroke-linecap="butt" stroke-linejoin="miter" stroke-miterlimit="10" stroke-dasharray="" stroke-dashoffset="0" style="mix-blend-mode: normal"><path d="M231.66667,181.83334v-46h14.5v46z" fill="#b96138"/><g fill="#40a946"><path d="M207,130.99027c0,-11.46443 0,-31.16115 0,-37.62965c0,-4.05668 5.46738,-8.73174 10.25,-8.73174c8.28983,0 33.55253,0 46.75,0c4.5596,0 9,5.59019 9,10.18703c0,6.55933 0,24.92401 0,35.96646c0,5.16769 -4.05534,8.73174 -10,8.73174c-13.29227,0 -36.03056,0 -44,0c-5.43698,0 -12,-3.45834 -12,-8.52384z"/><path d="M232.37587,144.88301c-9.74824,-8.10658 -26.4964,-22.03426 -31.99658,-26.60818c-3.4494,-2.8685 -3.5586,-9.38923 -0.17678,-12.20154c5.8618,-4.87464 23.72522,-19.72976 33.05724,-27.49021c3.22412,-2.68116 11.11731,-1.33937 15.02602,1.91109c5.57741,4.63814 21.19294,17.62393 30.58237,25.43213c4.3941,3.65411 4.55706,8.55892 0.35355,12.05453c-9.39905,7.8162 -25.47746,21.18691 -31.1127,25.87315c-3.84453,3.19709 -11.42592,4.6109 -15.73313,1.02905z"/></g><g fill="#43b149"><path d="M212.91412,102.38114c2.85323,-6.71942 7.75527,-18.26385 9.36513,-22.05511c1.00961,-2.37766 5.87993,-4.30428 9.12248,-3.59269c5.62039,1.23342 22.74816,4.99218 31.69586,6.95579c3.09134,0.67841 4.71061,4.61554 3.56657,7.3098c-1.63246,3.84449 -6.20299,14.6082 -8.9512,21.0803c-1.28611,3.02883 -4.92259,4.51438 -8.95299,3.62989c-9.01198,-1.97771 -24.42823,-5.36088 -29.8314,-6.54662c-3.6862,-0.80895 -7.27514,-3.81241 -6.01445,-6.78135z"/><path d="M226.66104,114.2994c-4.59164,-6.20176 -12.48039,-16.85681 -15.0711,-20.35599c-1.62474,-2.19448 -0.07592,-6.03259 2.91682,-7.17775c5.1874,-1.98492 20.99564,-8.0338 29.25402,-11.1938c2.85319,-1.09175 7.87073,0.86909 9.71181,3.35578c2.62709,3.54831 9.98235,13.4828 14.40497,19.45628c2.06972,2.79549 0.95951,5.69449 -2.76039,7.11788c-8.3177,3.18269 -22.54629,8.62715 -27.5332,10.53534c-3.40221,1.30183 -8.89416,1.00247 -10.92295,-1.73775z"/></g><g fill="#48bd4e"><path d="M225.76267,86.59311c0,-4.5129 0,-12.26638 0,-14.81265c0,-1.59688 2.44165,-3.43719 4.5775,-3.43719c3.70212,0 14.98408,0 20.87788,0c2.03625,0 4.01927,2.20054 4.01927,4.01005c0,2.58203 0,9.81116 0,14.15795c0,2.03423 -1.81106,3.43719 -4.46586,3.43719c-5.93614,0 -16.09073,0 -19.64977,0c-2.42808,0 -5.35903,-1.36135 -5.35903,-3.35535z"/><path d="M237.09517,92.06189c-4.35342,-3.1911 -11.83291,-8.67363 -14.28921,-10.47413c-1.54045,-1.12916 -1.58922,-3.69601 -0.07895,-4.80305c2.6178,-1.91887 10.59534,-7.76648 14.76289,-10.82134c1.43985,-1.05542 4.96483,-0.52724 6.71041,0.75229c2.49079,1.82577 9.46447,6.93755 13.65765,10.01119c1.96234,1.43841 2.03512,3.36916 0.15789,4.74519c-4.19748,3.07679 -11.37787,8.34009 -13.89448,10.18479c-1.71691,1.25851 -5.10265,1.81505 -7.02619,0.40508z"/></g><g fill="#ffffff"><path d="M231.05497,72.60684c0,-2.63042 0,-7.14967 0,-8.63382c0,-0.93077 1.39916,-2.00342 2.62308,-2.00342c2.12145,0 8.58643,0 11.96379,0c1.16685,0 2.30319,1.28262 2.30319,2.33733c0,1.50499 0,5.71861 0,8.25221c0,1.18568 -1.0378,2.00342 -2.5591,2.00342c-3.40163,0 -9.22058,0 -11.26004,0c-1.39138,0 -3.07092,-0.79349 -3.07092,-1.95573z"/><path d="M237.54891,75.79441c-2.49467,-1.85999 -6.78069,-5.05558 -8.18824,-6.10503c-0.88274,-0.65816 -0.91068,-2.15428 -0.04524,-2.79954c1.50009,-1.11844 6.07152,-4.52683 8.45968,-6.30741c0.82508,-0.61517 2.84503,-0.30731 3.84531,0.43849c1.42732,1.06419 5.42348,4.04366 7.82633,5.83519c1.12449,0.8384 1.1662,1.96377 0.09048,2.76581c-2.40531,1.79336 -6.51993,4.86116 -7.96205,5.93638c-0.98385,0.73354 -2.924,1.05793 -4.02626,0.2361z"/></g></g></g></svg>