<svg version="1.1" xmlns="http://www.w3.org/2000/svg" xmlns:xlink="http://www.w3.org/1999/xlink" width="630.63063" height="513.51352" viewBox="0,0,630.63063,513.51352"><g transform="translate(90.74727,92.14969)"><g data-paper-data="{&quot;isPaintingLayer&quot;:true}" fill-rule="nonzero" stroke-linejoin="miter" stroke-miterlimit="10" stroke-dasharray="" stroke-dashoffset="0" style="mix-blend-mode: normal"><path d="M66.33334,337.66667l4.68052,-52.23779l-27.68052,-71.76221l73.22905,-8.40555l94.24282,17.92494l89.52814,-16.51939l-16.80316,55.35704l15.07593,40.51167l-7.27278,35.1313z" fill="#a5e8ff" stroke="none" stroke-width="NaN" stroke-linecap="butt"/><path d="M99.33334,183.66667l-6.5,-32l18.85371,6.34716l15.64629,-2.34716l4,17.5l-4,10.5l-15.66667,5z" fill="#a5e8ff" stroke="none" stroke-width="0" stroke-linecap="butt"/><path d="M113.0293,102.18799l18.03122,-27.22361l8.84346,17.81971l12.7233,9.40391l-9.54594,15.2028l-10.25305,4.59619l-14.61355,-7.54248z" fill="#a5e8ff" stroke="none" stroke-width="0" stroke-linecap="butt"/><path d="M179.48332,81.60068l-6.5,-32l18.8537,6.34716l15.64629,-2.34716l4,17.5l-4,10.5l-15.66668,5z" fill="#a5e8ff" stroke="none" stroke-width="0" stroke-linecap="butt"/><path d="M272.33334,52.66667c0,0 52.13776,-9.60666 74.21501,9.50432c22.07725,19.11097 8.02489,33.17294 -7.22144,48.48805c-15.24633,15.31512 -54.99356,14.00763 -54.99356,14.00763" fill="none" stroke="#a5e8ff" stroke-width="2" stroke-linecap="round"/><path d="M272.16667,167.33334l1.5,-9l10.5,-3l-1,11.5z" fill="#a5e8ff" stroke="none" stroke-width="0" stroke-linecap="butt"/><path d="M284.16667,181.84806l5.3033,7.42462l-5.3033,9.54594l-7.42462,-8.83883z" fill="#a5e8ff" stroke="none" stroke-width="0" stroke-linecap="butt"/><path d="M317.16668,217.34806l5.3033,7.42462l-5.3033,9.54594l-7.42462,-8.83883z" fill="#a5e8ff" stroke="none" stroke-width="0" stroke-linecap="butt"/><path d="M360.35601,233.08333l-9,-1.5l-3,-10.5l11.5,1z" fill="#a5e8ff" stroke="none" stroke-width="0" stroke-linecap="butt"/><path d="M387.85602,256.58334l-9,-1.5l-3,-10.5l11.5,1z" fill="#a5e8ff" stroke="none" stroke-width="0" stroke-linecap="butt"/><path d="M414.33335,274.66666c0,0 52.13776,-9.60666 74.21501,9.50432c22.07725,19.11097 8.02489,33.17294 -7.22144,48.48805c-15.24633,15.31512 -83.99356,11.00763 -83.99356,11.00763" fill="none" stroke="#a5e8ff" stroke-width="2" stroke-linecap="round"/><path d="M-90.74727,421.36383v-513.51351h630.63063v513.51352z" fill="none" stroke="none" stroke-width="0" stroke-linecap="butt"/></g></g></svg>