<svg version="1.1" xmlns="http://www.w3.org/2000/svg" xmlns:xlink="http://www.w3.org/1999/xlink" width="146" height="60" viewBox="0,0,146,60"><g transform="translate(-167.66667,-150.33333)"><g data-paper-data="{&quot;isPaintingLayer&quot;:true}" fill-rule="nonzero" stroke-linecap="butt" stroke-linejoin="miter" stroke-miterlimit="10" stroke-dasharray="" stroke-dashoffset="0" style="mix-blend-mode: normal"><path d="M175.16667,193.93154c0,-8.24227 0,-19.96063 0,-25c0,-4.48862 6.08431,-11.09821 12.27778,-11.09821c15.10958,0 79.58411,0 106.66667,0c7.43796,0 12.05555,6.97546 12.05555,12.09821c0,5.47807 0,16.74577 0,24.66666c0,4.06817 -4.75301,8.23513 -8.38888,8.23513c-12.65479,0 -85.16376,0 -112.33333,0c-6.39469,0 -10.27778,-3.77967 -10.27778,-8.90179z" fill="#00b5ff" stroke="#ffffff" stroke-width="15"/><path d="M173.83333,193.26488c0,-8.24227 0,-19.96063 0,-25c0,-4.48862 6.08431,-11.09821 12.27778,-11.09821c15.10958,0 79.58411,0 106.66667,0c7.43797,0 12.05555,6.97546 12.05555,12.09821c0,5.47807 0,16.74577 0,24.66666c0,4.06817 -4.75301,8.23513 -8.38889,8.23513c-12.65479,0 -85.16376,0 -112.33333,0c-6.39469,0 -10.27778,-3.77967 -10.27778,-8.90179z" fill="#00b5ff" stroke="#000000" stroke-width="7.5"/><path d="M173.83333,193.55556c0,-8.24227 0,-19.96063 0,-25c0,-4.48862 6.08431,-11.09821 12.27778,-11.09821c15.10958,0 79.58411,0 106.66667,0c7.43797,0 12.05555,6.97546 12.05555,12.09821c0,5.47807 0,16.74577 0,24.66667c0,4.06817 -4.75301,8.23513 -8.38889,8.23513c-12.65479,0 -85.16376,0 -112.33333,0c-6.39468,0 -10.27778,-3.77967 -10.27778,-8.90179z" fill="#ff9200" stroke="none" stroke-width="0"/><text transform="translate(200.80582,187.90549) scale(0.74054,0.74054)" font-size="40" xml:space="preserve" fill="#00b7ff" fill-rule="nonzero" stroke="#ffffff" stroke-width="17" stroke-linecap="butt" stroke-linejoin="miter" stroke-miterlimit="10" stroke-dasharray="" stroke-dashoffset="0" font-family="Handwriting" font-weight="normal" text-anchor="start" style="mix-blend-mode: normal"><tspan x="0" dy="0">credits</tspan></text><text transform="translate(200.80582,187.90549) scale(0.74054,0.74054)" font-size="40" xml:space="preserve" fill="#00b7ff" fill-rule="nonzero" stroke="#000000" stroke-width="10" stroke-linecap="butt" stroke-linejoin="miter" stroke-miterlimit="10" stroke-dasharray="" stroke-dashoffset="0" font-family="Handwriting" font-weight="normal" text-anchor="start" style="mix-blend-mode: normal"><tspan x="0" dy="0">credits</tspan></text><path d="M214.47222,194.61112v-3.66667h5.77778v3.66667z" fill="#ffffff" stroke="none" stroke-width="0"/><text transform="translate(200.80582,187.90548) scale(0.74054,0.74054)" font-size="40" xml:space="preserve" fill="#ff9200" fill-rule="nonzero" stroke="#ff9200" stroke-width="3" stroke-linecap="butt" stroke-linejoin="miter" stroke-miterlimit="10" stroke-dasharray="" stroke-dashoffset="0" font-family="Handwriting" font-weight="normal" text-anchor="start" style="mix-blend-mode: normal"><tspan x="0" dy="0">credits</tspan></text><path d="M208.16667,202.52779v-6.27966c0,0 5.78362,-3.22034 8.86111,-3.22034c2.70862,0 8.63889,3.22034 8.63889,3.22034v6.27966z" fill="#ff9200" stroke="none" stroke-width="0"/><path d="M212.47222,205.94445v-3.44444h11v3.44444z" fill="#000000" stroke="none" stroke-width="0"/></g></g></svg>