<svg version="1.1" xmlns="http://www.w3.org/2000/svg" xmlns:xlink="http://www.w3.org/1999/xlink" width="175.36493" height="127.51111" viewBox="0,0,175.36493,127.51111"><g transform="translate(-152.3176,-116.24452)"><g data-paper-data="{&quot;isPaintingLayer&quot;:true}" fill-rule="nonzero" stroke-linecap="butt" stroke-linejoin="miter" stroke-miterlimit="10" stroke-dasharray="" stroke-dashoffset="0" style="mix-blend-mode: normal"><path d="M284.16364,180.00004c0,24.42958 -19.77273,44.23368 -44.16364,44.23368c-24.39089,0 -44.16364,-19.80409 -44.16364,-44.23368c0,-24.42958 19.77273,-44.23368 44.16365,-44.23368c24.39089,0 44.16364,19.80409 44.16364,44.23368z" fill-opacity="0.19834" fill="#000000" stroke="none" stroke-width="0"/><path d="M288.79399,180.0001c0,26.92545 -21.79818,48.75285 -48.68757,48.75285c-26.88939,0 -48.68756,-21.82739 -48.68756,-48.75285c0,-26.92545 21.79817,-48.75286 48.68756,-48.75286c26.88939,0 48.68757,21.8274 48.68757,48.75286z" fill="none" stroke-opacity="0.19834" stroke="#000000" stroke-width="2"/><path d="M152.3176,243.75564v-127.51111h175.36493v127.51111z" fill="none" stroke="none" stroke-width="0"/><path d="M255.06971,180.00004c0,8.49437 -6.74693,15.38042 -15.06971,15.38042c-8.32278,0 -15.06969,-6.88604 -15.06969,-15.38042c0,-8.49437 6.74694,-15.38043 15.06969,-15.38043c8.32278,0 15.06971,6.88605 15.06971,15.38043z" fill-opacity="0.74836" fill="#ffffff" stroke="none" stroke-width="0"/><path d="M259.30229,180.00001c0,10.88017 -8.64192,19.70028 -19.30229,19.70028c-10.66037,0 -19.30228,-8.82011 -19.30228,-19.70028c0,-10.88017 8.64193,-19.70027 19.30228,-19.70027c10.66037,0 19.30229,8.82012 19.30229,19.70027z" fill="none" stroke-opacity="0.75" stroke="#ffffff" stroke-width="3"/></g></g></svg>