<svg version="1.1" xmlns="http://www.w3.org/2000/svg" xmlns:xlink="http://www.w3.org/1999/xlink" width="110.06339" height="59.67216" viewBox="0,0,110.06339,59.67216"><g transform="translate(-176.10957,-150.16392)"><g data-paper-data="{&quot;isPaintingLayer&quot;:true}" fill-rule="nonzero" stroke-width="0.875" stroke-miterlimit="10" stroke-dasharray="" stroke-dashoffset="0" style="mix-blend-mode: normal"><path d="M222.6196,201.75239c-5.42226,-2.05132 -16.08901,-6.57763 -13.03554,-11.62422c3.05281,-5.04584 16.20608,7.20594 19.50663,8.38793c0,0 4.28454,-3.10753 4.59206,0.00439c0.30818,3.11201 -3.77406,2.61644 -3.77406,2.61644c0,0 4.68658,0.30785 3.06035,3.24865c-1.62615,2.94088 -3.67755,0.59439 -4.19798,-0.34964c0,0 1.5764,2.93723 -0.60915,3.73045c-2.18622,0.79255 -3.43254,-2.1373 -1.76295,-3.87504c0,0 -1.13763,-1.1397 -3.77936,-2.13896v0z" fill="#e29339" stroke="#000000" stroke-linecap="butt" stroke-linejoin="round"/><path d="M222.91236,163.5539v0v0v0v0c2.04029,-1.16134 3.75325,-2.18356 3.75391,-2.1829c-1.6909,-1.71785 -0.47865,-4.66163 1.7166,-3.89478c2.19525,0.76685 0.65351,3.72224 0.65351,3.72224c0.50883,-0.94959 2.53254,-3.32061 4.19259,-0.39864c1.66196,2.92214 -3.02122,3.28388 -3.02122,3.28388c0,0 4.07511,-0.54448 3.80424,2.57109c-0.27021,3.11557 -4.59132,0.05895 -4.59132,0.05895c-3.28587,1.22162 -15.83563,12.50598 -18.94764,7.49712c-3.11192,-5.00936 7.52747,-7.86351 12.43932,-10.65697z" fill="#e29339" stroke="#000000" stroke-linecap="butt" stroke-linejoin="round"/><path d="M258.84463,156.80406v0v0v0v0c2.03963,-1.16143 3.75325,-2.18356 3.75258,-2.1829c-1.69024,-1.71793 -0.47857,-4.66163 1.71669,-3.89478c2.19525,0.76685 0.65351,3.72224 0.65351,3.72224c0.50875,-0.94959 2.5332,-3.32061 4.19326,-0.39864c1.66196,2.92214 -3.0213,3.28388 -3.0213,3.28388c0,0 4.07511,-0.54448 3.80424,2.57109c-0.27021,3.11549 -4.59065,0.05903 -4.59065,0.05903c-3.28654,1.22154 -15.83563,12.50648 -18.94764,7.49712c-3.1125,-5.00944 7.52747,-7.86351 12.43932,-10.65705z" fill="#e29339" stroke="#000000" stroke-linecap="butt" stroke-linejoin="round"/><path d="M262.53246,198.34489v0v0v0v0c2.15479,0.93143 4.00182,1.68576 4.0019,1.68518c0.35544,-2.38388 3.43669,-3.18646 4.14442,-0.97114c0.70715,2.21474 -2.58054,2.76096 -2.58054,2.76096c1.06442,-0.16533 4.17593,0.02612 2.84047,3.10977c-1.33546,3.08556 -4.44125,-0.43869 -4.44125,-0.43869c0,0 2.88665,2.92894 0.23481,4.58585c-2.65251,1.65815 -2.8088,-3.63228 -2.8088,-3.63228c-2.95298,-1.89039 -19.51658,-5.12875 -17.38633,-10.62787c2.12959,-5.4992 10.8092,1.28488 15.99532,3.52822z" fill="#e29339" stroke="#000000" stroke-linecap="butt" stroke-linejoin="round"/><path d="M260.2717,166.81648v0v0v0v0c2.38238,1.63742 4.95248,7.12924 4.74238,12.70389c0.03797,5.92321 -4.18944,12.87892 -7.50019,14.59221c-6.9863,3.61561 -14.61725,1.15587 -19.91497,1.5376c-4.07204,0.29351 -6.81766,4.75946 -14.07053,4.39664c-11.94343,-0.59655 -20.68207,-7.2294 -20.75611,-18.33526c-0.07404,-11.10643 9.62406,-15.91838 19.02765,-16.63615c6.37641,-0.48752 12.00802,3.42749 15.5568,3.11997c6.77322,-0.58735 17.68282,-4.97445 22.91496,-1.3789z" fill="#e29339" stroke="#000000" stroke-linecap="butt" stroke-linejoin="miter"/><path d="M274.77039,163.65829l2.6802,-6.66593" fill="none" stroke="#000000" stroke-linecap="round" stroke-linejoin="miter"/><path d="M281.75056,159.71783l-4.25644,5.32003" fill="none" stroke="#000000" stroke-linecap="round" stroke-linejoin="miter"/><path d="M280.30491,166.98628l5.12071,-1.48843" fill="none" stroke="#000000" stroke-linecap="round" stroke-linejoin="miter"/><path d="M279.23526,200.14416l-3.22377,-5.08713" fill="none" stroke="#000000" stroke-linecap="round" stroke-linejoin="miter"/><path d="M278.63564,193.25825l5.04949,4.57333" fill="none" stroke="#000000" stroke-linecap="round" stroke-linejoin="miter"/><path d="M280.44246,191.49655l5.293,0.65218" fill="none" stroke="#000000" stroke-linecap="round" stroke-linejoin="miter"/><path d="M254.55022,166.32945c17.87219,-14.50813 21.63804,-1.66669 21.63804,-1.66669c0,0 0.06077,0.03656 0.09253,0.05232c3.7384,1.89586 6.37723,2.55011 6.0863,15.29895c-0.33927,14.87286 -6.35559,15.043 -6.35559,15.043c-6.01433,12.39803 -20.60082,-2.97529 -20.60082,-2.97529" fill="#e29339" stroke="#000000" stroke-linecap="butt" stroke-linejoin="round"/><g stroke-linecap="butt" stroke-linejoin="miter"><path d="M275.42813,187.99419c0.02239,-0.59514 0.28455,-1.12486 0.68933,-1.50078c0.40527,-0.37526 0.95324,-0.5968 1.54838,-0.57441c0.59514,0.02247 1.12478,0.28464 1.5007,0.68933c0.37534,0.40536 0.59688,0.95324 0.57441,1.54838c-0.02239,0.59514 -0.28455,1.12486 -0.68933,1.50078c-0.40536,0.37526 -0.95324,0.5968 -1.54838,0.57441c-0.59514,-0.02247 -1.12478,-0.28464 -1.5007,-0.68933c-0.37534,-0.40536 -0.59688,-0.95324 -0.57441,-1.54838z" fill="#ffffff" stroke="#000000"/><path d="M276.67197,187.55858c0.01401,-0.37103 0.17735,-0.70152 0.43031,-0.93549c0.2523,-0.23456 0.59415,-0.37261 0.96517,-0.35859c0.37103,0.01393 0.70152,0.17735 0.93541,0.43023c0.23464,0.2523 0.37261,0.59415 0.35868,0.96517c-0.01401,0.37103 -0.17735,0.70152 -0.43031,0.93549c-0.2523,0.23456 -0.59415,0.37261 -0.96517,0.35859c-0.37103,-0.01401 -0.70152,-0.17735 -0.93541,-0.43023c-0.23464,-0.2523 -0.37261,-0.59423 -0.35868,-0.96517z" fill="#000000" stroke="none"/></g><g stroke-linecap="butt" stroke-linejoin="miter"><path d="M276.16969,170.97508c0.02247,-0.59514 0.28464,-1.12478 0.68933,-1.50078c0.40536,-0.37526 0.95324,-0.5968 1.54838,-0.57433c0.59514,0.02239 1.12486,0.28455 1.50078,0.68924c0.37526,0.40536 0.5968,0.95332 0.57441,1.54846c-0.02247,0.59506 -0.28464,1.12478 -0.68933,1.5007c-0.40536,0.37526 -0.95324,0.59688 -1.54838,0.57441c-0.59514,-0.02247 -1.12486,-0.28455 -1.50078,-0.68933c-0.37526,-0.40536 -0.5968,-0.95324 -0.57441,-1.54838v0v0v0z" fill="#ffffff" stroke="#000000"/><path d="M277.41361,170.53946c0.01401,-0.37103 0.17735,-0.70152 0.43023,-0.93541c0.2523,-0.23464 0.59423,-0.37261 0.96517,-0.35868c0.37103,0.01401 0.7016,0.17735 0.93549,0.43031c0.23456,0.2523 0.37261,0.59415 0.35859,0.96517c-0.01393,0.37095 -0.17735,0.70152 -0.43023,0.93541c-0.2523,0.23464 -0.59415,0.37261 -0.96517,0.35868c-0.37103,-0.01401 -0.70152,-0.17735 -0.93549,-0.43031c-0.23456,-0.2523 -0.37261,-0.59415 -0.35859,-0.96517z" fill="#000000" stroke="none"/></g><path d="M281.54734,179.94388c0.03176,-0.84263 0.21275,-1.59986 0.4794,-2.14327c0.26673,-0.54415 0.61952,-0.87323 0.99419,-0.85905c0.37459,0.01409 0.70168,0.36879 0.92662,0.93143c0.22502,0.56198 0.34848,1.33065 0.31672,2.17328c-0.03176,0.84271 -0.21267,1.59986 -0.4794,2.14335c-0.26673,0.54407 -0.61952,0.87314 -0.99411,0.85905c-0.37468,-0.01409 -0.70168,-0.36879 -0.9267,-0.93143c-0.22502,-0.56198 -0.34848,-1.33065 -0.31672,-2.17336z" fill="#ec008c" stroke="#000000" stroke-linecap="butt" stroke-linejoin="miter"/><g><path d="M263.34516,196.06009c-2.37268,-0.41472 -10.19988,1.67482 -10.82437,0.83343c-0.62515,-0.84213 0.65368,-1.46472 2.02777,-3.57242c1.3741,-2.10703 4.37774,-8.28594 4.37774,-8.28594" fill="#e29339" stroke="#000000" stroke-linecap="round" stroke-linejoin="round"/><path d="M255.29302,195.2037v0v0v0v0c0,0 3.51496,-4.18712 4.94527,-7.1474c0.46596,1.81883 1.83799,4.86443 2.46115,6.19524c0,0 -0.45684,-0.05779 -0.45568,-0.05646c-1.53735,-0.3071 -6.95073,1.00862 -6.95073,1.00862z" fill="#58595b" stroke="none" stroke-linecap="butt" stroke-linejoin="miter"/></g><g><path d="M258.10414,174.56623c0,0 -2.52997,-6.38743 -3.74156,-8.59131c-1.21159,-2.20512 -2.43992,-2.92289 -1.75317,-3.71552c0.68601,-0.79139 8.33312,1.88077 10.73093,1.64654" fill="#e29339" stroke="#000000" stroke-linecap="round" stroke-linejoin="round"/><path d="M255.24726,164.15253c0,0 5.29905,1.71942 6.85514,1.52889c-0.00133,0.00191 0.45858,-0.02197 0.45858,-0.02197c-0.72158,1.28016 -2.31887,4.21316 -2.9204,5.99244c-1.20413,-3.05961 -4.39332,-7.49936 -4.39332,-7.49936v0z" fill="#58595b" stroke="none" stroke-linecap="butt" stroke-linejoin="miter"/></g><path d="M206.30217,183.57169c-0.40668,1.77456 -2.17262,2.8879 -3.95058,2.48801c-6.00853,-1.34864 -10.66866,-0.72548 -13.85098,1.85366c-5.2896,4.28637 -5.33562,12.92767 -5.33445,13.01266c0.0223,1.83069 -1.44092,3.327 -3.26971,3.34996c-1.82754,0.02305 -3.32691,-1.44159 -3.34938,-3.26912c-0.00589,-0.48329 -0.05232,-11.88423 7.7859,-18.23717c4.83441,-3.91741 11.38535,-4.98357 19.46857,-3.16806c1.78302,0.40013 2.90448,2.17137 2.50435,3.95439c-0.00141,0.00497 -0.00224,0.01003 -0.00373,0.01567v0v0v0v0v0z" fill="#e29339" stroke="#000000" stroke-linecap="butt" stroke-linejoin="miter"/></g></g></svg>