<svg version="1.1" xmlns="http://www.w3.org/2000/svg" xmlns:xlink="http://www.w3.org/1999/xlink" width="29.01388" height="15" viewBox="0,0,29.01388,15"><g transform="translate(-218.48612,-172.5)"><g data-paper-data="{&quot;isPaintingLayer&quot;:true}" fill-rule="nonzero" stroke-linejoin="miter" stroke-miterlimit="10" stroke-dasharray="" stroke-dashoffset="0" style="mix-blend-mode: normal"><path d="M232.5,180c0,-4.14213 3.35787,-7.5 7.5,-7.5c4.14213,0 7.5,3.35787 7.5,7.5c0,4.14213 -3.35787,7.5 -7.5,7.5c-4.14213,0 -7.5,-3.35787 -7.5,-7.5z" fill="#924700" stroke="none" stroke-width="0" stroke-linecap="butt"/><path d="M221.33334,180.58333c0,0 1.94433,-2.09242 3.67269,-2.10268c1.72836,-0.01026 2.33771,1.98963 3.88792,2.04592c1.55021,0.05629 2.15023,-1.73314 3.58522,-1.72102c1.43499,0.01213 3.13194,1.77778 3.13194,1.77778" fill="none" stroke="#ffffff" stroke-width="5" stroke-linecap="round"/><path d="M220.98612,180.70833c0,0 1.94433,-2.09242 3.67269,-2.10268" fill="none" stroke="#000000" stroke-width="5" stroke-linecap="round"/><path d="M232.60417,178.87499c1.43499,0.01213 3.1875,1.83334 3.1875,1.83334" fill="none" stroke="#000000" stroke-width="5" stroke-linecap="round"/><path d="M236.16667,180.33334c0,-2.11709 1.71625,-3.83334 3.83334,-3.83334c2.11709,0 3.83334,1.71625 3.83334,3.83334c0,2.11709 -1.71625,3.83333 -3.83334,3.83333c-2.11709,0 -3.83334,-1.71624 -3.83334,-3.83333z" fill="#d16500" stroke="none" stroke-width="0" stroke-linecap="butt"/></g></g></svg>