<svg version="1.1" xmlns="http://www.w3.org/2000/svg" xmlns:xlink="http://www.w3.org/1999/xlink" width="630.63063" height="513.51352" viewBox="0,0,630.63063,513.51352"><g transform="translate(90.74727,92.14969)"><g data-paper-data="{&quot;isPaintingLayer&quot;:true}" fill-rule="nonzero" stroke="none" stroke-width="0" stroke-linecap="butt" stroke-linejoin="miter" stroke-miterlimit="10" stroke-dasharray="" stroke-dashoffset="0" style="mix-blend-mode: normal"><path d="M381.62875,294.58282c8.79166,0 15.91872,7.12706 15.91872,15.91872c0,8.79166 -7.12706,15.91872 -15.91872,15.91872c-8.79166,0 -15.91872,-7.12706 -15.91872,-15.91872c0,-8.79166 7.12706,-15.91872 15.91872,-15.91872z" data-paper-data="{&quot;index&quot;:null}" fill="#ffffff"/><g><g fill="#40a946"><path d="M86.30105,303.74865c0,-4.69554 0,-12.76279 0,-15.41213c0,-1.6615 1.86219,-3.5763 3.49114,-3.5763c2.82351,0 11.42798,0 15.92302,0c1.553,0 3.06539,2.28959 3.06539,4.17234c0,2.68653 0,10.20823 0,14.73093c0,2.11656 -1.38124,3.5763 -3.40599,3.5763c-4.52734,0 -12.27199,0 -14.98638,0c-1.85183,0 -4.08719,-1.41645 -4.08719,-3.49114z"/><path d="M94.94406,309.43875c-3.32025,-3.32025 -9.02467,-9.02465 -10.89803,-10.89801c-1.17487,-1.17487 -1.21205,-3.84559 -0.0602,-4.99743c1.99652,-1.99653 8.08079,-8.08081 11.25928,-11.25929c1.09813,-1.09813 3.78655,-0.54857 5.11785,0.78274c1.89966,1.89967 7.21831,7.2183 10.41635,10.41634c1.49663,1.49663 1.55213,3.50551 0.12042,4.93723c-3.20131,3.20132 -8.67761,8.67761 -10.59697,10.59697c-1.30945,1.30944 -3.89165,1.88851 -5.35869,0.42147z"/></g><g fill="#43b149"><path d="M88.31539,298.92281c0.97181,-3.18351 2.64144,-8.653 3.18976,-10.44921c0.34387,-1.12648 2.0027,-2.03928 3.10711,-1.70214c1.91431,0.58436 7.74801,2.36518 10.79559,3.2955c1.05291,0.32141 1.60443,2.18674 1.21478,3.46322c-0.55602,1.82143 -2.11274,6.92103 -3.04878,9.98737c-0.43805,1.435 -1.67663,2.13882 -3.04938,1.71976c-3.06948,-0.937 -8.32024,-2.53987 -10.16056,-3.10165c-1.25552,-0.38326 -2.47791,-1.80623 -2.04852,-3.21284z"/><path d="M92.99759,304.56942c-1.56391,-2.93826 -4.25081,-7.98638 -5.13321,-9.6442c-0.55339,-1.03969 -0.02587,-2.85811 0.99346,-3.40066c1.76683,-0.94041 7.15111,-3.80622 9.96391,-5.30336c0.97179,-0.51725 2.68076,0.41174 3.30784,1.58988c0.89479,1.68111 3.39998,6.38784 4.90632,9.21794c0.70495,1.32444 0.32681,2.69793 -0.94019,3.3723c-2.83301,1.50788 -7.67925,4.08735 -9.37779,4.99141c-1.15879,0.61678 -3.02935,0.47494 -3.72035,-0.82331z"/></g><g fill="#48bd4e"><path d="M92.5213,299.46044c0,-2.09695 0,-5.69968 0,-6.88283c0,-0.74201 0.83163,-1.59712 1.5591,-1.59712c1.26094,0 5.10358,0 7.111,0c0.69355,0 1.36896,1.0225 1.36896,1.8633c0,1.19977 0,4.55885 0,6.57863c0,0.94522 -0.61684,1.59712 -1.52107,1.59712c-2.02185,0 -5.48049,0 -6.6927,0c-0.82701,0 -1.82529,-0.63257 -1.82529,-1.5591z"/><path d="M96.38115,302.00156c-1.48277,-1.48277 -4.03028,-4.03028 -4.8669,-4.8669c-0.52468,-0.52468 -0.54129,-1.71739 -0.02689,-2.23178c0.89162,-0.89162 3.60877,-3.60877 5.02823,-5.02823c0.49042,-0.49041 1.69102,-0.24498 2.28556,0.34956c0.84836,0.84836 3.2236,3.22359 4.65179,4.65179c0.66837,0.66838 0.69316,1.56551 0.05378,2.20489c-1.42966,1.42966 -3.8753,3.87529 -4.73245,4.73246c-0.58478,0.58478 -1.73796,0.84337 -2.39311,0.18822z"/></g><g fill="#ffffff"><path d="M94.66446,297.98296c0,-1.20164 0,-3.26612 0,-3.94412c0,-0.42519 0.47655,-0.91521 0.89342,-0.91521c0.72257,0 2.92454,0 4.07486,0c0.39742,0 0.78447,0.58593 0.78447,1.06775c0,0.68751 0,2.61239 0,3.7698c0,0.54165 -0.35348,0.91521 -0.87163,0.91521c-1.15859,0 -3.14052,0 -3.83516,0c-0.4739,0 -1.04595,-0.36249 -1.04595,-0.89342z"/><path d="M96.87629,299.43912c-0.84968,-0.84968 -2.3095,-2.3095 -2.78891,-2.78891c-0.30067,-0.30066 -0.31018,-0.98412 -0.01541,-1.27889c0.51093,-0.51093 2.06795,-2.06796 2.88136,-2.88137c0.28102,-0.28102 0.96901,-0.14038 1.30971,0.20031c0.48614,0.48615 1.84723,1.84724 2.66564,2.66564c0.383,0.383 0.39721,0.89709 0.03082,1.26349c-0.81925,0.81925 -2.22069,2.22068 -2.71187,2.71187c-0.3351,0.3351 -0.99591,0.48328 -1.37134,0.10785z"/></g></g><g><g fill="#40a946"><path d="M118.80105,307.74865c0,-4.69554 0,-12.76279 0,-15.41213c0,-1.6615 1.86219,-3.5763 3.49114,-3.5763c2.82351,0 11.42798,0 15.92302,0c1.553,0 3.06539,2.28959 3.06539,4.17234c0,2.68653 0,10.20823 0,14.73093c0,2.11656 -1.38124,3.5763 -3.40599,3.5763c-4.52734,0 -12.27199,0 -14.98638,0c-1.85183,0 -4.08719,-1.41645 -4.08719,-3.49114z"/><path d="M127.44406,313.43875c-3.32025,-3.32025 -9.02467,-9.02465 -10.89803,-10.89801c-1.17487,-1.17487 -1.21205,-3.84559 -0.0602,-4.99743c1.99652,-1.99653 8.08079,-8.08081 11.25928,-11.25929c1.09813,-1.09813 3.78655,-0.54857 5.11785,0.78274c1.89966,1.89967 7.21831,7.2183 10.41635,10.41634c1.49663,1.49663 1.55213,3.50551 0.12042,4.93723c-3.20131,3.20132 -8.67761,8.67761 -10.59697,10.59697c-1.30945,1.30944 -3.89165,1.88851 -5.35869,0.42147z"/></g><g fill="#43b149"><path d="M120.81539,302.92281c0.97181,-3.18351 2.64144,-8.653 3.18976,-10.44921c0.34387,-1.12648 2.0027,-2.03928 3.10711,-1.70214c1.91431,0.58436 7.74801,2.36518 10.79559,3.2955c1.05291,0.32141 1.60443,2.18674 1.21478,3.46322c-0.55602,1.82143 -2.11274,6.92103 -3.04878,9.98737c-0.43805,1.435 -1.67663,2.13882 -3.04938,1.71976c-3.06948,-0.937 -8.32024,-2.53987 -10.16056,-3.10165c-1.25552,-0.38326 -2.47791,-1.80623 -2.04852,-3.21284z"/><path d="M125.49759,308.56942c-1.56391,-2.93826 -4.25081,-7.98638 -5.13321,-9.6442c-0.55339,-1.03969 -0.02587,-2.85811 0.99346,-3.40066c1.76683,-0.94041 7.15111,-3.80622 9.96391,-5.30336c0.97179,-0.51725 2.68076,0.41174 3.30784,1.58988c0.89479,1.68111 3.39998,6.38784 4.90632,9.21794c0.70495,1.32444 0.32681,2.69793 -0.94019,3.3723c-2.83301,1.50788 -7.67925,4.08735 -9.37779,4.99141c-1.15879,0.61678 -3.02935,0.47494 -3.72035,-0.82331z"/></g><g fill="#48bd4e"><path d="M125.0213,303.46044c0,-2.09695 0,-5.69968 0,-6.88283c0,-0.74201 0.83163,-1.59712 1.5591,-1.59712c1.26094,0 5.10358,0 7.111,0c0.69355,0 1.36896,1.0225 1.36896,1.8633c0,1.19977 0,4.55885 0,6.57863c0,0.94522 -0.61684,1.59712 -1.52107,1.59712c-2.02185,0 -5.48049,0 -6.6927,0c-0.82701,0 -1.82529,-0.63257 -1.82529,-1.5591z"/><path d="M128.88115,306.00156c-1.48277,-1.48277 -4.03028,-4.03028 -4.8669,-4.8669c-0.52468,-0.52468 -0.54129,-1.71739 -0.02689,-2.23178c0.89162,-0.89162 3.60877,-3.60877 5.02823,-5.02823c0.49042,-0.49041 1.69102,-0.24498 2.28556,0.34956c0.84836,0.84836 3.2236,3.22359 4.65179,4.65179c0.66837,0.66838 0.69316,1.56551 0.05378,2.20489c-1.42966,1.42966 -3.8753,3.87529 -4.73245,4.73246c-0.58478,0.58478 -1.73796,0.84337 -2.39311,0.18822z"/></g><g fill="#ffffff"><path d="M127.16446,301.98296c0,-1.20164 0,-3.26612 0,-3.94412c0,-0.42519 0.47655,-0.91521 0.89342,-0.91521c0.72257,0 2.92454,0 4.07486,0c0.39742,0 0.78447,0.58593 0.78447,1.06775c0,0.68751 0,2.61239 0,3.7698c0,0.54165 -0.35348,0.91521 -0.87163,0.91521c-1.15859,0 -3.14052,0 -3.83516,0c-0.4739,0 -1.04595,-0.36249 -1.04595,-0.89342z"/><path d="M129.37629,303.43912c-0.84968,-0.84968 -2.3095,-2.3095 -2.78891,-2.78891c-0.30067,-0.30066 -0.31018,-0.98412 -0.01541,-1.27889c0.51093,-0.51093 2.06795,-2.06796 2.88136,-2.88137c0.28102,-0.28102 0.96901,-0.14038 1.30971,0.20031c0.48614,0.48615 1.84723,1.84724 2.66564,2.66564c0.383,0.383 0.39721,0.89709 0.03082,1.26349c-0.81925,0.81925 -2.22069,2.22068 -2.71187,2.71187c-0.3351,0.3351 -0.99591,0.48328 -1.37134,0.10785z"/></g></g><g><g fill="#40a946"><path d="M148.30104,301.74865c0,-4.69554 0,-12.76279 0,-15.41213c0,-1.6615 1.86219,-3.5763 3.49114,-3.5763c2.82351,0 11.42798,0 15.92302,0c1.553,0 3.06539,2.28959 3.06539,4.17234c0,2.68653 0,10.20823 0,14.73093c0,2.11656 -1.38124,3.5763 -3.40599,3.5763c-4.52734,0 -12.27199,0 -14.98638,0c-1.85183,0 -4.08719,-1.41645 -4.08719,-3.49114z"/><path d="M156.94406,307.43875c-3.32025,-3.32025 -9.02467,-9.02465 -10.89803,-10.89801c-1.17487,-1.17487 -1.21205,-3.84559 -0.0602,-4.99743c1.99652,-1.99653 8.08079,-8.08081 11.25928,-11.25929c1.09813,-1.09813 3.78655,-0.54857 5.11785,0.78274c1.89966,1.89967 7.21831,7.2183 10.41635,10.41634c1.49663,1.49663 1.55213,3.50551 0.12042,4.93723c-3.20131,3.20132 -8.67761,8.67761 -10.59697,10.59697c-1.30945,1.30944 -3.89165,1.88851 -5.35869,0.42147z"/></g><g fill="#43b149"><path d="M150.31539,296.92281c0.97181,-3.18351 2.64144,-8.653 3.18976,-10.44921c0.34387,-1.12648 2.0027,-2.03928 3.10711,-1.70214c1.91431,0.58436 7.74801,2.36518 10.79559,3.2955c1.05291,0.32141 1.60443,2.18674 1.21478,3.46322c-0.55602,1.82143 -2.11274,6.92103 -3.04878,9.98737c-0.43805,1.435 -1.67663,2.13882 -3.04938,1.71976c-3.06948,-0.937 -8.32024,-2.53987 -10.16056,-3.10165c-1.25552,-0.38326 -2.47791,-1.80623 -2.04852,-3.21284z"/><path d="M154.99759,302.56942c-1.56391,-2.93826 -4.25081,-7.98638 -5.13321,-9.6442c-0.55339,-1.03969 -0.02587,-2.85811 0.99346,-3.40066c1.76683,-0.94041 7.15111,-3.80622 9.96391,-5.30336c0.97179,-0.51725 2.68076,0.41174 3.30784,1.58988c0.89479,1.68111 3.39998,6.38784 4.90632,9.21794c0.70495,1.32444 0.32681,2.69793 -0.94019,3.3723c-2.83301,1.50788 -7.67925,4.08735 -9.37779,4.99141c-1.15879,0.61678 -3.02935,0.47494 -3.72035,-0.82331z"/></g><g fill="#48bd4e"><path d="M154.5213,297.46044c0,-2.09695 0,-5.69968 0,-6.88283c0,-0.74201 0.83163,-1.59712 1.5591,-1.59712c1.26094,0 5.10358,0 7.111,0c0.69355,0 1.36896,1.0225 1.36896,1.8633c0,1.19977 0,4.55885 0,6.57863c0,0.94522 -0.61684,1.59712 -1.52107,1.59712c-2.02185,0 -5.48049,0 -6.6927,0c-0.82701,0 -1.82529,-0.63257 -1.82529,-1.5591z"/><path d="M158.38115,300.00156c-1.48277,-1.48277 -4.03028,-4.03028 -4.8669,-4.8669c-0.52468,-0.52468 -0.54129,-1.71739 -0.02689,-2.23178c0.89162,-0.89162 3.60877,-3.60877 5.02823,-5.02823c0.49042,-0.49041 1.69102,-0.24498 2.28556,0.34956c0.84836,0.84836 3.2236,3.22359 4.65179,4.65179c0.66837,0.66838 0.69316,1.56551 0.05378,2.20489c-1.42966,1.42966 -3.8753,3.87529 -4.73245,4.73246c-0.58478,0.58478 -1.73796,0.84337 -2.39311,0.18822z"/></g><g fill="#ffffff"><path d="M156.66446,295.98296c0,-1.20164 0,-3.26612 0,-3.94412c0,-0.42519 0.47655,-0.91521 0.89342,-0.91521c0.72257,0 2.92454,0 4.07486,0c0.39742,0 0.78447,0.58593 0.78447,1.06775c0,0.68751 0,2.61239 0,3.7698c0,0.54165 -0.35348,0.91521 -0.87163,0.91521c-1.15859,0 -3.14052,0 -3.83516,0c-0.4739,0 -1.04595,-0.36249 -1.04595,-0.89342z"/><path d="M158.87629,297.43912c-0.84968,-0.84968 -2.3095,-2.3095 -2.78891,-2.78891c-0.30067,-0.30066 -0.31018,-0.98412 -0.01541,-1.27889c0.51093,-0.51093 2.06795,-2.06796 2.88136,-2.88137c0.28102,-0.28102 0.96901,-0.14038 1.30971,0.20031c0.48614,0.48615 1.84723,1.84724 2.66564,2.66564c0.383,0.383 0.39721,0.89709 0.03082,1.26349c-0.81925,0.81925 -2.22069,2.22068 -2.71187,2.71187c-0.3351,0.3351 -0.99591,0.48328 -1.37134,0.10785z"/></g></g><g><g fill="#40a946"><path d="M179.80105,307.24865c0,-4.69554 0,-12.76279 0,-15.41213c0,-1.6615 1.86219,-3.5763 3.49114,-3.5763c2.82351,0 11.42798,0 15.92302,0c1.553,0 3.06539,2.28959 3.06539,4.17234c0,2.68653 0,10.20823 0,14.73093c0,2.11656 -1.38124,3.5763 -3.40599,3.5763c-4.52734,0 -12.27199,0 -14.98638,0c-1.85183,0 -4.08719,-1.41645 -4.08719,-3.49114z"/><path d="M188.44406,312.93875c-3.32025,-3.32025 -9.02467,-9.02465 -10.89803,-10.89801c-1.17487,-1.17487 -1.21205,-3.84559 -0.0602,-4.99743c1.99652,-1.99653 8.08079,-8.08081 11.25928,-11.25929c1.09813,-1.09813 3.78655,-0.54857 5.11785,0.78274c1.89966,1.89967 7.21831,7.2183 10.41635,10.41634c1.49663,1.49663 1.55213,3.50551 0.12042,4.93723c-3.20131,3.20132 -8.67761,8.67761 -10.59697,10.59697c-1.30945,1.30944 -3.89165,1.88851 -5.35869,0.42147z"/></g><g fill="#43b149"><path d="M181.81539,302.42281c0.97181,-3.18351 2.64144,-8.653 3.18976,-10.44921c0.34387,-1.12648 2.0027,-2.03928 3.10711,-1.70214c1.91431,0.58436 7.74801,2.36518 10.79559,3.2955c1.05291,0.32141 1.60443,2.18674 1.21478,3.46322c-0.55602,1.82143 -2.11274,6.92103 -3.04878,9.98737c-0.43805,1.435 -1.67663,2.13882 -3.04938,1.71976c-3.06948,-0.937 -8.32024,-2.53987 -10.16056,-3.10165c-1.25552,-0.38326 -2.47791,-1.80623 -2.04852,-3.21284z"/><path d="M186.49759,308.06942c-1.56391,-2.93826 -4.25081,-7.98638 -5.13321,-9.6442c-0.55339,-1.03969 -0.02587,-2.85811 0.99346,-3.40066c1.76683,-0.94041 7.15111,-3.80622 9.96391,-5.30336c0.97179,-0.51725 2.68076,0.41174 3.30784,1.58988c0.89479,1.68111 3.39998,6.38784 4.90632,9.21794c0.70495,1.32444 0.32681,2.69793 -0.94019,3.3723c-2.83301,1.50788 -7.67925,4.08735 -9.37779,4.99141c-1.15879,0.61678 -3.02935,0.47494 -3.72035,-0.82331z"/></g><g fill="#48bd4e"><path d="M186.0213,302.96044c0,-2.09695 0,-5.69968 0,-6.88283c0,-0.74201 0.83163,-1.59712 1.5591,-1.59712c1.26094,0 5.10358,0 7.111,0c0.69355,0 1.36896,1.0225 1.36896,1.8633c0,1.19977 0,4.55885 0,6.57863c0,0.94522 -0.61684,1.59712 -1.52107,1.59712c-2.02185,0 -5.48049,0 -6.6927,0c-0.82701,0 -1.82529,-0.63257 -1.82529,-1.5591z"/><path d="M189.88115,305.50156c-1.48277,-1.48277 -4.03028,-4.03028 -4.8669,-4.8669c-0.52468,-0.52468 -0.54129,-1.71739 -0.02689,-2.23178c0.89162,-0.89162 3.60877,-3.60877 5.02823,-5.02823c0.49042,-0.49041 1.69102,-0.24498 2.28556,0.34956c0.84836,0.84836 3.2236,3.22359 4.65179,4.65179c0.66837,0.66838 0.69316,1.56551 0.05378,2.20489c-1.42966,1.42966 -3.8753,3.87529 -4.73245,4.73246c-0.58478,0.58478 -1.73796,0.84337 -2.39311,0.18822z"/></g><g fill="#ffffff"><path d="M188.16446,301.48296c0,-1.20164 0,-3.26612 0,-3.94412c0,-0.42519 0.47655,-0.91521 0.89342,-0.91521c0.72257,0 2.92454,0 4.07486,0c0.39742,0 0.78447,0.58593 0.78447,1.06775c0,0.68751 0,2.61239 0,3.7698c0,0.54165 -0.35348,0.91521 -0.87163,0.91521c-1.15859,0 -3.14052,0 -3.83516,0c-0.4739,0 -1.04595,-0.36249 -1.04595,-0.89342z"/><path d="M190.37629,302.93912c-0.84968,-0.84968 -2.3095,-2.3095 -2.78891,-2.78891c-0.30067,-0.30066 -0.31018,-0.98412 -0.01541,-1.27889c0.51093,-0.51093 2.06795,-2.06796 2.88136,-2.88137c0.28102,-0.28102 0.96901,-0.14038 1.30971,0.20031c0.48614,0.48615 1.84723,1.84724 2.66564,2.66564c0.383,0.383 0.39721,0.89709 0.03082,1.26349c-0.81925,0.81925 -2.22069,2.22068 -2.71187,2.71187c-0.3351,0.3351 -0.99591,0.48328 -1.37134,0.10785z"/></g></g><g><g fill="#40a946"><path d="M211.30105,301.74865c0,-4.69554 0,-12.76279 0,-15.41213c0,-1.6615 1.86219,-3.5763 3.49114,-3.5763c2.82351,0 11.42798,0 15.92302,0c1.553,0 3.06539,2.28959 3.06539,4.17234c0,2.68653 0,10.20823 0,14.73093c0,2.11656 -1.38124,3.5763 -3.40599,3.5763c-4.52734,0 -12.27199,0 -14.98638,0c-1.85183,0 -4.08719,-1.41645 -4.08719,-3.49114z"/><path d="M219.94406,307.43875c-3.32025,-3.32025 -9.02467,-9.02465 -10.89803,-10.89801c-1.17487,-1.17487 -1.21205,-3.84559 -0.0602,-4.99743c1.99652,-1.99653 8.08079,-8.08081 11.25928,-11.25929c1.09813,-1.09813 3.78655,-0.54857 5.11785,0.78274c1.89966,1.89967 7.21831,7.2183 10.41635,10.41634c1.49663,1.49663 1.55213,3.50551 0.12042,4.93723c-3.20131,3.20132 -8.67761,8.67761 -10.59697,10.59697c-1.30945,1.30944 -3.89165,1.88851 -5.35869,0.42147z"/></g><g fill="#43b149"><path d="M213.31539,296.92281c0.97181,-3.18351 2.64144,-8.653 3.18976,-10.44921c0.34387,-1.12648 2.0027,-2.03928 3.10711,-1.70214c1.91431,0.58436 7.74801,2.36518 10.79559,3.2955c1.05291,0.32141 1.60443,2.18674 1.21478,3.46322c-0.55602,1.82143 -2.11274,6.92103 -3.04878,9.98737c-0.43805,1.435 -1.67663,2.13882 -3.04938,1.71976c-3.06948,-0.937 -8.32024,-2.53987 -10.16056,-3.10165c-1.25552,-0.38326 -2.47791,-1.80623 -2.04852,-3.21284z"/><path d="M217.99759,302.56942c-1.56391,-2.93826 -4.25081,-7.98638 -5.13321,-9.6442c-0.55339,-1.03969 -0.02587,-2.85811 0.99346,-3.40066c1.76683,-0.94041 7.15111,-3.80622 9.96391,-5.30336c0.97179,-0.51725 2.68076,0.41174 3.30784,1.58988c0.89479,1.68111 3.39998,6.38784 4.90632,9.21794c0.70495,1.32444 0.32681,2.69793 -0.94019,3.3723c-2.83301,1.50788 -7.67925,4.08735 -9.37779,4.99141c-1.15879,0.61678 -3.02935,0.47494 -3.72035,-0.82331z"/></g><g fill="#48bd4e"><path d="M217.5213,297.46044c0,-2.09695 0,-5.69968 0,-6.88283c0,-0.74201 0.83163,-1.59712 1.5591,-1.59712c1.26094,0 5.10358,0 7.111,0c0.69355,0 1.36896,1.0225 1.36896,1.8633c0,1.19977 0,4.55885 0,6.57863c0,0.94522 -0.61684,1.59712 -1.52107,1.59712c-2.02185,0 -5.48049,0 -6.6927,0c-0.82701,0 -1.82529,-0.63257 -1.82529,-1.5591z"/><path d="M221.38115,300.00156c-1.48277,-1.48277 -4.03028,-4.03028 -4.8669,-4.8669c-0.52468,-0.52468 -0.54129,-1.71739 -0.02689,-2.23178c0.89162,-0.89162 3.60877,-3.60877 5.02823,-5.02823c0.49042,-0.49041 1.69102,-0.24498 2.28556,0.34956c0.84836,0.84836 3.2236,3.22359 4.65179,4.65179c0.66837,0.66838 0.69316,1.56551 0.05378,2.20489c-1.42966,1.42966 -3.8753,3.87529 -4.73245,4.73246c-0.58478,0.58478 -1.73796,0.84337 -2.39311,0.18822z"/></g><g fill="#ffffff"><path d="M219.66446,295.98296c0,-1.20164 0,-3.26612 0,-3.94412c0,-0.42519 0.47655,-0.91521 0.89342,-0.91521c0.72257,0 2.92454,0 4.07486,0c0.39742,0 0.78447,0.58593 0.78447,1.06775c0,0.68751 0,2.61239 0,3.7698c0,0.54165 -0.35348,0.91521 -0.87163,0.91521c-1.15859,0 -3.14052,0 -3.83516,0c-0.4739,0 -1.04595,-0.36249 -1.04595,-0.89342z"/><path d="M221.87629,297.43912c-0.84968,-0.84968 -2.3095,-2.3095 -2.78891,-2.78891c-0.30067,-0.30066 -0.31018,-0.98412 -0.01541,-1.27889c0.51093,-0.51093 2.06795,-2.06796 2.88136,-2.88137c0.28102,-0.28102 0.96901,-0.14038 1.30971,0.20031c0.48614,0.48615 1.84723,1.84724 2.66564,2.66564c0.383,0.383 0.39721,0.89709 0.03082,1.26349c-0.81925,0.81925 -2.22069,2.22068 -2.71187,2.71187c-0.3351,0.3351 -0.99591,0.48328 -1.37134,0.10785z"/></g></g><g><g fill="#40a946"><path d="M259.80105,247.74865c0,-4.69554 0,-12.76279 0,-15.41213c0,-1.6615 1.86219,-3.5763 3.49114,-3.5763c2.82351,0 11.42798,0 15.92302,0c1.553,0 3.06539,2.28959 3.06539,4.17234c0,2.68653 0,10.20823 0,14.73093c0,2.11656 -1.38124,3.5763 -3.40599,3.5763c-4.52734,0 -12.27199,0 -14.98638,0c-1.85183,0 -4.08719,-1.41645 -4.08719,-3.49114z"/><path d="M268.44406,253.43875c-3.32025,-3.32025 -9.02467,-9.02465 -10.89803,-10.89801c-1.17487,-1.17487 -1.21205,-3.84559 -0.0602,-4.99743c1.99652,-1.99653 8.08079,-8.08081 11.25928,-11.25929c1.09813,-1.09813 3.78655,-0.54857 5.11785,0.78274c1.89966,1.89967 7.21831,7.2183 10.41635,10.41634c1.49663,1.49663 1.55213,3.50551 0.12042,4.93723c-3.20131,3.20132 -8.67761,8.67761 -10.59697,10.59697c-1.30945,1.30944 -3.89165,1.88851 -5.35869,0.42147z"/></g><g fill="#43b149"><path d="M261.81539,242.92281c0.97181,-3.18351 2.64144,-8.653 3.18976,-10.44921c0.34387,-1.12648 2.0027,-2.03928 3.10711,-1.70214c1.91431,0.58436 7.74801,2.36518 10.79559,3.2955c1.05291,0.32141 1.60443,2.18674 1.21478,3.46322c-0.55602,1.82143 -2.11274,6.92103 -3.04878,9.98737c-0.43805,1.435 -1.67663,2.13882 -3.04938,1.71976c-3.06948,-0.937 -8.32024,-2.53987 -10.16056,-3.10165c-1.25552,-0.38326 -2.47791,-1.80623 -2.04852,-3.21284z"/><path d="M266.49758,248.56942c-1.56391,-2.93826 -4.25081,-7.98638 -5.13321,-9.6442c-0.55339,-1.03969 -0.02587,-2.85811 0.99346,-3.40066c1.76683,-0.94041 7.15111,-3.80622 9.96391,-5.30336c0.97179,-0.51725 2.68076,0.41174 3.30784,1.58988c0.89479,1.68111 3.39998,6.38784 4.90632,9.21794c0.70495,1.32444 0.32681,2.69793 -0.94019,3.3723c-2.83301,1.50788 -7.67925,4.08735 -9.37779,4.99141c-1.15879,0.61678 -3.02935,0.47494 -3.72035,-0.82331z"/></g><g fill="#48bd4e"><path d="M266.0213,243.46044c0,-2.09695 0,-5.69968 0,-6.88283c0,-0.74201 0.83163,-1.59712 1.5591,-1.59712c1.26094,0 5.10358,0 7.111,0c0.69355,0 1.36896,1.0225 1.36896,1.8633c0,1.19977 0,4.55885 0,6.57863c0,0.94522 -0.61684,1.59712 -1.52107,1.59712c-2.02185,0 -5.48049,0 -6.6927,0c-0.82701,0 -1.82529,-0.63257 -1.82529,-1.5591z"/><path d="M269.88115,246.00156c-1.48277,-1.48277 -4.03028,-4.03028 -4.8669,-4.8669c-0.52468,-0.52468 -0.54129,-1.71739 -0.02689,-2.23178c0.89162,-0.89162 3.60877,-3.60877 5.02823,-5.02823c0.49042,-0.49041 1.69102,-0.24498 2.28556,0.34956c0.84836,0.84836 3.2236,3.22359 4.65179,4.65179c0.66837,0.66838 0.69316,1.56551 0.05378,2.20489c-1.42966,1.42966 -3.8753,3.87529 -4.73245,4.73246c-0.58478,0.58478 -1.73796,0.84337 -2.39311,0.18822z"/></g><g fill="#ffffff"><path d="M268.16445,241.98296c0,-1.20164 0,-3.26612 0,-3.94412c0,-0.42519 0.47655,-0.91521 0.89342,-0.91521c0.72257,0 2.92454,0 4.07486,0c0.39742,0 0.78447,0.58593 0.78447,1.06775c0,0.68751 0,2.61239 0,3.7698c0,0.54165 -0.35348,0.91521 -0.87163,0.91521c-1.15859,0 -3.14052,0 -3.83516,0c-0.4739,0 -1.04595,-0.36249 -1.04595,-0.89342z"/><path d="M270.37629,243.43912c-0.84968,-0.84968 -2.3095,-2.3095 -2.78891,-2.78891c-0.30067,-0.30066 -0.31018,-0.98412 -0.01541,-1.27889c0.51093,-0.51093 2.06795,-2.06796 2.88136,-2.88137c0.28102,-0.28102 0.96901,-0.14038 1.30971,0.20031c0.48614,0.48615 1.84723,1.84724 2.66564,2.66564c0.383,0.383 0.39721,0.89709 0.03082,1.26349c-0.81925,0.81925 -2.22069,2.22068 -2.71187,2.71187c-0.3351,0.3351 -0.99591,0.48328 -1.37134,0.10785z"/></g></g><g><g fill="#40a946"><path d="M227.80105,238.24865c0,-4.69554 0,-12.76279 0,-15.41213c0,-1.6615 1.86219,-3.5763 3.49114,-3.5763c2.82351,0 11.42798,0 15.92302,0c1.553,0 3.06539,2.28959 3.06539,4.17234c0,2.68653 0,10.20823 0,14.73093c0,2.11656 -1.38124,3.5763 -3.40599,3.5763c-4.52734,0 -12.27199,0 -14.98638,0c-1.85183,0 -4.08719,-1.41645 -4.08719,-3.49114z"/><path d="M236.44406,243.93875c-3.32025,-3.32025 -9.02467,-9.02465 -10.89803,-10.89801c-1.17487,-1.17487 -1.21205,-3.84559 -0.0602,-4.99743c1.99652,-1.99653 8.08079,-8.08081 11.25928,-11.25929c1.09813,-1.09813 3.78655,-0.54857 5.11785,0.78274c1.89966,1.89967 7.21831,7.2183 10.41635,10.41634c1.49663,1.49663 1.55213,3.50551 0.12042,4.93723c-3.20131,3.20132 -8.67761,8.67761 -10.59697,10.59697c-1.30945,1.30944 -3.89165,1.88851 -5.35869,0.42147z"/></g><g fill="#43b149"><path d="M229.81539,233.42281c0.97181,-3.18351 2.64144,-8.653 3.18976,-10.44921c0.34387,-1.12648 2.0027,-2.03928 3.10711,-1.70214c1.91431,0.58436 7.74801,2.36518 10.79559,3.2955c1.05291,0.32141 1.60443,2.18674 1.21478,3.46322c-0.55602,1.82143 -2.11274,6.92103 -3.04878,9.98737c-0.43805,1.435 -1.67663,2.13882 -3.04938,1.71976c-3.06948,-0.937 -8.32024,-2.53987 -10.16056,-3.10165c-1.25552,-0.38326 -2.47791,-1.80623 -2.04852,-3.21284z"/><path d="M234.49759,239.06942c-1.56391,-2.93826 -4.25081,-7.98638 -5.13321,-9.6442c-0.55339,-1.03969 -0.02587,-2.85811 0.99346,-3.40066c1.76683,-0.94041 7.15111,-3.80622 9.96391,-5.30336c0.97179,-0.51725 2.68076,0.41174 3.30784,1.58988c0.89479,1.68111 3.39998,6.38784 4.90632,9.21794c0.70495,1.32444 0.32681,2.69793 -0.94019,3.3723c-2.83301,1.50788 -7.67925,4.08735 -9.37779,4.99141c-1.15879,0.61678 -3.02935,0.47494 -3.72035,-0.82331z"/></g><g fill="#48bd4e"><path d="M234.0213,233.96044c0,-2.09695 0,-5.69968 0,-6.88283c0,-0.74201 0.83163,-1.59712 1.5591,-1.59712c1.26094,0 5.10358,0 7.111,0c0.69355,0 1.36896,1.0225 1.36896,1.8633c0,1.19977 0,4.55885 0,6.57863c0,0.94522 -0.61684,1.59712 -1.52107,1.59712c-2.02185,0 -5.48049,0 -6.6927,0c-0.82701,0 -1.82529,-0.63257 -1.82529,-1.5591z"/><path d="M237.88115,236.50156c-1.48277,-1.48277 -4.03028,-4.03028 -4.8669,-4.8669c-0.52468,-0.52468 -0.54129,-1.71739 -0.02689,-2.23178c0.89162,-0.89162 3.60877,-3.60877 5.02823,-5.02823c0.49042,-0.49041 1.69102,-0.24498 2.28556,0.34956c0.84836,0.84836 3.2236,3.22359 4.65179,4.65179c0.66837,0.66838 0.69316,1.56551 0.05378,2.20489c-1.42966,1.42966 -3.8753,3.87529 -4.73245,4.73246c-0.58478,0.58478 -1.73796,0.84337 -2.39311,0.18822z"/></g><g fill="#ffffff"><path d="M236.16446,232.48296c0,-1.20164 0,-3.26612 0,-3.94412c0,-0.42519 0.47655,-0.91521 0.89342,-0.91521c0.72257,0 2.92454,0 4.07486,0c0.39742,0 0.78447,0.58593 0.78447,1.06775c0,0.68751 0,2.61239 0,3.7698c0,0.54165 -0.35348,0.91521 -0.87163,0.91521c-1.15859,0 -3.14052,0 -3.83516,0c-0.4739,0 -1.04595,-0.36249 -1.04595,-0.89342z"/><path d="M238.37629,233.93912c-0.84968,-0.84968 -2.3095,-2.3095 -2.78891,-2.78891c-0.30067,-0.30066 -0.31018,-0.98412 -0.01541,-1.27889c0.51093,-0.51093 2.06795,-2.06796 2.88136,-2.88137c0.28102,-0.28102 0.96901,-0.14038 1.30971,0.20031c0.48614,0.48615 1.84723,1.84724 2.66564,2.66564c0.383,0.383 0.39721,0.89709 0.03082,1.26349c-0.81925,0.81925 -2.22069,2.22068 -2.71187,2.71187c-0.3351,0.3351 -0.99591,0.48328 -1.37134,0.10785z"/></g></g><g><g fill="#40a946"><path d="M193.80105,241.74865c0,-4.69554 0,-12.76279 0,-15.41213c0,-1.6615 1.86219,-3.5763 3.49114,-3.5763c2.82351,0 11.42798,0 15.92302,0c1.553,0 3.06539,2.28959 3.06539,4.17234c0,2.68653 0,10.20823 0,14.73093c0,2.11656 -1.38124,3.5763 -3.40599,3.5763c-4.52734,0 -12.27199,0 -14.98638,0c-1.85183,0 -4.08719,-1.41645 -4.08719,-3.49114z"/><path d="M202.44406,247.43875c-3.32025,-3.32025 -9.02467,-9.02465 -10.89803,-10.89801c-1.17487,-1.17487 -1.21205,-3.84559 -0.0602,-4.99743c1.99652,-1.99653 8.08079,-8.08081 11.25928,-11.25929c1.09813,-1.09813 3.78655,-0.54857 5.11785,0.78274c1.89966,1.89967 7.21831,7.2183 10.41635,10.41634c1.49663,1.49663 1.55213,3.50551 0.12042,4.93723c-3.20131,3.20132 -8.67761,8.67761 -10.59697,10.59697c-1.30945,1.30944 -3.89165,1.88851 -5.35869,0.42147z"/></g><g fill="#43b149"><path d="M195.81539,236.92281c0.97181,-3.18351 2.64144,-8.653 3.18976,-10.44921c0.34387,-1.12648 2.0027,-2.03928 3.10711,-1.70214c1.91431,0.58436 7.74801,2.36518 10.79559,3.2955c1.05291,0.32141 1.60443,2.18674 1.21478,3.46322c-0.55602,1.82143 -2.11274,6.92103 -3.04878,9.98737c-0.43805,1.435 -1.67663,2.13882 -3.04938,1.71976c-3.06948,-0.937 -8.32024,-2.53987 -10.16056,-3.10165c-1.25552,-0.38326 -2.47791,-1.80623 -2.04852,-3.21284z"/><path d="M200.49759,242.56942c-1.56391,-2.93826 -4.25081,-7.98638 -5.13321,-9.6442c-0.55339,-1.03969 -0.02587,-2.85811 0.99346,-3.40066c1.76683,-0.94041 7.15111,-3.80622 9.96391,-5.30336c0.97179,-0.51725 2.68076,0.41174 3.30784,1.58988c0.89479,1.68111 3.39998,6.38784 4.90632,9.21794c0.70495,1.32444 0.32681,2.69793 -0.94019,3.3723c-2.83301,1.50788 -7.67925,4.08735 -9.37779,4.99141c-1.15879,0.61678 -3.02935,0.47494 -3.72035,-0.82331z"/></g><g fill="#48bd4e"><path d="M200.0213,237.46044c0,-2.09695 0,-5.69968 0,-6.88283c0,-0.74201 0.83163,-1.59712 1.5591,-1.59712c1.26094,0 5.10358,0 7.111,0c0.69355,0 1.36896,1.0225 1.36896,1.8633c0,1.19977 0,4.55885 0,6.57863c0,0.94522 -0.61684,1.59712 -1.52107,1.59712c-2.02185,0 -5.48049,0 -6.6927,0c-0.82701,0 -1.82529,-0.63257 -1.82529,-1.5591z"/><path d="M203.88115,240.00156c-1.48277,-1.48277 -4.03028,-4.03028 -4.8669,-4.8669c-0.52468,-0.52468 -0.54129,-1.71739 -0.02689,-2.23178c0.89162,-0.89162 3.60877,-3.60877 5.02823,-5.02823c0.49042,-0.49041 1.69102,-0.24498 2.28556,0.34956c0.84836,0.84836 3.2236,3.22359 4.65179,4.65179c0.66837,0.66838 0.69316,1.56551 0.05378,2.20489c-1.42966,1.42966 -3.8753,3.87529 -4.73245,4.73246c-0.58478,0.58478 -1.73796,0.84337 -2.39311,0.18822z"/></g><g fill="#ffffff"><path d="M202.16446,235.98296c0,-1.20164 0,-3.26612 0,-3.94412c0,-0.42519 0.47655,-0.91521 0.89342,-0.91521c0.72257,0 2.92454,0 4.07486,0c0.39742,0 0.78447,0.58593 0.78447,1.06775c0,0.68751 0,2.61239 0,3.7698c0,0.54165 -0.35348,0.91521 -0.87163,0.91521c-1.15859,0 -3.14052,0 -3.83516,0c-0.4739,0 -1.04595,-0.36249 -1.04595,-0.89342z"/><path d="M204.37629,237.43912c-0.84968,-0.84968 -2.3095,-2.3095 -2.78891,-2.78891c-0.30067,-0.30066 -0.31018,-0.98412 -0.01541,-1.27889c0.51093,-0.51093 2.06795,-2.06796 2.88136,-2.88137c0.28102,-0.28102 0.96901,-0.14038 1.30971,0.20031c0.48614,0.48615 1.84723,1.84724 2.66564,2.66564c0.383,0.383 0.39721,0.89709 0.03082,1.26349c-0.81925,0.81925 -2.22069,2.22068 -2.71187,2.71187c-0.3351,0.3351 -0.99591,0.48328 -1.37134,0.10785z"/></g></g><g><g fill="#40a946"><path d="M162.30104,235.24865c0,-4.69554 0,-12.76279 0,-15.41213c0,-1.6615 1.86219,-3.5763 3.49114,-3.5763c2.82351,0 11.42798,0 15.92302,0c1.553,0 3.06539,2.28959 3.06539,4.17234c0,2.68653 0,10.20823 0,14.73093c0,2.11656 -1.38124,3.5763 -3.40599,3.5763c-4.52734,0 -12.27199,0 -14.98638,0c-1.85183,0 -4.08719,-1.41645 -4.08719,-3.49114z"/><path d="M170.94406,240.93875c-3.32025,-3.32025 -9.02467,-9.02465 -10.89803,-10.89801c-1.17487,-1.17487 -1.21205,-3.84559 -0.0602,-4.99743c1.99652,-1.99653 8.08079,-8.08081 11.25928,-11.25929c1.09813,-1.09813 3.78655,-0.54857 5.11785,0.78274c1.89966,1.89967 7.21831,7.2183 10.41635,10.41634c1.49663,1.49663 1.55213,3.50551 0.12042,4.93723c-3.20131,3.20132 -8.67761,8.67761 -10.59697,10.59697c-1.30945,1.30944 -3.89165,1.88851 -5.35869,0.42147z"/></g><g fill="#43b149"><path d="M164.31539,230.42281c0.97181,-3.18351 2.64144,-8.653 3.18976,-10.44921c0.34387,-1.12648 2.0027,-2.03928 3.10711,-1.70214c1.91431,0.58436 7.74801,2.36518 10.79559,3.2955c1.05291,0.32141 1.60443,2.18674 1.21478,3.46322c-0.55602,1.82143 -2.11274,6.92103 -3.04878,9.98737c-0.43805,1.435 -1.67663,2.13882 -3.04938,1.71976c-3.06948,-0.937 -8.32024,-2.53987 -10.16056,-3.10165c-1.25552,-0.38326 -2.47791,-1.80623 -2.04852,-3.21284z"/><path d="M168.99759,236.06942c-1.56391,-2.93826 -4.25081,-7.98638 -5.13321,-9.6442c-0.55339,-1.03969 -0.02587,-2.85811 0.99346,-3.40066c1.76683,-0.94041 7.15111,-3.80622 9.96391,-5.30336c0.97179,-0.51725 2.68076,0.41174 3.30784,1.58988c0.89479,1.68111 3.39998,6.38784 4.90632,9.21794c0.70495,1.32444 0.32681,2.69793 -0.94019,3.3723c-2.83301,1.50788 -7.67925,4.08735 -9.37779,4.99141c-1.15879,0.61678 -3.02935,0.47494 -3.72035,-0.82331z"/></g><g fill="#48bd4e"><path d="M168.5213,230.96044c0,-2.09695 0,-5.69968 0,-6.88283c0,-0.74201 0.83163,-1.59712 1.5591,-1.59712c1.26094,0 5.10358,0 7.111,0c0.69355,0 1.36896,1.0225 1.36896,1.8633c0,1.19977 0,4.55885 0,6.57863c0,0.94522 -0.61684,1.59712 -1.52107,1.59712c-2.02185,0 -5.48049,0 -6.6927,0c-0.82701,0 -1.82529,-0.63257 -1.82529,-1.5591z"/><path d="M172.38115,233.50156c-1.48277,-1.48277 -4.03028,-4.03028 -4.8669,-4.8669c-0.52468,-0.52468 -0.54129,-1.71739 -0.02689,-2.23178c0.89162,-0.89162 3.60877,-3.60877 5.02823,-5.02823c0.49042,-0.49041 1.69102,-0.24498 2.28556,0.34956c0.84836,0.84836 3.2236,3.22359 4.65179,4.65179c0.66837,0.66838 0.69316,1.56551 0.05378,2.20489c-1.42966,1.42966 -3.8753,3.87529 -4.73245,4.73246c-0.58478,0.58478 -1.73796,0.84337 -2.39311,0.18822z"/></g><g fill="#ffffff"><path d="M170.66446,229.48296c0,-1.20164 0,-3.26612 0,-3.94412c0,-0.42519 0.47655,-0.91521 0.89342,-0.91521c0.72257,0 2.92454,0 4.07486,0c0.39742,0 0.78447,0.58593 0.78447,1.06775c0,0.68751 0,2.61239 0,3.7698c0,0.54165 -0.35348,0.91521 -0.87163,0.91521c-1.15859,0 -3.14052,0 -3.83516,0c-0.4739,0 -1.04595,-0.36249 -1.04595,-0.89342z"/><path d="M172.87629,230.93912c-0.84968,-0.84968 -2.3095,-2.3095 -2.78891,-2.78891c-0.30067,-0.30066 -0.31018,-0.98412 -0.01541,-1.27889c0.51093,-0.51093 2.06795,-2.06796 2.88136,-2.88137c0.28102,-0.28102 0.96901,-0.14038 1.30971,0.20031c0.48614,0.48615 1.84723,1.84724 2.66564,2.66564c0.383,0.383 0.39721,0.89709 0.03082,1.26349c-0.81925,0.81925 -2.22069,2.22068 -2.71187,2.71187c-0.3351,0.3351 -0.99591,0.48328 -1.37134,0.10785z"/></g></g><g><g fill="#40a946"><path d="M129.30104,232.74865c0,-4.69554 0,-12.76279 0,-15.41213c0,-1.6615 1.86219,-3.5763 3.49114,-3.5763c2.82351,0 11.42798,0 15.92302,0c1.553,0 3.06539,2.28959 3.06539,4.17234c0,2.68653 0,10.20823 0,14.73093c0,2.11656 -1.38124,3.5763 -3.40599,3.5763c-4.52734,0 -12.27199,0 -14.98638,0c-1.85183,0 -4.08719,-1.41645 -4.08719,-3.49114z"/><path d="M137.94406,238.43875c-3.32025,-3.32025 -9.02467,-9.02465 -10.89803,-10.89801c-1.17487,-1.17487 -1.21205,-3.84559 -0.0602,-4.99743c1.99652,-1.99653 8.08079,-8.08081 11.25928,-11.25929c1.09813,-1.09813 3.78655,-0.54857 5.11785,0.78274c1.89966,1.89967 7.21831,7.2183 10.41635,10.41634c1.49663,1.49663 1.55213,3.50551 0.12042,4.93723c-3.20131,3.20132 -8.67761,8.67761 -10.59697,10.59697c-1.30945,1.30944 -3.89165,1.88851 -5.35869,0.42147z"/></g><g fill="#43b149"><path d="M131.31539,227.92281c0.97181,-3.18351 2.64144,-8.653 3.18976,-10.44921c0.34387,-1.12648 2.0027,-2.03928 3.10711,-1.70214c1.91431,0.58436 7.74801,2.36518 10.79559,3.2955c1.05291,0.32141 1.60443,2.18674 1.21478,3.46322c-0.55602,1.82143 -2.11274,6.92103 -3.04878,9.98737c-0.43805,1.435 -1.67663,2.13882 -3.04938,1.71976c-3.06948,-0.937 -8.32024,-2.53987 -10.16056,-3.10165c-1.25552,-0.38326 -2.47791,-1.80623 -2.04852,-3.21284z"/><path d="M135.99758,233.56942c-1.56391,-2.93826 -4.25081,-7.98638 -5.13321,-9.6442c-0.55339,-1.03969 -0.02587,-2.85811 0.99346,-3.40066c1.76683,-0.94041 7.15111,-3.80622 9.96391,-5.30336c0.97179,-0.51725 2.68076,0.41174 3.30784,1.58988c0.89479,1.68111 3.39998,6.38784 4.90632,9.21794c0.70495,1.32444 0.32681,2.69793 -0.94019,3.3723c-2.83301,1.50788 -7.67925,4.08735 -9.37779,4.99141c-1.15879,0.61678 -3.02935,0.47494 -3.72035,-0.82331z"/></g><g fill="#48bd4e"><path d="M135.5213,228.46044c0,-2.09695 0,-5.69968 0,-6.88283c0,-0.74201 0.83163,-1.59712 1.5591,-1.59712c1.26094,0 5.10358,0 7.111,0c0.69355,0 1.36896,1.0225 1.36896,1.8633c0,1.19977 0,4.55885 0,6.57863c0,0.94522 -0.61684,1.59712 -1.52107,1.59712c-2.02185,0 -5.48049,0 -6.6927,0c-0.82701,0 -1.82529,-0.63257 -1.82529,-1.5591z"/><path d="M139.38115,231.00156c-1.48277,-1.48277 -4.03028,-4.03028 -4.8669,-4.8669c-0.52468,-0.52468 -0.54129,-1.71739 -0.02689,-2.23178c0.89162,-0.89162 3.60877,-3.60877 5.02823,-5.02823c0.49042,-0.49041 1.69102,-0.24498 2.28556,0.34956c0.84836,0.84836 3.2236,3.22359 4.65179,4.65179c0.66837,0.66838 0.69316,1.56551 0.05378,2.20489c-1.42966,1.42966 -3.8753,3.87529 -4.73245,4.73246c-0.58478,0.58478 -1.73796,0.84337 -2.39311,0.18822z"/></g><g fill="#ffffff"><path d="M137.66446,226.98296c0,-1.20164 0,-3.26612 0,-3.94412c0,-0.42519 0.47655,-0.91521 0.89342,-0.91521c0.72257,0 2.92454,0 4.07486,0c0.39742,0 0.78447,0.58593 0.78447,1.06775c0,0.68751 0,2.61239 0,3.7698c0,0.54165 -0.35348,0.91521 -0.87163,0.91521c-1.15859,0 -3.14052,0 -3.83516,0c-0.4739,0 -1.04595,-0.36249 -1.04595,-0.89342z"/><path d="M139.87629,228.43912c-0.84968,-0.84968 -2.3095,-2.3095 -2.78891,-2.78891c-0.30067,-0.30066 -0.31018,-0.98412 -0.01541,-1.27889c0.51093,-0.51093 2.06795,-2.06796 2.88136,-2.88137c0.28102,-0.28102 0.96901,-0.14038 1.30971,0.20031c0.48614,0.48615 1.84723,1.84724 2.66564,2.66564c0.383,0.383 0.39721,0.89709 0.03082,1.26349c-0.81925,0.81925 -2.22069,2.22068 -2.71187,2.71187c-0.3351,0.3351 -0.99591,0.48328 -1.37134,0.10785z"/></g></g><g><g fill="#40a946"><path d="M64.30106,277.74865c0,-4.69554 0,-12.76279 0,-15.41213c0,-1.6615 1.86219,-3.5763 3.49114,-3.5763c2.82351,0 11.42798,0 15.92302,0c1.553,0 3.06539,2.28959 3.06539,4.17234c0,2.68653 0,10.20823 0,14.73093c0,2.11656 -1.38124,3.5763 -3.40599,3.5763c-4.52734,0 -12.27199,0 -14.98638,0c-1.85183,0 -4.08719,-1.41645 -4.08719,-3.49114z"/><path d="M72.94406,283.43875c-3.32025,-3.32025 -9.02467,-9.02465 -10.89803,-10.89801c-1.17487,-1.17487 -1.21205,-3.84559 -0.0602,-4.99743c1.99652,-1.99653 8.08079,-8.08081 11.25928,-11.25929c1.09813,-1.09813 3.78655,-0.54857 5.11785,0.78274c1.89966,1.89967 7.21831,7.2183 10.41635,10.41634c1.49663,1.49663 1.55213,3.50551 0.12042,4.93723c-3.20131,3.20132 -8.67761,8.67761 -10.59697,10.59697c-1.30945,1.30944 -3.89165,1.88851 -5.35869,0.42147z"/></g><g fill="#43b149"><path d="M66.31539,272.92281c0.97181,-3.18351 2.64144,-8.653 3.18976,-10.44921c0.34387,-1.12648 2.0027,-2.03928 3.10711,-1.70214c1.91431,0.58436 7.74801,2.36518 10.79559,3.2955c1.05291,0.32141 1.60443,2.18674 1.21478,3.46322c-0.55602,1.82143 -2.11274,6.92103 -3.04878,9.98737c-0.43805,1.435 -1.67663,2.13882 -3.04938,1.71976c-3.06948,-0.937 -8.32024,-2.53987 -10.16056,-3.10165c-1.25552,-0.38326 -2.47791,-1.80623 -2.04852,-3.21284z"/><path d="M70.9976,278.56942c-1.56391,-2.93826 -4.25081,-7.98638 -5.13321,-9.6442c-0.55339,-1.03969 -0.02587,-2.85811 0.99346,-3.40066c1.76683,-0.94041 7.15111,-3.80622 9.96391,-5.30336c0.97179,-0.51725 2.68076,0.41174 3.30784,1.58988c0.89479,1.68111 3.39998,6.38784 4.90632,9.21794c0.70495,1.32444 0.32681,2.69793 -0.94019,3.3723c-2.83301,1.50788 -7.67925,4.08735 -9.37779,4.99141c-1.15879,0.61678 -3.02935,0.47494 -3.72035,-0.82331z"/></g><g fill="#48bd4e"><path d="M70.52131,273.46044c0,-2.09695 0,-5.69968 0,-6.88283c0,-0.74201 0.83163,-1.59712 1.5591,-1.59712c1.26094,0 5.10358,0 7.111,0c0.69355,0 1.36896,1.0225 1.36896,1.8633c0,1.19977 0,4.55885 0,6.57863c0,0.94522 -0.61684,1.59712 -1.52107,1.59712c-2.02185,0 -5.48049,0 -6.6927,0c-0.82701,0 -1.82529,-0.63257 -1.82529,-1.5591z"/><path d="M74.38116,276.00156c-1.48277,-1.48277 -4.03028,-4.03028 -4.8669,-4.8669c-0.52468,-0.52468 -0.54129,-1.71739 -0.02689,-2.23178c0.89162,-0.89162 3.60877,-3.60877 5.02823,-5.02823c0.49042,-0.49041 1.69102,-0.24498 2.28556,0.34956c0.84836,0.84836 3.2236,3.22359 4.65179,4.65179c0.66837,0.66838 0.69316,1.56551 0.05378,2.20489c-1.42966,1.42966 -3.8753,3.87529 -4.73245,4.73246c-0.58478,0.58478 -1.73796,0.84337 -2.39311,0.18822z"/></g><g fill="#ffffff"><path d="M72.66447,271.98296c0,-1.20164 0,-3.26612 0,-3.94412c0,-0.42519 0.47655,-0.91521 0.89342,-0.91521c0.72257,0 2.92454,0 4.07486,0c0.39742,0 0.78447,0.58593 0.78447,1.06775c0,0.68751 0,2.61239 0,3.7698c0,0.54165 -0.35348,0.91521 -0.87163,0.91521c-1.15859,0 -3.14052,0 -3.83516,0c-0.4739,0 -1.04595,-0.36249 -1.04595,-0.89342z"/><path d="M74.8763,273.43912c-0.84968,-0.84968 -2.3095,-2.3095 -2.78891,-2.78891c-0.30067,-0.30066 -0.31018,-0.98412 -0.01541,-1.27889c0.51093,-0.51093 2.06795,-2.06796 2.88136,-2.88137c0.28102,-0.28102 0.96901,-0.14038 1.30971,0.20031c0.48614,0.48615 1.84723,1.84724 2.66564,2.66564c0.383,0.383 0.39721,0.89709 0.03082,1.26349c-0.81925,0.81925 -2.22069,2.22068 -2.71187,2.71187c-0.3351,0.3351 -0.99591,0.48328 -1.37134,0.10785z"/></g></g><g><g fill="#40a946"><path d="M55.80106,247.24865c0,-4.69554 0,-12.76279 0,-15.41213c0,-1.6615 1.86219,-3.5763 3.49114,-3.5763c2.82351,0 11.42798,0 15.92302,0c1.553,0 3.06539,2.28959 3.06539,4.17234c0,2.68653 0,10.20823 0,14.73093c0,2.11656 -1.38124,3.5763 -3.40599,3.5763c-4.52734,0 -12.27199,0 -14.98638,0c-1.85183,0 -4.08719,-1.41645 -4.08719,-3.49114z"/><path d="M64.44406,252.93875c-3.32025,-3.32025 -9.02467,-9.02465 -10.89803,-10.89801c-1.17487,-1.17487 -1.21205,-3.84559 -0.0602,-4.99743c1.99652,-1.99653 8.08079,-8.08081 11.25928,-11.25929c1.09813,-1.09813 3.78655,-0.54857 5.11785,0.78274c1.89966,1.89967 7.21831,7.2183 10.41635,10.41634c1.49663,1.49663 1.55213,3.50551 0.12042,4.93723c-3.20131,3.20132 -8.67761,8.67761 -10.59697,10.59697c-1.30945,1.30944 -3.89165,1.88851 -5.35869,0.42147z"/></g><g fill="#43b149"><path d="M57.81539,242.42281c0.97181,-3.18351 2.64144,-8.653 3.18976,-10.44921c0.34387,-1.12648 2.0027,-2.03928 3.10711,-1.70214c1.91431,0.58436 7.74801,2.36518 10.79559,3.2955c1.05291,0.32141 1.60443,2.18674 1.21478,3.46322c-0.55602,1.82143 -2.11274,6.92103 -3.04878,9.98737c-0.43805,1.435 -1.67663,2.13882 -3.04938,1.71976c-3.06948,-0.937 -8.32024,-2.53987 -10.16056,-3.10165c-1.25552,-0.38326 -2.47791,-1.80623 -2.04852,-3.21284z"/><path d="M62.4976,248.06942c-1.56391,-2.93826 -4.25081,-7.98638 -5.13321,-9.6442c-0.55339,-1.03969 -0.02587,-2.85811 0.99346,-3.40066c1.76683,-0.94041 7.15111,-3.80622 9.96391,-5.30336c0.97179,-0.51725 2.68076,0.41174 3.30784,1.58988c0.89479,1.68111 3.39998,6.38784 4.90632,9.21794c0.70495,1.32444 0.32681,2.69793 -0.94019,3.3723c-2.83301,1.50788 -7.67925,4.08735 -9.37779,4.99141c-1.15879,0.61678 -3.02935,0.47494 -3.72035,-0.82331z"/></g><g fill="#48bd4e"><path d="M62.02131,242.96044c0,-2.09695 0,-5.69968 0,-6.88283c0,-0.74201 0.83163,-1.59712 1.5591,-1.59712c1.26094,0 5.10358,0 7.111,0c0.69355,0 1.36896,1.0225 1.36896,1.8633c0,1.19977 0,4.55885 0,6.57863c0,0.94522 -0.61684,1.59712 -1.52107,1.59712c-2.02185,0 -5.48049,0 -6.6927,0c-0.82701,0 -1.82529,-0.63257 -1.82529,-1.5591z"/><path d="M65.88116,245.50156c-1.48277,-1.48277 -4.03028,-4.03028 -4.8669,-4.8669c-0.52468,-0.52468 -0.54129,-1.71739 -0.02689,-2.23178c0.89162,-0.89162 3.60877,-3.60877 5.02823,-5.02823c0.49042,-0.49041 1.69102,-0.24498 2.28556,0.34956c0.84836,0.84836 3.2236,3.22359 4.65179,4.65179c0.66837,0.66838 0.69316,1.56551 0.05378,2.20489c-1.42966,1.42966 -3.8753,3.87529 -4.73245,4.73246c-0.58478,0.58478 -1.73796,0.84337 -2.39311,0.18822z"/></g><g fill="#ffffff"><path d="M64.16447,241.48296c0,-1.20164 0,-3.26612 0,-3.94412c0,-0.42519 0.47655,-0.91521 0.89342,-0.91521c0.72257,0 2.92454,0 4.07486,0c0.39742,0 0.78447,0.58593 0.78447,1.06775c0,0.68751 0,2.61239 0,3.7698c0,0.54165 -0.35348,0.91521 -0.87163,0.91521c-1.15859,0 -3.14052,0 -3.83516,0c-0.4739,0 -1.04595,-0.36249 -1.04595,-0.89342z"/><path d="M66.3763,242.93912c-0.84968,-0.84968 -2.3095,-2.3095 -2.78891,-2.78891c-0.30067,-0.30066 -0.31018,-0.98412 -0.01541,-1.27889c0.51093,-0.51093 2.06795,-2.06796 2.88136,-2.88137c0.28102,-0.28102 0.96901,-0.14038 1.30971,0.20031c0.48614,0.48615 1.84723,1.84724 2.66564,2.66564c0.383,0.383 0.39721,0.89709 0.03082,1.26349c-0.81925,0.81925 -2.22069,2.22068 -2.71187,2.71187c-0.3351,0.3351 -0.99591,0.48328 -1.37134,0.10785z"/></g></g><path d="M290.34695,247.05557v-4.33333h37v4.33333z" fill="#6bdcff"/><path d="M298.02285,242.38891h5.79729v130.5h-5.79729z" fill="#6bdcff"/><g><g fill="#40a946"><path d="M374.80104,311.74866c0,-4.69554 0,-12.76279 0,-15.41213c0,-1.6615 1.86219,-3.5763 3.49114,-3.5763c2.82351,0 11.42798,0 15.92302,0c1.553,0 3.06539,2.28959 3.06539,4.17234c0,2.68653 0,10.20823 0,14.73093c0,2.11656 -1.38124,3.5763 -3.40599,3.5763c-4.52734,0 -12.27199,0 -14.98638,0c-1.85183,0 -4.08719,-1.41645 -4.08719,-3.49114z"/><path d="M383.44405,317.43876c-3.32025,-3.32025 -9.02467,-9.02465 -10.89803,-10.89801c-1.17487,-1.17487 -1.21205,-3.84559 -0.0602,-4.99743c1.99652,-1.99653 8.08079,-8.08081 11.25928,-11.25929c1.09813,-1.09813 3.78655,-0.54857 5.11785,0.78274c1.89966,1.89967 7.21831,7.2183 10.41635,10.41634c1.49663,1.49663 1.55213,3.50551 0.12042,4.93723c-3.20131,3.20132 -8.67761,8.67761 -10.59697,10.59697c-1.30945,1.30944 -3.89165,1.88851 -5.35869,0.42147z"/></g><g fill="#43b149"><path d="M376.81538,306.92282c0.97181,-3.18351 2.64144,-8.653 3.18976,-10.44921c0.34387,-1.12648 2.0027,-2.03928 3.10711,-1.70214c1.91431,0.58436 7.74801,2.36518 10.79559,3.2955c1.05291,0.32141 1.60443,2.18674 1.21478,3.46322c-0.55602,1.82143 -2.11274,6.92103 -3.04878,9.98737c-0.43805,1.435 -1.67663,2.13882 -3.04938,1.71976c-3.06948,-0.937 -8.32024,-2.53987 -10.16056,-3.10165c-1.25552,-0.38326 -2.47791,-1.80623 -2.04852,-3.21284z"/><path d="M381.49757,312.56943c-1.56391,-2.93826 -4.25081,-7.98638 -5.13321,-9.6442c-0.55339,-1.03969 -0.02587,-2.85811 0.99346,-3.40066c1.76683,-0.94041 7.15111,-3.80622 9.96391,-5.30336c0.97179,-0.51725 2.68076,0.41174 3.30784,1.58988c0.89479,1.68111 3.39998,6.38784 4.90632,9.21794c0.70495,1.32444 0.32681,2.69793 -0.94019,3.3723c-2.83301,1.50788 -7.67925,4.08735 -9.37779,4.99141c-1.15879,0.61678 -3.02935,0.47494 -3.72035,-0.82331z"/></g><g fill="#48bd4e"><path d="M381.02129,307.46045c0,-2.09695 0,-5.69968 0,-6.88283c0,-0.74201 0.83163,-1.59712 1.5591,-1.59712c1.26094,0 5.10358,0 7.111,0c0.69355,0 1.36896,1.0225 1.36896,1.8633c0,1.19977 0,4.55885 0,6.57863c0,0.94522 -0.61684,1.59712 -1.52107,1.59712c-2.02185,0 -5.48049,0 -6.6927,0c-0.82701,0 -1.82529,-0.63257 -1.82529,-1.5591z"/><path d="M384.88114,310.00157c-1.48277,-1.48277 -4.03028,-4.03028 -4.8669,-4.8669c-0.52468,-0.52468 -0.54129,-1.71739 -0.02689,-2.23178c0.89162,-0.89162 3.60877,-3.60877 5.02823,-5.02823c0.49042,-0.49041 1.69102,-0.24498 2.28556,0.34956c0.84836,0.84836 3.2236,3.22359 4.65179,4.65179c0.66837,0.66838 0.69316,1.56551 0.05378,2.20489c-1.42966,1.42966 -3.8753,3.87529 -4.73245,4.73246c-0.58478,0.58478 -1.73796,0.84337 -2.39311,0.18822z"/></g><g fill="#ffffff"><path d="M383.16444,305.98296c0,-1.20164 0,-3.26612 0,-3.94412c0,-0.42519 0.47655,-0.91521 0.89342,-0.91521c0.72257,0 2.92454,0 4.07486,0c0.39742,0 0.78447,0.58593 0.78447,1.06775c0,0.68751 0,2.61239 0,3.7698c0,0.54165 -0.35348,0.91521 -0.87163,0.91521c-1.15859,0 -3.14052,0 -3.83516,0c-0.4739,0 -1.04595,-0.36249 -1.04595,-0.89342z"/><path d="M385.37628,307.43913c-0.84968,-0.84968 -2.3095,-2.3095 -2.78891,-2.78891c-0.30067,-0.30066 -0.31018,-0.98412 -0.01541,-1.27889c0.51093,-0.51093 2.06795,-2.06796 2.88136,-2.88137c0.28102,-0.28102 0.96901,-0.14038 1.30971,0.20031c0.48614,0.48615 1.84723,1.84724 2.66564,2.66564c0.383,0.383 0.39721,0.89709 0.03082,1.26349c-0.81925,0.81925 -2.22069,2.22068 -2.71187,2.71187c-0.3351,0.3351 -0.99591,0.48328 -1.37134,0.10785z"/></g></g><g><g fill="#40a946"><path d="M244.30104,96.74864c0,-4.69554 0,-12.76279 0,-15.41213c0,-1.6615 1.86219,-3.5763 3.49114,-3.5763c2.82351,0 11.42798,0 15.92302,0c1.553,0 3.06539,2.28959 3.06539,4.17234c0,2.68653 0,10.20823 0,14.73093c0,2.11656 -1.38124,3.5763 -3.40599,3.5763c-4.52734,0 -12.27199,0 -14.98638,0c-1.85183,0 -4.08719,-1.41645 -4.08719,-3.49114z"/><path d="M252.94406,102.43875c-3.32025,-3.32025 -9.02467,-9.02465 -10.89803,-10.89801c-1.17487,-1.17487 -1.21205,-3.84559 -0.0602,-4.99743c1.99652,-1.99653 8.08079,-8.08081 11.25928,-11.25929c1.09813,-1.09813 3.78655,-0.54857 5.11785,0.78274c1.89966,1.89967 7.21831,7.2183 10.41635,10.41634c1.49663,1.49663 1.55213,3.50551 0.12042,4.93723c-3.20131,3.20132 -8.67761,8.67761 -10.59697,10.59697c-1.30945,1.30944 -3.89165,1.88851 -5.35869,0.42147z"/></g><g fill="#43b149"><path d="M246.31539,91.92281c0.97181,-3.18351 2.64144,-8.653 3.18976,-10.44921c0.34387,-1.12648 2.0027,-2.03928 3.10711,-1.70214c1.91431,0.58436 7.74801,2.36518 10.79559,3.2955c1.05291,0.32141 1.60443,2.18674 1.21478,3.46322c-0.55602,1.82143 -2.11274,6.92103 -3.04878,9.98737c-0.43805,1.435 -1.67663,2.13882 -3.04938,1.71976c-3.06948,-0.937 -8.32024,-2.53987 -10.16056,-3.10165c-1.25552,-0.38326 -2.47791,-1.80623 -2.04852,-3.21284z"/><path d="M250.99758,97.56941c-1.56391,-2.93826 -4.25081,-7.98638 -5.13321,-9.6442c-0.55339,-1.03969 -0.02587,-2.85811 0.99346,-3.40066c1.76683,-0.94041 7.15111,-3.80622 9.96391,-5.30336c0.97179,-0.51725 2.68076,0.41174 3.30784,1.58988c0.89479,1.68111 3.39998,6.38784 4.90632,9.21794c0.70495,1.32444 0.32681,2.69793 -0.94019,3.3723c-2.83301,1.50788 -7.67925,4.08735 -9.37779,4.99141c-1.15879,0.61678 -3.02935,0.47494 -3.72035,-0.82331z"/></g><g fill="#48bd4e"><path d="M250.5213,92.46043c0,-2.09695 0,-5.69968 0,-6.88283c0,-0.74201 0.83163,-1.59712 1.5591,-1.59712c1.26094,0 5.10358,0 7.111,0c0.69355,0 1.36896,1.0225 1.36896,1.8633c0,1.19977 0,4.55885 0,6.57863c0,0.94522 -0.61684,1.59712 -1.52107,1.59712c-2.02185,0 -5.48049,0 -6.6927,0c-0.82701,0 -1.82529,-0.63257 -1.82529,-1.5591z"/><path d="M254.38115,95.00155c-1.48277,-1.48277 -4.03028,-4.03028 -4.8669,-4.8669c-0.52468,-0.52468 -0.54129,-1.71739 -0.02689,-2.23178c0.89162,-0.89162 3.60877,-3.60877 5.02823,-5.02823c0.49042,-0.49041 1.69102,-0.24498 2.28556,0.34956c0.84836,0.84836 3.2236,3.22359 4.65179,4.65179c0.66837,0.66838 0.69316,1.56551 0.05378,2.20489c-1.42966,1.42966 -3.8753,3.87529 -4.73245,4.73246c-0.58478,0.58478 -1.73796,0.84337 -2.39311,0.18822z"/></g><g fill="#ffffff"><path d="M252.66446,90.98295c0,-1.20164 0,-3.26612 0,-3.94412c0,-0.42519 0.47655,-0.91521 0.89342,-0.91521c0.72257,0 2.92454,0 4.07486,0c0.39742,0 0.78447,0.58593 0.78447,1.06775c0,0.68751 0,2.61239 0,3.7698c0,0.54165 -0.35348,0.91521 -0.87163,0.91521c-1.15859,0 -3.14052,0 -3.83516,0c-0.4739,0 -1.04595,-0.36249 -1.04595,-0.89342z"/><path d="M254.87629,92.43911c-0.84968,-0.84968 -2.3095,-2.3095 -2.78891,-2.78891c-0.30067,-0.30066 -0.31018,-0.98412 -0.01541,-1.27889c0.51093,-0.51093 2.06795,-2.06796 2.88136,-2.88137c0.28102,-0.28102 0.96901,-0.14038 1.30971,0.20031c0.48614,0.48615 1.84723,1.84724 2.66564,2.66564c0.383,0.383 0.39721,0.89709 0.03082,1.26349c-0.81925,0.81925 -2.22069,2.22068 -2.71187,2.71187c-0.3351,0.3351 -0.99591,0.48328 -1.37134,0.10785z"/></g></g><g><g fill="#40a946"><path d="M274.30104,101.74865c0,-4.69554 0,-12.76279 0,-15.41213c0,-1.6615 1.86219,-3.5763 3.49114,-3.5763c2.82351,0 11.42798,0 15.92302,0c1.553,0 3.06539,2.28959 3.06539,4.17234c0,2.68653 0,10.20823 0,14.73093c0,2.11656 -1.38124,3.5763 -3.40599,3.5763c-4.52734,0 -12.27199,0 -14.98638,0c-1.85183,0 -4.08719,-1.41645 -4.08719,-3.49114z"/><path d="M282.94406,107.43875c-3.32025,-3.32025 -9.02467,-9.02465 -10.89803,-10.89801c-1.17487,-1.17487 -1.21205,-3.84559 -0.0602,-4.99743c1.99652,-1.99653 8.08079,-8.08081 11.25928,-11.25929c1.09813,-1.09813 3.78655,-0.54857 5.11785,0.78274c1.89966,1.89967 7.21831,7.2183 10.41635,10.41634c1.49663,1.49663 1.55213,3.50551 0.12042,4.93723c-3.20131,3.20132 -8.67761,8.67761 -10.59697,10.59697c-1.30945,1.30944 -3.89165,1.88851 -5.35869,0.42147z"/></g><g fill="#43b149"><path d="M276.31539,96.92281c0.97181,-3.18351 2.64144,-8.653 3.18976,-10.44921c0.34387,-1.12648 2.0027,-2.03928 3.10711,-1.70214c1.91431,0.58436 7.74801,2.36518 10.79559,3.2955c1.05291,0.32141 1.60443,2.18674 1.21478,3.46322c-0.55602,1.82143 -2.11274,6.92103 -3.04878,9.98737c-0.43805,1.435 -1.67663,2.13882 -3.04938,1.71976c-3.06948,-0.937 -8.32024,-2.53987 -10.16056,-3.10165c-1.25552,-0.38326 -2.47791,-1.80623 -2.04852,-3.21284z"/><path d="M280.99758,102.56942c-1.56391,-2.93826 -4.25081,-7.98638 -5.13321,-9.6442c-0.55339,-1.03969 -0.02587,-2.85811 0.99346,-3.40066c1.76683,-0.94041 7.15111,-3.80622 9.96391,-5.30336c0.97179,-0.51725 2.68076,0.41174 3.30784,1.58988c0.89479,1.68111 3.39998,6.38784 4.90632,9.21794c0.70495,1.32444 0.32681,2.69793 -0.94019,3.3723c-2.83301,1.50788 -7.67925,4.08735 -9.37779,4.99141c-1.15879,0.61678 -3.02935,0.47494 -3.72035,-0.82331z"/></g><g fill="#48bd4e"><path d="M280.5213,97.46044c0,-2.09695 0,-5.69968 0,-6.88283c0,-0.74201 0.83163,-1.59712 1.5591,-1.59712c1.26094,0 5.10358,0 7.111,0c0.69355,0 1.36896,1.0225 1.36896,1.8633c0,1.19977 0,4.55885 0,6.57863c0,0.94522 -0.61684,1.59712 -1.52107,1.59712c-2.02185,0 -5.48049,0 -6.6927,0c-0.82701,0 -1.82529,-0.63257 -1.82529,-1.5591z"/><path d="M284.38115,100.00156c-1.48277,-1.48277 -4.03028,-4.03028 -4.8669,-4.8669c-0.52468,-0.52468 -0.54129,-1.71739 -0.02689,-2.23178c0.89162,-0.89162 3.60877,-3.60877 5.02823,-5.02823c0.49042,-0.49041 1.69102,-0.24498 2.28556,0.34956c0.84836,0.84836 3.2236,3.22359 4.65179,4.65179c0.66837,0.66838 0.69316,1.56551 0.05378,2.20489c-1.42966,1.42966 -3.8753,3.87529 -4.73245,4.73246c-0.58478,0.58478 -1.73796,0.84337 -2.39311,0.18822z"/></g><g fill="#ffffff"><path d="M282.66446,95.98296c0,-1.20164 0,-3.26612 0,-3.94412c0,-0.42519 0.47655,-0.91521 0.89342,-0.91521c0.72257,0 2.92454,0 4.07486,0c0.39742,0 0.78447,0.58593 0.78447,1.06775c0,0.68751 0,2.61239 0,3.7698c0,0.54165 -0.35348,0.91521 -0.87163,0.91521c-1.15859,0 -3.14052,0 -3.83516,0c-0.4739,0 -1.04595,-0.36249 -1.04595,-0.89342z"/><path d="M284.87629,97.43912c-0.84968,-0.84968 -2.3095,-2.3095 -2.78891,-2.78891c-0.30067,-0.30066 -0.31018,-0.98412 -0.01541,-1.27889c0.51093,-0.51093 2.06795,-2.06796 2.88136,-2.88137c0.28102,-0.28102 0.96901,-0.14038 1.30971,0.20031c0.48614,0.48615 1.84723,1.84724 2.66564,2.66564c0.383,0.383 0.39721,0.89709 0.03082,1.26349c-0.81925,0.81925 -2.22069,2.22068 -2.71187,2.71187c-0.3351,0.3351 -0.99591,0.48328 -1.37134,0.10785z"/></g></g><g><g fill="#40a946"><path d="M316.30104,87.74865c0,-4.69554 0,-12.76279 0,-15.41213c0,-1.6615 1.86219,-3.5763 3.49114,-3.5763c2.82351,0 11.42798,0 15.92302,0c1.553,0 3.06539,2.28959 3.06539,4.17234c0,2.68653 0,10.20823 0,14.73093c0,2.11656 -1.38124,3.5763 -3.40599,3.5763c-4.52734,0 -12.27199,0 -14.98638,0c-1.85183,0 -4.08719,-1.41645 -4.08719,-3.49114z"/><path d="M324.94406,93.43875c-3.32025,-3.32025 -9.02467,-9.02465 -10.89803,-10.89801c-1.17487,-1.17487 -1.21205,-3.84559 -0.0602,-4.99743c1.99652,-1.99653 8.08079,-8.08081 11.25928,-11.25929c1.09813,-1.09813 3.78655,-0.54857 5.11785,0.78274c1.89966,1.89967 7.21831,7.2183 10.41635,10.41634c1.49663,1.49663 1.55213,3.50551 0.12042,4.93723c-3.20131,3.20132 -8.67761,8.67761 -10.59697,10.59697c-1.30945,1.30944 -3.89165,1.88851 -5.35869,0.42147z"/></g><g fill="#43b149"><path d="M318.31539,82.92281c0.97181,-3.18351 2.64144,-8.653 3.18976,-10.44921c0.34387,-1.12648 2.0027,-2.03928 3.10711,-1.70214c1.91431,0.58436 7.74801,2.36518 10.79559,3.2955c1.05291,0.32141 1.60443,2.18674 1.21478,3.46322c-0.55602,1.82143 -2.11274,6.92103 -3.04878,9.98737c-0.43805,1.435 -1.67663,2.13882 -3.04938,1.71976c-3.06948,-0.937 -8.32024,-2.53987 -10.16056,-3.10165c-1.25552,-0.38326 -2.47791,-1.80623 -2.04852,-3.21284z"/><path d="M322.99758,88.56942c-1.56391,-2.93826 -4.25081,-7.98638 -5.13321,-9.6442c-0.55339,-1.03969 -0.02587,-2.85811 0.99346,-3.40066c1.76683,-0.94041 7.15111,-3.80622 9.96391,-5.30336c0.97179,-0.51725 2.68076,0.41174 3.30784,1.58988c0.89479,1.68111 3.39998,6.38784 4.90632,9.21794c0.70495,1.32444 0.32681,2.69793 -0.94019,3.3723c-2.83301,1.50788 -7.67925,4.08735 -9.37779,4.99141c-1.15879,0.61678 -3.02935,0.47494 -3.72035,-0.82331z"/></g><g fill="#48bd4e"><path d="M322.5213,83.46044c0,-2.09695 0,-5.69968 0,-6.88283c0,-0.74201 0.83163,-1.59712 1.5591,-1.59712c1.26094,0 5.10358,0 7.111,0c0.69355,0 1.36896,1.0225 1.36896,1.8633c0,1.19977 0,4.55885 0,6.57863c0,0.94522 -0.61684,1.59712 -1.52107,1.59712c-2.02185,0 -5.48049,0 -6.6927,0c-0.82701,0 -1.82529,-0.63257 -1.82529,-1.5591z"/><path d="M326.38115,86.00156c-1.48277,-1.48277 -4.03028,-4.03028 -4.8669,-4.8669c-0.52468,-0.52468 -0.54129,-1.71739 -0.02689,-2.23178c0.89162,-0.89162 3.60877,-3.60877 5.02823,-5.02823c0.49042,-0.49041 1.69102,-0.24498 2.28556,0.34956c0.84836,0.84836 3.2236,3.22359 4.65179,4.65179c0.66837,0.66838 0.69316,1.56551 0.05378,2.20489c-1.42966,1.42966 -3.8753,3.87529 -4.73245,4.73246c-0.58478,0.58478 -1.73796,0.84337 -2.39311,0.18822z"/></g><g fill="#ffffff"><path d="M324.66446,81.98296c0,-1.20164 0,-3.26612 0,-3.94412c0,-0.42519 0.47655,-0.91521 0.89342,-0.91521c0.72257,0 2.92454,0 4.07486,0c0.39742,0 0.78447,0.58593 0.78447,1.06775c0,0.68751 0,2.61239 0,3.7698c0,0.54165 -0.35348,0.91521 -0.87163,0.91521c-1.15859,0 -3.14052,0 -3.83516,0c-0.4739,0 -1.04595,-0.36249 -1.04595,-0.89342z"/><path d="M326.87629,83.43912c-0.84968,-0.84968 -2.3095,-2.3095 -2.78891,-2.78891c-0.30067,-0.30066 -0.31018,-0.98412 -0.01541,-1.27889c0.51093,-0.51093 2.06795,-2.06796 2.88136,-2.88137c0.28102,-0.28102 0.96901,-0.14038 1.30971,0.20031c0.48614,0.48615 1.84723,1.84724 2.66564,2.66564c0.383,0.383 0.39721,0.89709 0.03082,1.26349c-0.81925,0.81925 -2.22069,2.22068 -2.71187,2.71187c-0.3351,0.3351 -0.99591,0.48328 -1.37134,0.10785z"/></g></g><path d="M462.92844,258.1119c-8.79166,0 -15.91872,-7.12706 -15.91872,-15.91872c0,-8.79166 7.12706,-15.91872 15.91872,-15.91872c8.79166,0 15.91872,7.12706 15.91872,15.91872c0,8.79166 -7.12706,15.91872 -15.91872,15.91872z" data-paper-data="{&quot;index&quot;:null}" fill="#ffffff"/><g><g fill="#40a946"><path d="M469.75615,240.94606c0,4.69554 0,12.76279 0,15.41213c0,1.6615 -1.86219,3.5763 -3.49114,3.5763c-2.82351,0 -11.42798,0 -15.92302,0c-1.553,0 -3.06539,-2.28959 -3.06539,-4.17234c0,-2.68653 0,-10.20823 0,-14.73093c0,-2.11656 1.38124,-3.5763 3.40599,-3.5763c4.52734,0 12.27199,0 14.98638,0c1.85183,0 4.08719,1.41645 4.08719,3.49114z"/><path d="M461.11314,235.25596c3.32025,3.32025 9.02467,9.02465 10.89803,10.89801c1.17487,1.17487 1.21205,3.84559 0.0602,4.99743c-1.99652,1.99653 -8.08079,8.08081 -11.25928,11.25929c-1.09813,1.09813 -3.78655,0.54857 -5.11785,-0.78274c-1.89966,-1.89967 -7.21831,-7.2183 -10.41635,-10.41634c-1.49663,-1.49663 -1.55213,-3.50551 -0.12042,-4.93723c3.20131,-3.20132 8.67761,-8.67761 10.59697,-10.59697c1.30945,-1.30944 3.89165,-1.88851 5.35869,-0.42147z"/></g><g fill="#43b149"><path d="M467.74181,245.7719c-0.97181,3.18351 -2.64144,8.653 -3.18976,10.44921c-0.34387,1.12648 -2.0027,2.03928 -3.10711,1.70214c-1.91431,-0.58436 -7.74801,-2.36518 -10.79559,-3.2955c-1.05291,-0.32141 -1.60443,-2.18674 -1.21478,-3.46322c0.55602,-1.82143 2.11274,-6.92103 3.04878,-9.98737c0.43805,-1.435 1.67663,-2.13882 3.04938,-1.71976c3.06948,0.937 8.32024,2.53987 10.16056,3.10165c1.25552,0.38326 2.47791,1.80623 2.04852,3.21284z"/><path d="M463.05962,240.12529c1.56391,2.93826 4.25081,7.98638 5.13321,9.6442c0.55339,1.03969 0.02587,2.85811 -0.99346,3.40066c-1.76683,0.94041 -7.15111,3.80622 -9.96391,5.30336c-0.97179,0.51725 -2.68076,-0.41174 -3.30784,-1.58988c-0.89479,-1.68111 -3.39998,-6.38784 -4.90632,-9.21794c-0.70495,-1.32444 -0.32681,-2.69793 0.94019,-3.3723c2.83301,-1.50788 7.67925,-4.08735 9.37779,-4.99141c1.15879,-0.61678 3.02935,-0.47494 3.72035,0.82331z"/></g><g fill="#48bd4e"><path d="M463.5359,245.23427c0,2.09695 0,5.69968 0,6.88283c0,0.74201 -0.83163,1.59712 -1.5591,1.59712c-1.26094,0 -5.10358,0 -7.111,0c-0.69355,0 -1.36896,-1.0225 -1.36896,-1.8633c0,-1.19977 0,-4.55885 0,-6.57863c0,-0.94522 0.61684,-1.59712 1.52107,-1.59712c2.02185,0 5.48049,0 6.6927,0c0.82701,0 1.82529,0.63257 1.82529,1.5591z"/><path d="M459.67605,242.69315c1.48277,1.48277 4.03028,4.03028 4.8669,4.8669c0.52468,0.52468 0.54129,1.71739 0.02689,2.23178c-0.89162,0.89162 -3.60877,3.60877 -5.02823,5.02823c-0.49042,0.49041 -1.69102,0.24498 -2.28556,-0.34956c-0.84836,-0.84836 -3.2236,-3.22359 -4.65179,-4.65179c-0.66837,-0.66838 -0.69316,-1.56551 -0.05378,-2.20489c1.42966,-1.42966 3.8753,-3.87529 4.73245,-4.73246c0.58478,-0.58478 1.73796,-0.84337 2.39311,-0.18822z"/></g><g fill="#ffffff"><path d="M461.39275,246.71176c0,1.20164 0,3.26612 0,3.94412c0,0.42519 -0.47655,0.91521 -0.89342,0.91521c-0.72257,0 -2.92454,0 -4.07486,0c-0.39742,0 -0.78447,-0.58593 -0.78447,-1.06775c0,-0.68751 0,-2.61239 0,-3.7698c0,-0.54165 0.35348,-0.91521 0.87163,-0.91521c1.15859,0 3.14052,0 3.83516,0c0.4739,0 1.04595,0.36249 1.04595,0.89342z"/><path d="M459.18091,245.25559c0.84968,0.84968 2.3095,2.3095 2.78891,2.78891c0.30067,0.30066 0.31018,0.98412 0.01541,1.27889c-0.51093,0.51093 -2.06795,2.06796 -2.88136,2.88137c-0.28102,0.28102 -0.96901,0.14038 -1.30971,-0.20031c-0.48614,-0.48615 -1.84723,-1.84724 -2.66564,-2.66564c-0.383,-0.383 -0.39721,-0.89709 -0.03082,-1.26349c0.81925,-0.81925 2.22069,-2.22068 2.71187,-2.71187c0.3351,-0.3351 0.99591,-0.48328 1.37134,-0.10785z"/></g></g><path d="M-90.74727,421.36383v-513.51351h630.63063v513.51352z" fill="none"/></g></g></svg>