<svg version="1.1" xmlns="http://www.w3.org/2000/svg" xmlns:xlink="http://www.w3.org/1999/xlink" width="630.63063" height="513.51352" viewBox="0,0,630.63063,513.51352"><g transform="translate(90.74727,92.14969)"><g data-paper-data="{&quot;isPaintingLayer&quot;:true}" fill-rule="nonzero" stroke-linecap="butt" stroke-linejoin="miter" stroke-miterlimit="10" stroke-dasharray="" stroke-dashoffset="0" style="mix-blend-mode: normal"><path d="M63.17381,183.04202c4.58769,4.58769 4.58769,12.02582 0,16.61351c-4.58769,4.58769 -12.02582,4.58769 -16.61351,0c-4.58769,-4.58769 -4.58769,-12.02582 0,-16.61351c4.58769,-4.58769 12.02582,-4.58769 16.61351,0z" data-paper-data="{&quot;index&quot;:null}" fill="#ffffff" stroke="none" stroke-width="0"/><g stroke="none" stroke-width="0"><g fill="#40a946"><path d="M346.75615,249.94606c0,4.69554 0,12.76279 0,15.41213c0,1.6615 -1.86219,3.5763 -3.49114,3.5763c-2.82351,0 -11.42798,0 -15.92302,0c-1.553,0 -3.06539,-2.28959 -3.06539,-4.17234c0,-2.68653 0,-10.20823 0,-14.73093c0,-2.11656 1.38124,-3.5763 3.40599,-3.5763c4.52734,0 12.27199,0 14.98638,0c1.85183,0 4.08719,1.41645 4.08719,3.49114z"/><path d="M338.11314,244.25596c3.32025,3.32025 9.02467,9.02465 10.89803,10.89801c1.17487,1.17487 1.21205,3.84559 0.0602,4.99743c-1.99652,1.99653 -8.08079,8.08081 -11.25928,11.25929c-1.09813,1.09813 -3.78655,0.54857 -5.11785,-0.78274c-1.89966,-1.89967 -7.21831,-7.2183 -10.41635,-10.41634c-1.49663,-1.49663 -1.55213,-3.50551 -0.12042,-4.93723c3.20131,-3.20132 8.67761,-8.67761 10.59697,-10.59697c1.30945,-1.30944 3.89165,-1.88851 5.35869,-0.42147z"/></g><g fill="#43b149"><path d="M344.74181,254.77189c-0.97181,3.18351 -2.64144,8.653 -3.18976,10.44921c-0.34387,1.12648 -2.0027,2.03928 -3.10711,1.70214c-1.91431,-0.58436 -7.74801,-2.36518 -10.79559,-3.2955c-1.05291,-0.32141 -1.60443,-2.18674 -1.21478,-3.46322c0.55602,-1.82143 2.11274,-6.92103 3.04878,-9.98737c0.43805,-1.435 1.67663,-2.13882 3.04938,-1.71976c3.06948,0.937 8.32024,2.53987 10.16056,3.10165c1.25552,0.38326 2.47791,1.80623 2.04852,3.21284z"/><path d="M340.05962,249.12529c1.56391,2.93826 4.25081,7.98638 5.13321,9.6442c0.55339,1.03969 0.02587,2.85811 -0.99346,3.40066c-1.76683,0.94041 -7.15111,3.80622 -9.96391,5.30336c-0.97179,0.51725 -2.68076,-0.41174 -3.30784,-1.58988c-0.89479,-1.68111 -3.39998,-6.38784 -4.90632,-9.21794c-0.70495,-1.32444 -0.32681,-2.69793 0.94019,-3.3723c2.83301,-1.50788 7.67925,-4.08735 9.37779,-4.99141c1.15879,-0.61678 3.02935,-0.47494 3.72035,0.82331z"/></g><g fill="#48bd4e"><path d="M340.5359,254.23427c0,2.09695 0,5.69968 0,6.88283c0,0.74201 -0.83163,1.59712 -1.5591,1.59712c-1.26094,0 -5.10358,0 -7.111,0c-0.69355,0 -1.36896,-1.0225 -1.36896,-1.8633c0,-1.19977 0,-4.55885 0,-6.57863c0,-0.94522 0.61684,-1.59712 1.52107,-1.59712c2.02185,0 5.48049,0 6.6927,0c0.82701,0 1.82529,0.63257 1.82529,1.5591z"/><path d="M336.67605,251.69315c1.48277,1.48277 4.03028,4.03028 4.8669,4.8669c0.52468,0.52468 0.54129,1.71739 0.02689,2.23178c-0.89162,0.89162 -3.60877,3.60877 -5.02823,5.02823c-0.49042,0.49041 -1.69102,0.24498 -2.28556,-0.34956c-0.84836,-0.84836 -3.2236,-3.22359 -4.65179,-4.65179c-0.66837,-0.66838 -0.69316,-1.56551 -0.05378,-2.20489c1.42966,-1.42966 3.8753,-3.87529 4.73245,-4.73246c0.58478,-0.58478 1.73796,-0.84337 2.39311,-0.18822z"/></g><g fill="#ffffff"><path d="M338.39275,255.71176c0,1.20164 0,3.26612 0,3.94412c0,0.42519 -0.47655,0.91521 -0.89342,0.91521c-0.72257,0 -2.92454,0 -4.07486,0c-0.39742,0 -0.78447,-0.58593 -0.78447,-1.06775c0,-0.68751 0,-2.61239 0,-3.7698c0,-0.54165 0.35348,-0.91521 0.87163,-0.91521c1.15859,0 3.14052,0 3.83516,0c0.4739,0 1.04595,0.36249 1.04595,0.89342z"/><path d="M336.18091,254.25559c0.84968,0.84968 2.3095,2.3095 2.78891,2.78891c0.30067,0.30066 0.31018,0.98412 0.01541,1.27889c-0.51093,0.51093 -2.06795,2.06796 -2.88136,2.88137c-0.28102,0.28102 -0.96901,0.14038 -1.30971,-0.20031c-0.48614,-0.48615 -1.84723,-1.84724 -2.66564,-2.66564c-0.383,-0.383 -0.39721,-0.89709 -0.03082,-1.26349c0.81925,-0.81925 2.22069,-2.22068 2.71187,-2.71187c0.3351,-0.3351 0.99591,-0.48328 1.37134,-0.10785z"/></g></g><g stroke="none" stroke-width="0"><g fill="#40a946"><path d="M331.20957,188.32517c0,-4.69554 0,-12.76279 0,-15.41213c0,-1.6615 1.86219,-3.5763 3.49114,-3.5763c2.82351,0 11.42798,0 15.92302,0c1.553,0 3.06539,2.28959 3.06539,4.17234c0,2.68653 0,10.20823 0,14.73093c0,2.11656 -1.38124,3.5763 -3.40599,3.5763c-4.52734,0 -12.27199,0 -14.98638,0c-1.85183,0 -4.08719,-1.41645 -4.08719,-3.49114z"/><path d="M339.85258,194.01527c-3.32025,-3.32025 -9.02467,-9.02465 -10.89803,-10.89801c-1.17487,-1.17487 -1.21205,-3.84559 -0.0602,-4.99743c1.99652,-1.99653 8.08079,-8.08081 11.25928,-11.25929c1.09813,-1.09813 3.78655,-0.54857 5.11785,0.78274c1.89966,1.89967 7.21831,7.2183 10.41635,10.41634c1.49663,1.49663 1.55213,3.50551 0.12042,4.93723c-3.20131,3.20132 -8.67761,8.67761 -10.59697,10.59697c-1.30945,1.30944 -3.89165,1.88851 -5.35869,0.42147z"/></g><g fill="#43b149"><path d="M333.22391,183.49933c0.97181,-3.18351 2.64144,-8.653 3.18976,-10.44921c0.34387,-1.12648 2.0027,-2.03928 3.10711,-1.70214c1.91431,0.58436 7.74801,2.36518 10.79559,3.2955c1.05291,0.32141 1.60443,2.18674 1.21478,3.46322c-0.55602,1.82143 -2.11274,6.92103 -3.04878,9.98737c-0.43805,1.435 -1.67663,2.13882 -3.04938,1.71976c-3.06948,-0.937 -8.32024,-2.53987 -10.16056,-3.10165c-1.25552,-0.38326 -2.47791,-1.80623 -2.04852,-3.21284z"/><path d="M337.9061,189.14594c-1.56391,-2.93826 -4.25081,-7.98638 -5.13321,-9.6442c-0.55339,-1.03969 -0.02587,-2.85811 0.99346,-3.40066c1.76683,-0.94041 7.15111,-3.80622 9.96391,-5.30336c0.97179,-0.51725 2.68076,0.41174 3.30784,1.58988c0.89479,1.68111 3.39998,6.38784 4.90632,9.21794c0.70495,1.32444 0.32681,2.69793 -0.94019,3.3723c-2.83301,1.50788 -7.67925,4.08735 -9.37779,4.99141c-1.15879,0.61678 -3.02935,0.47494 -3.72035,-0.82331z"/></g><g fill="#48bd4e"><path d="M337.42982,184.03696c0,-2.09695 0,-5.69968 0,-6.88283c0,-0.74201 0.83163,-1.59712 1.5591,-1.59712c1.26094,0 5.10358,0 7.111,0c0.69355,0 1.36896,1.0225 1.36896,1.8633c0,1.19977 0,4.55885 0,6.57863c0,0.94522 -0.61684,1.59712 -1.52107,1.59712c-2.02185,0 -5.48049,0 -6.6927,0c-0.82701,0 -1.82529,-0.63257 -1.82529,-1.5591z"/><path d="M341.28967,186.57808c-1.48277,-1.48277 -4.03028,-4.03028 -4.8669,-4.8669c-0.52468,-0.52468 -0.54129,-1.71739 -0.02689,-2.23178c0.89162,-0.89162 3.60877,-3.60877 5.02823,-5.02823c0.49042,-0.49041 1.69102,-0.24498 2.28556,0.34956c0.84836,0.84836 3.2236,3.22359 4.65179,4.65179c0.66837,0.66838 0.69316,1.56551 0.05378,2.20489c-1.42966,1.42966 -3.8753,3.87529 -4.73245,4.73246c-0.58478,0.58478 -1.73796,0.84337 -2.39311,0.18822z"/></g><g fill="#ffffff"><path d="M339.57297,182.55947c0,-1.20164 0,-3.26612 0,-3.94412c0,-0.42519 0.47655,-0.91521 0.89342,-0.91521c0.72257,0 2.92454,0 4.07486,0c0.39742,0 0.78447,0.58593 0.78447,1.06775c0,0.68751 0,2.61239 0,3.7698c0,0.54165 -0.35348,0.91521 -0.87163,0.91521c-1.15859,0 -3.14052,0 -3.83516,0c-0.4739,0 -1.04595,-0.36249 -1.04595,-0.89342z"/><path d="M341.78481,184.01564c-0.84968,-0.84968 -2.3095,-2.3095 -2.78891,-2.78891c-0.30067,-0.30066 -0.31018,-0.98412 -0.01541,-1.27889c0.51093,-0.51093 2.06795,-2.06796 2.88136,-2.88137c0.28102,-0.28102 0.96901,-0.14038 1.30971,0.20031c0.48614,0.48615 1.84723,1.84724 2.66564,2.66564c0.383,0.383 0.39721,0.89709 0.03082,1.26349c-0.81925,0.81925 -2.22069,2.22068 -2.71187,2.71187c-0.3351,0.3351 -0.99591,0.48328 -1.37134,0.10785z"/></g></g><path d="M198.8962,293.83231c-3.82835,-3.82835 -3.82835,-10.03532 0,-13.86366c3.82834,-3.82834 10.03532,-3.82835 13.86366,0c3.82835,3.82835 3.82834,10.03532 0,13.86366c-3.82835,3.82835 -10.03532,3.82834 -13.86366,0z" fill="#ffffff" stroke="none" stroke-width="0"/><path d="M174.14747,308.68155c-3.82835,-3.82835 -3.82835,-10.03532 0,-13.86366c3.82835,-3.82835 10.03532,-3.82835 13.86366,0c3.82835,3.82835 3.82834,10.03532 0,13.86366c-3.82835,3.82835 -10.03532,3.82834 -13.86366,0z" fill="#ffffff" stroke="none" stroke-width="0"/><path d="M138.79213,298.78205c-3.82835,-3.82835 -3.82835,-10.03532 0,-13.86366c3.82835,-3.82835 10.03532,-3.82835 13.86366,0c3.82835,3.82835 3.82834,10.03532 0,13.86366c-3.82835,3.82835 -10.03532,3.82834 -13.86366,0z" fill="#ffffff" stroke="none" stroke-width="0"/><path d="M132.42817,289.58967c-6.56201,-6.56201 -6.56201,-17.20114 0,-23.76316c6.56201,-6.56201 17.20114,-6.56201 23.76316,0c6.56201,6.56201 6.56201,17.20115 0,23.76316c-6.56201,6.56201 -17.20115,6.56201 -23.76316,0z" fill="#ffffff" stroke="none" stroke-width="0"/><path d="M152.22716,307.97445c-6.56201,-6.56201 -6.56201,-17.20114 0,-23.76316c6.56201,-6.56201 17.20114,-6.56201 23.76316,0c6.56201,6.56201 6.56201,17.20115 0,23.76316c-6.56201,6.56201 -17.20115,6.56201 -23.76316,0z" fill="#ffffff" stroke="none" stroke-width="0"/><path d="M179.80433,271.912c-6.56201,-6.56201 -6.56201,-17.20114 0,-23.76316c6.56201,-6.56201 17.20114,-6.56201 23.76316,0c6.56201,6.56201 6.56201,17.20115 0,23.76316c-6.56201,6.56201 -17.20115,6.56201 -23.76316,0z" fill="#ffffff" stroke="none" stroke-width="0"/><path d="M178.39011,300.19627c-6.56201,-6.56201 -6.56201,-17.20114 0,-23.76316c6.56201,-6.56201 17.20114,-6.56201 23.76316,0c6.56201,6.56201 6.56201,17.20115 0,23.76316c-6.56201,6.56201 -17.20115,6.56201 -23.76316,0z" fill="#ffffff" stroke="none" stroke-width="0"/><path d="M201.72464,283.93282c-6.56201,-6.56201 -6.56201,-17.20114 0,-23.76316c6.56201,-6.56201 17.20114,-6.56201 23.76316,0c6.56201,6.56201 6.56201,17.20115 0,23.76316c-6.56201,6.56201 -17.20115,6.56201 -23.76316,0z" fill="#ffffff" stroke="none" stroke-width="0"/><g><path d="M174.42997,262.64644c11.30665,5.87073 15.71334,19.79574 9.84262,31.10239c-5.87073,11.30665 -19.79574,15.71334 -31.10239,9.84262c-11.30665,-5.87073 -15.71334,-19.79574 -9.84262,-31.10239c5.87073,-11.30665 19.79574,-15.71334 31.10239,-9.84262z" fill="#ececec" stroke="none" stroke-width="0"/><path d="M155.96803,296.40011c0.72778,0.37788 0.93483,1.42172 0.46248,2.33144c-0.47235,0.90973 -1.44526,1.34087 -2.17304,0.96299c-0.72778,-0.37788 -0.93485,-1.42171 -0.4625,-2.33144c0.47235,-0.90973 1.44528,-1.34088 2.17305,-0.96299z" fill="#000000" stroke="none" stroke-width="0"/><path d="M174.76665,259.23617c10.37092,5.38487 14.41292,18.15748 9.02805,28.5284c-5.38487,10.37092 -18.15748,14.41292 -28.5284,9.02805c-10.37092,-5.38487 -14.41292,-18.15748 -9.02805,-28.5284c5.38487,-10.37092 18.15748,-14.41292 28.5284,-9.02805z" fill="#efefef" stroke="none" stroke-width="0"/><path d="M154.19045,282.33185c1.14366,0.59381 1.46904,2.23411 0.72676,3.66369c-0.74228,1.42957 -2.27113,2.10709 -3.41479,1.51328c-1.14366,-0.59381 -1.46904,-2.23411 -0.72676,-3.66369c0.74228,-1.42957 2.27113,-2.10709 3.41479,-1.51328z" fill="#000000" stroke="none" stroke-width="0"/><path d="M168.11393,290.03931c1.14366,0.59381 1.46904,2.23411 0.72676,3.66369c-0.74228,1.42957 -2.27113,2.10709 -3.41479,1.51328c-1.14366,-0.59381 -1.46904,-2.23411 -0.72676,-3.66369c0.74228,-1.42957 2.27113,-2.10709 3.41479,-1.51328z" fill="#000000" stroke="none" stroke-width="0"/><path d="M153.64263,300.61016c-2.26132,-1.17414 1.6165,-13.125 8.66136,-26.69298c7.04487,-13.56797 15.23387,-9.31602 8.189,4.25195c-7.04487,13.56797 -14.58903,23.61517 -16.85037,22.44102z" fill="#ffac29" stroke="none" stroke-width="0"/><path d="M181.72111,248.02878c12.32035,6.39707 17.51598,20.81198 11.60477,32.19659c-5.91121,11.38462 -20.69082,15.42784 -33.01116,9.03078c-12.32035,-6.39707 -17.51598,-20.81198 -11.60477,-32.19659c5.91121,-11.38462 20.69082,-15.42784 33.01116,-9.03078z" fill="#2480e2" stroke="none" stroke-width="0"/><path d="M179.41789,252.46464c9.66913,5.02048 13.74671,16.33345 9.10754,25.26821c-4.63917,8.93476 -16.23836,12.10792 -25.90749,7.08744c-9.66913,-5.02048 -13.74671,-16.33345 -9.10754,-25.26821c4.63917,-8.93476 16.23836,-12.10792 25.90749,-7.08744z" fill="#2074cc" stroke="#2480e2" stroke-width="1"/></g><g stroke="none" stroke-width="0"><g fill="#40a946"><path d="M213.72367,279.60697c-3.32025,-3.32025 -9.02466,-9.02466 -10.89802,-10.89802c-1.17486,-1.17486 -1.21206,-3.84559 -0.06022,-4.99743c1.99652,-1.99652 8.0808,-8.0808 11.25928,-11.25928c1.09813,-1.09813 3.78655,-0.54858 5.11786,0.78272c1.89966,1.89966 7.21831,7.21831 10.41634,10.41634c1.49663,1.49663 1.55213,3.50552 0.12042,4.93723c-3.20131,3.20131 -8.67761,8.67761 -10.59696,10.59696c-1.30944,1.30944 -3.89166,1.8885 -5.35869,0.42147z"/><path d="M223.85872,277.51895c-4.69554,0 -12.76279,0.00001 -15.41212,0.00001c-1.66152,0 -3.5763,-1.86219 -3.5763,-3.49115c0,-2.82351 0,-11.42798 0,-15.92303c0,-1.55299 2.2896,-3.06539 4.17235,-3.06539c2.68652,0 10.20822,-0.00001 14.73093,0c2.11655,0 3.5763,1.38124 3.5763,3.406c0,4.52734 0,12.27199 0,14.98638c0,1.85183 -1.41644,4.0872 -3.49114,4.08719z"/></g><g fill="#43b149"><path d="M211.73566,274.77023c-1.56391,-2.93825 -4.25081,-7.98638 -5.13321,-9.64421c-0.55339,-1.03969 -0.02587,-2.85811 0.99346,-3.40065c1.76683,-0.9404 7.15111,-3.80624 9.96391,-5.30336c0.97179,-0.51725 2.68076,0.41176 3.30785,1.58989c0.89478,1.68111 3.39998,6.38785 4.90632,9.21795c0.70495,1.32445 0.32681,2.69792 -0.94018,3.37229c-2.83301,1.50789 -7.67926,4.08734 -9.37779,4.99141c-1.15879,0.61678 -3.02934,0.47495 -3.72035,-0.82331z"/><path d="M219.03922,275.45218c-3.18351,-0.97181 -8.65301,-2.64144 -10.44921,-3.18976c-1.12648,-0.34387 -2.03927,-2.0027 -1.70215,-3.10711c0.58436,-1.9143 2.36519,-7.74801 3.29551,-10.79559c0.32142,-1.05292 2.18673,-1.60443 3.46321,-1.21477c1.82144,0.55601 6.92103,2.11274 9.98737,3.04877c1.435,0.43805 2.13881,1.67664 1.71975,3.04938c-0.93699,3.06947 -2.53986,8.32024 -3.10164,10.16056c-0.38326,1.25552 -1.80624,2.47791 -3.21285,2.04852z"/></g><g fill="#48bd4e"><path d="M215.08983,272.17636c-1.48277,-1.48277 -4.03028,-4.03028 -4.8669,-4.8669c-0.52468,-0.52468 -0.54128,-1.71739 -0.02688,-2.23178c0.89162,-0.89162 3.60877,-3.60877 5.02824,-5.02824c0.49041,-0.49041 1.69102,-0.24498 2.28556,0.34956c0.84837,0.84837 3.22359,3.22359 4.65179,4.65179c0.66837,0.66837 0.69316,1.56551 0.05378,2.20489c-1.42966,1.42966 -3.87529,3.87529 -4.73245,4.73245c-0.58478,0.58478 -1.73796,0.84337 -2.39312,0.18822z"/><path d="M219.61601,271.24389c-2.09695,0 -5.69968,0 -6.88284,0c-0.74201,0 -1.59712,-0.83162 -1.59712,-1.55909c0,-1.26094 0.00001,-5.10356 0.00001,-7.111c0,-0.69354 1.0225,-1.36897 1.8633,-1.36897c1.19976,0 4.55885,0.00001 6.57862,0c0.94523,0 1.59712,0.61684 1.59713,1.52107c0,2.02184 -0.00001,5.48049 0,6.69269c0,0.827 -0.63256,1.82528 -1.5591,1.82528z"/></g><g fill="#ffffff"><path d="M215.56054,269.61618c-0.84968,-0.84968 -2.3095,-2.3095 -2.78891,-2.78891c-0.30065,-0.30065 -0.31018,-0.98412 -0.01541,-1.27889c0.51093,-0.51093 2.06796,-2.06796 2.88136,-2.88136c0.28103,-0.28103 0.96901,-0.14038 1.30971,0.20032c0.48614,0.48614 1.84724,1.84724 2.66565,2.66565c0.383,0.383 0.39721,0.89709 0.03082,1.26349c-0.81925,0.81925 -2.22068,2.22068 -2.71187,2.71187c-0.3351,0.3351 -0.99592,0.48328 -1.37134,0.10785z"/><path d="M218.1542,269.08184c-1.20163,0 -3.26613,0 -3.94411,0c-0.4252,0 -0.91521,-0.47655 -0.91521,-0.89342c0,-0.72256 -0.00001,-2.92453 0,-4.07486c0,-0.39742 0.58592,-0.78446 1.06775,-0.78446c0.68752,0 2.61238,-0.00001 3.76979,-0.00001c0.54164,0 0.91522,0.35348 0.91522,0.87163c0,1.15859 -0.00001,3.14052 0,3.83516c0,0.4739 -0.36248,1.04595 -0.89342,1.04595z"/></g></g><path d="M381.92844,335.1119c-8.79166,0 -15.91872,-7.12706 -15.91872,-15.91872c0,-8.79166 7.12706,-15.91872 15.91872,-15.91872c8.79166,0 15.91872,7.12706 15.91872,15.91872c0,8.79166 -7.12706,15.91872 -15.91872,15.91872z" data-paper-data="{&quot;index&quot;:null}" fill="#ffffff" stroke="none" stroke-width="0"/><g stroke="none" stroke-width="0"><g fill="#40a946"><path d="M388.75615,317.94606c0,4.69554 0,12.76279 0,15.41213c0,1.6615 -1.86219,3.5763 -3.49114,3.5763c-2.82351,0 -11.42798,0 -15.92302,0c-1.553,0 -3.06539,-2.28959 -3.06539,-4.17234c0,-2.68653 0,-10.20823 0,-14.73093c0,-2.11656 1.38124,-3.5763 3.40599,-3.5763c4.52734,0 12.27199,0 14.98638,0c1.85183,0 4.08719,1.41645 4.08719,3.49114z"/><path d="M380.11314,312.25595c3.32025,3.32025 9.02467,9.02465 10.89803,10.89801c1.17487,1.17487 1.21205,3.84559 0.0602,4.99743c-1.99652,1.99653 -8.08079,8.08081 -11.25928,11.25929c-1.09813,1.09813 -3.78655,0.54857 -5.11785,-0.78274c-1.89966,-1.89967 -7.21831,-7.2183 -10.41635,-10.41634c-1.49663,-1.49663 -1.55213,-3.50551 -0.12042,-4.93723c3.20131,-3.20132 8.67761,-8.67761 10.59697,-10.59697c1.30945,-1.30944 3.89165,-1.88851 5.35869,-0.42147z"/></g><g fill="#43b149"><path d="M386.74181,322.77189c-0.97181,3.18351 -2.64144,8.653 -3.18976,10.44921c-0.34387,1.12648 -2.0027,2.03928 -3.10711,1.70214c-1.91431,-0.58436 -7.74801,-2.36518 -10.79559,-3.2955c-1.05291,-0.32141 -1.60443,-2.18674 -1.21478,-3.46322c0.55602,-1.82143 2.11274,-6.92103 3.04878,-9.98737c0.43805,-1.435 1.67663,-2.13882 3.04938,-1.71976c3.06948,0.937 8.32024,2.53987 10.16056,3.10165c1.25552,0.38326 2.47791,1.80623 2.04852,3.21284z"/><path d="M382.05962,317.12528c1.56391,2.93826 4.25081,7.98638 5.13321,9.6442c0.55339,1.03969 0.02587,2.85811 -0.99346,3.40066c-1.76683,0.94041 -7.15111,3.80622 -9.96391,5.30336c-0.97179,0.51725 -2.68076,-0.41174 -3.30784,-1.58988c-0.89479,-1.68111 -3.39998,-6.38784 -4.90632,-9.21794c-0.70495,-1.32444 -0.32681,-2.69793 0.94019,-3.3723c2.83301,-1.50788 7.67925,-4.08735 9.37779,-4.99141c1.15879,-0.61678 3.02935,-0.47494 3.72035,0.82331z"/></g><g fill="#48bd4e"><path d="M382.5359,322.23426c0,2.09695 0,5.69968 0,6.88283c0,0.74201 -0.83163,1.59712 -1.5591,1.59712c-1.26094,0 -5.10358,0 -7.111,0c-0.69355,0 -1.36896,-1.0225 -1.36896,-1.8633c0,-1.19977 0,-4.55885 0,-6.57863c0,-0.94522 0.61684,-1.59712 1.52107,-1.59712c2.02185,0 5.48049,0 6.6927,0c0.82701,0 1.82529,0.63257 1.82529,1.5591z"/><path d="M378.67605,319.69314c1.48277,1.48277 4.03028,4.03028 4.8669,4.8669c0.52468,0.52468 0.54129,1.71739 0.02689,2.23178c-0.89162,0.89162 -3.60877,3.60877 -5.02823,5.02823c-0.49042,0.49041 -1.69102,0.24498 -2.28556,-0.34956c-0.84836,-0.84836 -3.2236,-3.22359 -4.65179,-4.65179c-0.66837,-0.66838 -0.69316,-1.56551 -0.05378,-2.20489c1.42966,-1.42966 3.8753,-3.87529 4.73245,-4.73246c0.58478,-0.58478 1.73796,-0.84337 2.39311,-0.18822z"/></g><g fill="#ffffff"><path d="M380.39275,323.71176c0,1.20164 0,3.26612 0,3.94412c0,0.42519 -0.47655,0.91521 -0.89342,0.91521c-0.72257,0 -2.92454,0 -4.07486,0c-0.39742,0 -0.78447,-0.58593 -0.78447,-1.06775c0,-0.68751 0,-2.61239 0,-3.7698c0,-0.54165 0.35348,-0.91521 0.87163,-0.91521c1.15859,0 3.14052,0 3.83516,0c0.4739,0 1.04595,0.36249 1.04595,0.89342z"/><path d="M378.18091,322.25559c0.84968,0.84968 2.3095,2.3095 2.78891,2.78891c0.30067,0.30066 0.31018,0.98412 0.01541,1.27889c-0.51093,0.51093 -2.06795,2.06796 -2.88136,2.88137c-0.28102,0.28102 -0.96901,0.14038 -1.30971,-0.20031c-0.48614,-0.48615 -1.84723,-1.84724 -2.66564,-2.66564c-0.383,-0.383 -0.39721,-0.89709 -0.03082,-1.26349c0.81925,-0.81925 2.22069,-2.22068 2.71187,-2.71187c0.3351,-0.3351 0.99591,-0.48328 1.37134,-0.10785z"/></g></g><path d="M161.68406,157.96985c-8.79166,0 -15.91872,-7.12706 -15.91872,-15.91872c0,-8.79166 7.12706,-15.91872 15.91872,-15.91872c8.79166,0 15.91872,7.12706 15.91872,15.91872c0,8.79166 -7.12706,15.91872 -15.91872,15.91872z" data-paper-data="{&quot;index&quot;:null}" fill="#ffffff" stroke="none" stroke-width="0"/><g stroke="none" stroke-width="0"><g fill="#40a946"><path d="M168.51177,140.80401c0,4.69554 0,12.76279 0,15.41213c0,1.6615 -1.86219,3.5763 -3.49114,3.5763c-2.82351,0 -11.42798,0 -15.92302,0c-1.553,0 -3.06539,-2.28959 -3.06539,-4.17234c0,-2.68653 0,-10.20823 0,-14.73093c0,-2.11656 1.38124,-3.5763 3.40599,-3.5763c4.52734,0 12.27199,0 14.98638,0c1.85183,0 4.08719,1.41645 4.08719,3.49114z"/><path d="M159.86876,135.1139c3.32025,3.32025 9.02467,9.02465 10.89803,10.89801c1.17487,1.17487 1.21205,3.84559 0.0602,4.99743c-1.99652,1.99653 -8.08079,8.08081 -11.25928,11.25929c-1.09813,1.09813 -3.78655,0.54857 -5.11785,-0.78274c-1.89966,-1.89967 -7.21831,-7.2183 -10.41635,-10.41634c-1.49663,-1.49663 -1.55213,-3.50551 -0.12042,-4.93723c3.20131,-3.20132 8.67761,-8.67761 10.59697,-10.59697c1.30945,-1.30944 3.89165,-1.88851 5.35869,-0.42147z"/></g><g fill="#43b149"><path d="M166.49743,145.62984c-0.97181,3.18351 -2.64144,8.653 -3.18976,10.44921c-0.34387,1.12648 -2.0027,2.03928 -3.10711,1.70214c-1.91431,-0.58436 -7.74801,-2.36518 -10.79559,-3.2955c-1.05291,-0.32141 -1.60443,-2.18674 -1.21478,-3.46322c0.55602,-1.82143 2.11274,-6.92103 3.04878,-9.98737c0.43805,-1.435 1.67663,-2.13882 3.04938,-1.71976c3.06948,0.937 8.32024,2.53987 10.16056,3.10165c1.25552,0.38326 2.47791,1.80623 2.04852,3.21284z"/><path d="M161.81524,139.98323c1.56391,2.93826 4.25081,7.98638 5.13321,9.6442c0.55339,1.03969 0.02587,2.85811 -0.99346,3.40066c-1.76683,0.94041 -7.15111,3.80622 -9.96391,5.30336c-0.97179,0.51725 -2.68076,-0.41174 -3.30784,-1.58988c-0.89479,-1.68111 -3.39998,-6.38784 -4.90632,-9.21794c-0.70495,-1.32444 -0.32681,-2.69793 0.94019,-3.3723c2.83301,-1.50788 7.67925,-4.08735 9.37779,-4.99141c1.15879,-0.61678 3.02935,-0.47494 3.72035,0.82331z"/></g><g fill="#48bd4e"><path d="M162.29152,145.09221c0,2.09695 0,5.69968 0,6.88283c0,0.74201 -0.83163,1.59712 -1.5591,1.59712c-1.26094,0 -5.10358,0 -7.111,0c-0.69355,0 -1.36896,-1.0225 -1.36896,-1.8633c0,-1.19977 0,-4.55885 0,-6.57863c0,-0.94522 0.61684,-1.59712 1.52107,-1.59712c2.02185,0 5.48049,0 6.6927,0c0.82701,0 1.82529,0.63257 1.82529,1.5591z"/><path d="M158.43167,142.55109c1.48277,1.48277 4.03028,4.03028 4.8669,4.8669c0.52468,0.52468 0.54129,1.71739 0.02689,2.23178c-0.89162,0.89162 -3.60877,3.60877 -5.02823,5.02823c-0.49042,0.49041 -1.69102,0.24498 -2.28556,-0.34956c-0.84836,-0.84836 -3.2236,-3.22359 -4.65179,-4.65179c-0.66837,-0.66838 -0.69316,-1.56551 -0.05378,-2.20489c1.42966,-1.42966 3.8753,-3.87529 4.73245,-4.73246c0.58478,-0.58478 1.73796,-0.84337 2.39311,-0.18822z"/></g><g fill="#ffffff"><path d="M160.14837,146.56971c0,1.20164 0,3.26612 0,3.94412c0,0.42519 -0.47655,0.91521 -0.89342,0.91521c-0.72257,0 -2.92454,0 -4.07486,0c-0.39742,0 -0.78447,-0.58593 -0.78447,-1.06775c0,-0.68751 0,-2.61239 0,-3.7698c0,-0.54165 0.35348,-0.91521 0.87163,-0.91521c1.15859,0 3.14052,0 3.83516,0c0.4739,0 1.04595,0.36249 1.04595,0.89342z"/><path d="M157.93653,145.11354c0.84968,0.84968 2.3095,2.3095 2.78891,2.78891c0.30067,0.30066 0.31018,0.98412 0.01541,1.27889c-0.51093,0.51093 -2.06795,2.06796 -2.88136,2.88137c-0.28102,0.28102 -0.96901,0.14038 -1.30971,-0.20031c-0.48614,-0.48615 -1.84723,-1.84724 -2.66564,-2.66564c-0.383,-0.383 -0.39721,-0.89709 -0.03082,-1.26349c0.81925,-0.81925 2.22069,-2.22068 2.71187,-2.71187c0.3351,-0.3351 0.99591,-0.48328 1.37134,-0.10785z"/></g></g><path d="M150.10872,177.87334c6.21664,6.21664 6.21664,16.29583 0,22.51247c-6.21664,6.21664 -16.29583,6.21664 -22.51247,0c-6.21664,-6.21664 -6.21664,-16.29583 0,-22.51247c6.21664,-6.21664 16.29583,-6.21664 22.51247,0z" data-paper-data="{&quot;index&quot;:null}" fill="#ffffff" stroke="none" stroke-width="0"/><g stroke="none" stroke-width="0"><g fill="#40a946"><path d="M133.14272,185.1835c3.32025,-3.32025 9.02466,-9.02466 10.89802,-10.89802c1.17486,-1.17486 3.84559,-1.21206 4.99743,-0.06022c1.99652,1.99652 8.0808,8.0808 11.25928,11.25928c1.09814,1.09814 0.54857,3.78654 -0.78273,5.11785c-1.89966,1.89966 -7.21831,7.21831 -10.41634,10.41634c-1.49663,1.49663 -3.50551,1.55214 -4.93722,0.12043c-3.20131,-3.20131 -8.67761,-8.67761 -10.59697,-10.59697c-1.30944,-1.30944 -1.8885,-3.89166 -0.42147,-5.35869z"/><path d="M135.23073,195.31854c0,-4.69554 -0.00001,-12.7628 -0.00001,-15.41213c0,-1.66152 1.86219,-3.57629 3.49115,-3.57628c2.82351,-0.00001 11.42798,-0.00001 15.92303,-0.00001c1.55299,0 3.06539,2.2896 3.06539,4.17235c-0.00001,2.68653 0.00001,10.20822 0.00001,14.73094c0,2.11655 -1.38125,3.57629 -3.406,3.5763c-4.52734,0.00001 -12.27199,0 -14.98638,0c-1.85183,-0.00001 -4.08719,-1.41643 -4.08719,-3.49114z"/></g><g fill="#43b149"><path d="M137.97945,183.19547c2.93825,-1.56391 7.98638,-4.25081 9.64421,-5.13321c1.03969,-0.55339 2.85811,-0.02587 3.40065,0.99346c0.94042,1.76683 3.80624,7.15111 5.30336,9.96391c0.51725,0.97179 -0.41176,2.68076 -1.58989,3.30785c-1.68111,0.89478 -6.38784,3.39997 -9.21795,4.90632c-1.32445,0.70495 -2.69793,0.32682 -3.37229,-0.94018c-1.50789,-2.83301 -4.08734,-7.67926 -4.9914,-9.3778c-0.61678,-1.15879 -0.47495,-3.02934 0.8233,-3.72034z"/><path d="M137.2975,190.49904c0.97181,-3.18351 2.64145,-8.653 3.18975,-10.44921c0.34387,-1.12648 2.0027,-2.03928 3.10711,-1.70215c1.91431,0.58437 7.748,2.36519 10.79559,3.29551c1.05291,0.32141 1.60444,2.18673 1.21478,3.46321c-0.55601,1.82144 -2.11274,6.92103 -3.04878,9.98736c-0.43805,1.435 -1.67664,2.13881 -3.04939,1.71976c-3.06947,-0.93701 -8.32024,-2.53986 -10.16056,-3.10164c-1.25552,-0.38326 -2.47791,-1.80624 -2.04852,-3.21285z"/></g><g fill="#48bd4e"><path d="M140.57332,186.54966c1.48277,-1.48277 4.03028,-4.03028 4.8669,-4.8669c0.52468,-0.52468 1.71739,-0.54128 2.23178,-0.02688c0.89162,0.89162 3.60878,3.60878 5.02824,5.02824c0.49041,0.49041 0.24498,1.69102 -0.34955,2.28555c-0.84837,0.84837 -3.22359,3.22359 -4.65179,4.65179c-0.66837,0.66837 -1.56551,0.69316 -2.20489,0.05378c-1.42966,-1.42966 -3.87529,-3.87529 -4.73245,-4.73245c-0.58478,-0.58478 -0.84338,-1.73797 -0.18822,-2.39313z"/><path d="M141.5058,191.07583c0,-2.09695 0,-5.69968 0,-6.88284c0,-0.74201 0.83163,-1.59713 1.55909,-1.59712c1.26094,0 5.10357,0 7.11099,0c0.69355,0.00001 1.36896,1.0225 1.36896,1.86331c0,1.19976 0.00001,4.55885 0,6.57862c-0.00001,0.94522 -0.61684,1.59712 -1.52106,1.59712c-2.02184,0 -5.48049,-0.00001 -6.6927,0.00001c-0.827,0 -1.82528,-0.63257 -1.82528,-1.55909z"/></g><g fill="#ffffff"><path d="M143.1335,187.02035c0.84969,-0.84969 2.3095,-2.3095 2.78891,-2.78891c0.30065,-0.30065 0.98412,-0.31018 1.27889,-0.01541c0.51093,0.51093 2.06796,2.06796 2.88136,2.88136c0.28102,0.28102 0.14039,0.96902 -0.20031,1.30972c-0.48614,0.48614 -1.84724,1.84724 -2.66565,2.66565c-0.383,0.383 -0.8971,0.3972 -1.26349,0.03082c-0.81925,-0.81925 -2.22068,-2.22068 -2.71187,-2.71187c-0.3351,-0.3351 -0.48328,-0.99592 -0.10785,-1.37134z"/><path d="M143.66784,189.61402c0,-1.20163 0,-3.26613 0,-3.94411c-0.00001,-0.4252 0.47655,-0.91521 0.89342,-0.91521c0.72256,0 2.92453,-0.00001 4.07487,-0.00001c0.39742,0 0.78446,0.58593 0.78446,1.06775c-0.00001,0.68751 -0.00001,2.61238 0,3.76978c0,0.54164 -0.35347,0.91521 -0.87163,0.91522c-1.15859,0 -3.14052,-0.00001 -3.83516,0c-0.4739,0 -1.04595,-0.36248 -1.04595,-0.89342z"/></g></g><g stroke="none" stroke-width="0"><g fill="#40a946"><path d="M47.50419,196.62688c0,-3.32609 0,-9.04053 0,-10.9172c0,-1.17692 1.31908,-2.53328 2.47295,-2.53328c2.00004,0 8.09502,0 11.27908,0c1.10007,0 2.17137,1.62183 2.17137,2.95548c0,1.90301 0,7.23101 0,10.43467c0,1.49927 -0.9784,2.53328 -2.41264,2.53328c-3.20695,0 -8.69287,0 -10.61561,0c-1.31175,0 -2.89516,-1.00334 -2.89516,-2.47295z"/><path d="M53.62648,200.65747c-2.3519,-2.3519 -6.39263,-6.39262 -7.71963,-7.71961c-0.83222,-0.83222 -0.85856,-2.72403 -0.04264,-3.53993c1.41424,-1.41424 5.72403,-5.72405 7.97552,-7.97553c0.77786,-0.77786 2.68221,-0.38858 3.62523,0.55445c1.34563,1.34563 5.1131,5.11309 7.37843,7.37842c1.06014,1.06014 1.09945,2.48313 0.0853,3.49729c-2.26765,2.26766 -6.14679,6.14679 -7.50637,7.50637c-0.92755,0.92754 -2.75665,1.33773 -3.79583,0.29855z"/></g><g fill="#43b149"><path d="M48.93105,193.20849c0.68838,-2.25504 1.87107,-6.12936 2.25947,-7.40171c0.24358,-0.79794 1.41861,-1.44453 2.20092,-1.20571c1.356,0.41393 5.48831,1.67538 7.64707,2.33437c0.74583,0.22767 1.1365,1.54898 0.86049,2.45317c-0.39386,1.29021 -1.49656,4.90252 -2.15961,7.07456c-0.31029,1.01648 -1.18764,1.51503 -2.16003,1.21819c-2.17427,-0.66372 -5.89365,-1.79912 -7.19724,-2.19706c-0.88935,-0.27148 -1.75523,-1.27944 -1.45107,-2.27582z"/><path d="M52.24769,197.20827c-1.1078,-2.08132 -3.01106,-5.65716 -3.63611,-6.83148c-0.39199,-0.73647 -0.01833,-2.02454 0.70372,-2.40886c1.25154,-0.66614 5.06549,-2.69614 7.05794,-3.75664c0.68837,-0.36639 1.89892,0.29166 2.34311,1.12619c0.63383,1.19082 2.40838,4.52483 3.4754,6.52954c0.49935,0.93817 0.2315,1.91108 -0.66598,2.38877c-2.00676,1.06811 -5.4396,2.89528 -6.64277,3.53567c-0.82083,0.4369 -2.14584,0.33642 -2.63531,-0.58319z"/></g><g fill="#48bd4e"><path d="M51.91031,193.58932c0,-1.48538 0,-4.03737 0,-4.87546c0,-0.5256 0.58909,-1.13132 1.10439,-1.13132c0.89319,0 3.61513,0 5.03708,0c0.49128,0 0.9697,0.72429 0.9697,1.31987c0,0.84986 0,3.22927 0,4.65998c0,0.66955 -0.43694,1.13132 -1.07745,1.13132c-1.43218,0 -3.88211,0 -4.74078,0c-0.58581,0 -1.29295,-0.44808 -1.29295,-1.10439z"/><path d="M54.64444,195.38933c-1.05032,-1.05032 -2.85485,-2.85485 -3.44747,-3.44747c-0.37166,-0.37166 -0.38342,-1.21651 -0.01905,-1.58088c0.63158,-0.63158 2.55628,-2.55628 3.56175,-3.56175c0.34739,-0.34738 1.19784,-0.17353 1.61898,0.24761c0.60094,0.60094 2.28344,2.28343 3.2951,3.2951c0.47344,0.47345 0.491,1.10893 0.0381,1.56184c-1.0127,1.0127 -2.74507,2.74506 -3.35223,3.35224c-0.41423,0.41423 -1.23109,0.5974 -1.69516,0.13333z"/></g><g fill="#ffffff"><path d="M53.42841,192.54274c0,-0.85118 0,-2.31356 0,-2.79382c0,-0.30118 0.33756,-0.64829 0.63285,-0.64829c0.51183,0 2.0716,0 2.88643,0c0.28151,0 0.55568,0.41504 0.55568,0.75634c0,0.487 0,1.85049 0,2.67034c0,0.38368 -0.25039,0.64829 -0.61742,0.64829c-0.82069,0 -2.22459,0 -2.71664,0c-0.33569,0 -0.7409,-0.25677 -0.7409,-0.63285z"/><path d="M54.99517,193.57422c-0.60187,-0.60187 -1.63594,-1.63594 -1.97553,-1.97553c-0.21298,-0.21297 -0.21972,-0.6971 -0.01092,-0.9059c0.36192,-0.36192 1.46483,-1.46484 2.04101,-2.04102c0.19906,-0.19906 0.6864,-0.09944 0.92773,0.14189c0.34436,0.34436 1.30849,1.30849 1.88821,1.88821c0.2713,0.2713 0.28136,0.63545 0.02183,0.89499c-0.58032,0.58032 -1.57303,1.57302 -1.92096,1.92096c-0.23737,0.23737 -0.70545,0.34233 -0.97139,0.0764z"/></g></g><g stroke="none" stroke-width="0"><path d="M47.31785,126.86454c4.58769,4.58769 4.58769,12.02582 0,16.61351c-4.58769,4.58769 -12.02582,4.58769 -16.61351,0c-4.58769,-4.58769 -4.58769,-12.02582 0,-16.61351c4.58769,-4.58769 12.02582,-4.58769 16.61351,0z" data-paper-data="{&quot;index&quot;:null}" fill="#ffffff"/><g><g fill="#40a946"><path d="M31.64823,140.4494c0,-3.32609 0,-9.04053 0,-10.9172c0,-1.17692 1.31908,-2.53328 2.47295,-2.53328c2.00004,0 8.09502,0 11.27908,0c1.10007,0 2.17137,1.62183 2.17137,2.95548c0,1.90301 0,7.23101 0,10.43467c0,1.49927 -0.9784,2.53328 -2.41264,2.53328c-3.20695,0 -8.69287,0 -10.61561,0c-1.31175,0 -2.89516,-1.00334 -2.89516,-2.47295z"/><path d="M37.77052,144.47999c-2.3519,-2.3519 -6.39263,-6.39262 -7.71963,-7.71961c-0.83222,-0.83222 -0.85856,-2.72403 -0.04264,-3.53993c1.41424,-1.41424 5.72403,-5.72405 7.97552,-7.97553c0.77786,-0.77786 2.68221,-0.38858 3.62523,0.55445c1.34563,1.34563 5.1131,5.11309 7.37843,7.37842c1.06014,1.06014 1.09945,2.48313 0.0853,3.49729c-2.26765,2.26766 -6.14679,6.14679 -7.50637,7.50637c-0.92755,0.92754 -2.75665,1.33773 -3.79583,0.29855z"/></g><g fill="#43b149"><path d="M33.07509,137.03101c0.68838,-2.25504 1.87107,-6.12936 2.25947,-7.40171c0.24358,-0.79794 1.41861,-1.44453 2.20092,-1.20571c1.356,0.41393 5.48831,1.67538 7.64707,2.33437c0.74583,0.22767 1.1365,1.54898 0.86049,2.45317c-0.39386,1.29021 -1.49656,4.90252 -2.15961,7.07456c-0.31029,1.01648 -1.18764,1.51503 -2.16003,1.21819c-2.17427,-0.66372 -5.89365,-1.79912 -7.19724,-2.19706c-0.88935,-0.27148 -1.75523,-1.27944 -1.45107,-2.27582z"/><path d="M36.39173,141.03079c-1.1078,-2.08132 -3.01106,-5.65716 -3.63611,-6.83148c-0.39199,-0.73647 -0.01833,-2.02454 0.70372,-2.40886c1.25154,-0.66614 5.06549,-2.69614 7.05794,-3.75664c0.68837,-0.36639 1.89892,0.29166 2.34311,1.12619c0.63383,1.19082 2.40838,4.52483 3.4754,6.52954c0.49935,0.93817 0.2315,1.91108 -0.66598,2.38877c-2.00676,1.06811 -5.4396,2.89528 -6.64277,3.53567c-0.82083,0.4369 -2.14584,0.33642 -2.63531,-0.58319z"/></g><g fill="#48bd4e"><path d="M36.05435,137.41184c0,-1.48538 0,-4.03737 0,-4.87546c0,-0.5256 0.58909,-1.13132 1.10439,-1.13132c0.89319,0 3.61513,0 5.03708,0c0.49128,0 0.9697,0.72429 0.9697,1.31987c0,0.84986 0,3.22927 0,4.65998c0,0.66955 -0.43694,1.13132 -1.07745,1.13132c-1.43218,0 -3.88211,0 -4.74078,0c-0.58581,0 -1.29295,-0.44808 -1.29295,-1.10439z"/><path d="M38.78848,139.21185c-1.05032,-1.05032 -2.85485,-2.85485 -3.44747,-3.44747c-0.37166,-0.37166 -0.38342,-1.21651 -0.01905,-1.58088c0.63158,-0.63158 2.55628,-2.55628 3.56175,-3.56175c0.34739,-0.34738 1.19784,-0.17353 1.61898,0.24761c0.60094,0.60094 2.28344,2.28343 3.2951,3.2951c0.47344,0.47345 0.491,1.10893 0.0381,1.56184c-1.0127,1.0127 -2.74507,2.74506 -3.35223,3.35224c-0.41423,0.41423 -1.23109,0.5974 -1.69516,0.13333z"/></g><g fill="#ffffff"><path d="M37.57245,136.36526c0,-0.85118 0,-2.31356 0,-2.79382c0,-0.30118 0.33756,-0.64829 0.63285,-0.64829c0.51183,0 2.0716,0 2.88643,0c0.28151,0 0.55568,0.41504 0.55568,0.75634c0,0.487 0,1.85049 0,2.67034c0,0.38368 -0.25039,0.64829 -0.61742,0.64829c-0.82069,0 -2.22459,0 -2.71664,0c-0.33569,0 -0.7409,-0.25677 -0.7409,-0.63285z"/><path d="M39.13921,137.39674c-0.60187,-0.60187 -1.63594,-1.63594 -1.97553,-1.97553c-0.21298,-0.21297 -0.21972,-0.6971 -0.01092,-0.9059c0.36192,-0.36192 1.46483,-1.46484 2.04101,-2.04102c0.19906,-0.19906 0.6864,-0.09944 0.92773,0.14189c0.34436,0.34436 1.30849,1.30849 1.88821,1.88821c0.2713,0.2713 0.28136,0.63545 0.02183,0.89499c-0.58032,0.58032 -1.57303,1.57302 -1.92096,1.92096c-0.23737,0.23737 -0.70545,0.34233 -0.97139,0.0764z"/></g></g></g><g stroke="none" stroke-width="0"><path d="M53.70825,69.29665c4.58769,4.58769 4.58769,12.02582 0,16.61351c-4.58769,4.58769 -12.02582,4.58769 -16.61351,0c-4.58769,-4.58769 -4.58769,-12.02582 0,-16.61351c4.58769,-4.58769 12.02582,-4.58769 16.61351,0z" data-paper-data="{&quot;index&quot;:null}" fill="#ffffff"/><g><g fill="#40a946"><path d="M38.03863,82.88151c0,-3.32609 0,-9.04053 0,-10.9172c0,-1.17692 1.31908,-2.53328 2.47295,-2.53328c2.00004,0 8.09502,0 11.27908,0c1.10007,0 2.17137,1.62183 2.17137,2.95548c0,1.90301 0,7.23101 0,10.43467c0,1.49927 -0.9784,2.53328 -2.41264,2.53328c-3.20695,0 -8.69287,0 -10.61561,0c-1.31175,0 -2.89516,-1.00334 -2.89516,-2.47295z"/><path d="M44.16092,86.9121c-2.3519,-2.3519 -6.39263,-6.39262 -7.71963,-7.71961c-0.83222,-0.83222 -0.85856,-2.72403 -0.04264,-3.53993c1.41424,-1.41424 5.72403,-5.72405 7.97552,-7.97553c0.77786,-0.77786 2.68221,-0.38858 3.62523,0.55445c1.34563,1.34563 5.1131,5.11309 7.37843,7.37842c1.06014,1.06014 1.09945,2.48313 0.0853,3.49729c-2.26765,2.26766 -6.14679,6.14679 -7.50637,7.50637c-0.92755,0.92754 -2.75665,1.33773 -3.79583,0.29855z"/></g><g fill="#43b149"><path d="M39.46549,79.46312c0.68838,-2.25504 1.87107,-6.12936 2.25947,-7.40171c0.24358,-0.79794 1.41861,-1.44453 2.20092,-1.20571c1.356,0.41393 5.48831,1.67538 7.64707,2.33437c0.74583,0.22767 1.1365,1.54898 0.86049,2.45317c-0.39386,1.29021 -1.49656,4.90252 -2.15961,7.07456c-0.31029,1.01648 -1.18764,1.51503 -2.16003,1.21819c-2.17427,-0.66372 -5.89365,-1.79912 -7.19724,-2.19706c-0.88935,-0.27148 -1.75523,-1.27944 -1.45107,-2.27582z"/><path d="M42.78213,83.4629c-1.1078,-2.08132 -3.01106,-5.65716 -3.63611,-6.83148c-0.39199,-0.73647 -0.01833,-2.02454 0.70372,-2.40886c1.25154,-0.66614 5.06549,-2.69614 7.05794,-3.75664c0.68837,-0.36639 1.89892,0.29166 2.34311,1.12619c0.63383,1.19082 2.40838,4.52483 3.4754,6.52954c0.49935,0.93817 0.2315,1.91108 -0.66598,2.38877c-2.00676,1.06811 -5.4396,2.89528 -6.64277,3.53567c-0.82083,0.4369 -2.14584,0.33642 -2.63531,-0.58319z"/></g><g fill="#48bd4e"><path d="M42.44475,79.84395c0,-1.48538 0,-4.03737 0,-4.87546c0,-0.5256 0.58909,-1.13132 1.10439,-1.13132c0.89319,0 3.61513,0 5.03708,0c0.49128,0 0.9697,0.72429 0.9697,1.31987c0,0.84986 0,3.22927 0,4.65998c0,0.66955 -0.43694,1.13132 -1.07745,1.13132c-1.43218,0 -3.88211,0 -4.74078,0c-0.58581,0 -1.29295,-0.44808 -1.29295,-1.10439z"/><path d="M45.17888,81.64396c-1.05032,-1.05032 -2.85485,-2.85485 -3.44747,-3.44747c-0.37166,-0.37166 -0.38342,-1.21651 -0.01905,-1.58088c0.63158,-0.63158 2.55628,-2.55628 3.56175,-3.56175c0.34739,-0.34738 1.19784,-0.17353 1.61898,0.24761c0.60094,0.60094 2.28344,2.28343 3.2951,3.2951c0.47344,0.47345 0.491,1.10893 0.0381,1.56184c-1.0127,1.0127 -2.74507,2.74506 -3.35223,3.35224c-0.41423,0.41423 -1.23109,0.5974 -1.69516,0.13333z"/></g><g fill="#ffffff"><path d="M43.96285,78.79737c0,-0.85118 0,-2.31356 0,-2.79382c0,-0.30118 0.33756,-0.64829 0.63285,-0.64829c0.51183,0 2.0716,0 2.88643,0c0.28151,0 0.55568,0.41504 0.55568,0.75634c0,0.487 0,1.85049 0,2.67034c0,0.38368 -0.25039,0.64829 -0.61742,0.64829c-0.82069,0 -2.22459,0 -2.71664,0c-0.33569,0 -0.7409,-0.25677 -0.7409,-0.63285z"/><path d="M45.52961,79.82885c-0.60187,-0.60187 -1.63594,-1.63594 -1.97553,-1.97553c-0.21298,-0.21297 -0.21972,-0.6971 -0.01092,-0.9059c0.36192,-0.36192 1.46483,-1.46484 2.04101,-2.04102c0.19906,-0.19906 0.6864,-0.09944 0.92773,0.14189c0.34436,0.34436 1.30849,1.30849 1.88821,1.88821c0.2713,0.2713 0.28136,0.63545 0.02183,0.89499c-0.58032,0.58032 -1.57303,1.57302 -1.92096,1.92096c-0.23737,0.23737 -0.70545,0.34233 -0.97139,0.0764z"/></g></g></g><g stroke="none" stroke-width="0"><path d="M99.02977,32.58473c4.58769,4.58769 4.58769,12.02582 0,16.61351c-4.58769,4.58769 -12.02582,4.58769 -16.61351,0c-4.58769,-4.58769 -4.58769,-12.02582 0,-16.61351c4.58769,-4.58769 12.02582,-4.58769 16.61351,0z" data-paper-data="{&quot;index&quot;:null}" fill="#ffffff"/><g><g fill="#40a946"><path d="M83.36015,46.16959c0,-3.32609 0,-9.04053 0,-10.9172c0,-1.17692 1.31908,-2.53328 2.47295,-2.53328c2.00004,0 8.09502,0 11.27908,0c1.10007,0 2.17137,1.62183 2.17137,2.95548c0,1.90301 0,7.23101 0,10.43467c0,1.49927 -0.9784,2.53328 -2.41264,2.53328c-3.20695,0 -8.69287,0 -10.61561,0c-1.31175,0 -2.89516,-1.00334 -2.89516,-2.47295z"/><path d="M89.48244,50.20018c-2.3519,-2.3519 -6.39263,-6.39262 -7.71963,-7.71961c-0.83222,-0.83222 -0.85856,-2.72403 -0.04264,-3.53993c1.41424,-1.41424 5.72403,-5.72405 7.97552,-7.97553c0.77786,-0.77786 2.68221,-0.38858 3.62523,0.55445c1.34563,1.34563 5.1131,5.11309 7.37843,7.37842c1.06014,1.06014 1.09945,2.48313 0.0853,3.49729c-2.26765,2.26766 -6.14679,6.14679 -7.50637,7.50637c-0.92755,0.92754 -2.75665,1.33773 -3.79583,0.29855z"/></g><g fill="#43b149"><path d="M84.78701,42.7512c0.68838,-2.25504 1.87107,-6.12936 2.25947,-7.40171c0.24358,-0.79794 1.41861,-1.44453 2.20092,-1.20571c1.356,0.41393 5.48831,1.67538 7.64707,2.33437c0.74583,0.22767 1.1365,1.54898 0.86049,2.45317c-0.39386,1.29021 -1.49656,4.90252 -2.15961,7.07456c-0.31029,1.01648 -1.18764,1.51503 -2.16003,1.21819c-2.17427,-0.66372 -5.89365,-1.79912 -7.19724,-2.19706c-0.88935,-0.27148 -1.75523,-1.27944 -1.45107,-2.27582z"/><path d="M88.10365,46.75098c-1.1078,-2.08132 -3.01106,-5.65716 -3.63611,-6.83148c-0.39199,-0.73647 -0.01833,-2.02454 0.70372,-2.40886c1.25154,-0.66614 5.06549,-2.69614 7.05794,-3.75664c0.68837,-0.36639 1.89892,0.29166 2.34311,1.12619c0.63383,1.19082 2.40838,4.52483 3.4754,6.52954c0.49935,0.93817 0.2315,1.91108 -0.66598,2.38877c-2.00676,1.06811 -5.4396,2.89528 -6.64277,3.53567c-0.82083,0.4369 -2.14584,0.33642 -2.63531,-0.58319z"/></g><g fill="#48bd4e"><path d="M87.76627,43.13203c0,-1.48538 0,-4.03737 0,-4.87546c0,-0.5256 0.58909,-1.13132 1.10439,-1.13132c0.89319,0 3.61513,0 5.03708,0c0.49128,0 0.9697,0.72429 0.9697,1.31987c0,0.84986 0,3.22927 0,4.65998c0,0.66955 -0.43694,1.13132 -1.07745,1.13132c-1.43218,0 -3.88211,0 -4.74078,0c-0.58581,0 -1.29295,-0.44808 -1.29295,-1.10439z"/><path d="M90.5004,44.93204c-1.05032,-1.05032 -2.85485,-2.85485 -3.44747,-3.44747c-0.37166,-0.37166 -0.38342,-1.21651 -0.01905,-1.58088c0.63158,-0.63158 2.55628,-2.55628 3.56175,-3.56175c0.34739,-0.34738 1.19784,-0.17353 1.61898,0.24761c0.60094,0.60094 2.28344,2.28343 3.2951,3.2951c0.47344,0.47345 0.491,1.10893 0.0381,1.56184c-1.0127,1.0127 -2.74507,2.74506 -3.35223,3.35224c-0.41423,0.41423 -1.23109,0.5974 -1.69516,0.13333z"/></g><g fill="#ffffff"><path d="M89.28437,42.08545c0,-0.85118 0,-2.31356 0,-2.79382c0,-0.30118 0.33756,-0.64829 0.63285,-0.64829c0.51183,0 2.0716,0 2.88643,0c0.28151,0 0.55568,0.41504 0.55568,0.75634c0,0.487 0,1.85049 0,2.67034c0,0.38368 -0.25039,0.64829 -0.61742,0.64829c-0.82069,0 -2.22459,0 -2.71664,0c-0.33569,0 -0.7409,-0.25677 -0.7409,-0.63285z"/><path d="M90.85113,43.11693c-0.60187,-0.60187 -1.63594,-1.63594 -1.97553,-1.97553c-0.21298,-0.21297 -0.21972,-0.6971 -0.01092,-0.9059c0.36192,-0.36192 1.46483,-1.46484 2.04101,-2.04102c0.19906,-0.19906 0.6864,-0.09944 0.92773,0.14189c0.34436,0.34436 1.30849,1.30849 1.88821,1.88821c0.2713,0.2713 0.28136,0.63545 0.02183,0.89499c-0.58032,0.58032 -1.57303,1.57302 -1.92096,1.92096c-0.23737,0.23737 -0.70545,0.34233 -0.97139,0.0764z"/></g></g></g><path d="M44.00051,27.70482c-3.82835,-3.82835 -3.82835,-10.03532 0,-13.86366c3.82834,-3.82834 10.03532,-3.82835 13.86366,0c3.82835,3.82835 3.82834,10.03532 0,13.86366c-3.82835,3.82835 -10.03532,3.82834 -13.86366,0z" fill="#ffffff" stroke="none" stroke-width="0"/><path d="M19.25178,42.55406c-3.82835,-3.82835 -3.82835,-10.03532 0,-13.86366c3.82835,-3.82835 10.03532,-3.82835 13.86366,0c3.82835,3.82835 3.82834,10.03532 0,13.86366c-3.82835,3.82835 -10.03532,3.82834 -13.86366,0z" fill="#ffffff" stroke="none" stroke-width="0"/><path d="M-16.10356,32.65456c-3.82835,-3.82835 -3.82835,-10.03532 0,-13.86366c3.82835,-3.82835 10.03532,-3.82835 13.86366,0c3.82835,3.82835 3.82834,10.03532 0,13.86366c-3.82835,3.82835 -10.03532,3.82834 -13.86366,0z" fill="#ffffff" stroke="none" stroke-width="0"/><path d="M-22.46752,23.46218c-6.56201,-6.56201 -6.56201,-17.20114 0,-23.76316c6.56201,-6.56201 17.20114,-6.56201 23.76316,0c6.56201,6.56201 6.56201,17.20115 0,23.76316c-6.56201,6.56201 -17.20115,6.56201 -23.76316,0z" fill="#ffffff" stroke="none" stroke-width="0"/><path d="M-2.66853,41.84696c-6.56201,-6.56201 -6.56201,-17.20114 0,-23.76316c6.56201,-6.56201 17.20114,-6.56201 23.76316,0c6.56201,6.56201 6.56201,17.20115 0,23.76316c-6.56201,6.56201 -17.20115,6.56201 -23.76316,0z" fill="#ffffff" stroke="none" stroke-width="0"/><path d="M24.90864,5.78451c-6.56201,-6.56201 -6.56201,-17.20114 0,-23.76316c6.56201,-6.56201 17.20114,-6.56201 23.76316,0c6.56201,6.56201 6.56201,17.20115 0,23.76316c-6.56201,6.56201 -17.20115,6.56201 -23.76316,0z" fill="#ffffff" stroke="none" stroke-width="0"/><path d="M23.49442,34.06878c-6.56201,-6.56201 -6.56201,-17.20114 0,-23.76316c6.56201,-6.56201 17.20114,-6.56201 23.76316,0c6.56201,6.56201 6.56201,17.20115 0,23.76316c-6.56201,6.56201 -17.20115,6.56201 -23.76316,0z" fill="#ffffff" stroke="none" stroke-width="0"/><path d="M46.82895,17.80533c-6.56201,-6.56201 -6.56201,-17.20114 0,-23.76316c6.56201,-6.56201 17.20114,-6.56201 23.76316,0c6.56201,6.56201 6.56201,17.20115 0,23.76316c-6.56201,6.56201 -17.20115,6.56201 -23.76316,0z" fill="#ffffff" stroke="none" stroke-width="0"/><g><path d="M19.53428,-3.48105c11.30665,5.87073 15.71334,19.79574 9.84262,31.10239c-5.87073,11.30665 -19.79574,15.71334 -31.10239,9.84262c-11.30665,-5.87073 -15.71334,-19.79574 -9.84262,-31.10239c5.87073,-11.30665 19.79574,-15.71334 31.10239,-9.84262z" fill="#ececec" stroke="none" stroke-width="0"/><path d="M1.07234,30.27262c0.72778,0.37788 0.93483,1.42172 0.46248,2.33144c-0.47235,0.90973 -1.44526,1.34087 -2.17304,0.96299c-0.72778,-0.37788 -0.93485,-1.42171 -0.4625,-2.33144c0.47235,-0.90973 1.44528,-1.34088 2.17305,-0.96299z" fill="#000000" stroke="none" stroke-width="0"/><path d="M19.87096,-6.89132c10.37092,5.38487 14.41292,18.15748 9.02805,28.5284c-5.38487,10.37092 -18.15748,14.41292 -28.5284,9.02805c-10.37092,-5.38487 -14.41292,-18.15748 -9.02805,-28.5284c5.38487,-10.37092 18.15748,-14.41292 28.5284,-9.02805z" fill="#efefef" stroke="none" stroke-width="0"/><path d="M-0.70524,16.20436c1.14366,0.59381 1.46904,2.23411 0.72676,3.66369c-0.74228,1.42957 -2.27113,2.10709 -3.41479,1.51328c-1.14366,-0.59381 -1.46904,-2.23411 -0.72676,-3.66369c0.74228,-1.42957 2.27113,-2.10709 3.41479,-1.51328z" fill="#000000" stroke="none" stroke-width="0"/><path d="M13.21824,23.91182c1.14366,0.59381 1.46904,2.23411 0.72676,3.66369c-0.74228,1.42957 -2.27113,2.10709 -3.41479,1.51328c-1.14366,-0.59381 -1.46904,-2.23411 -0.72676,-3.66369c0.74228,-1.42957 2.27113,-2.10709 3.41479,-1.51328z" fill="#000000" stroke="none" stroke-width="0"/><path d="M-1.25306,34.48267c-2.26132,-1.17414 1.6165,-13.125 8.66136,-26.69298c7.04487,-13.56797 15.23387,-9.31602 8.189,4.25195c-7.04487,13.56797 -14.58903,23.61517 -16.85037,22.44102z" fill="#ffac29" stroke="none" stroke-width="0"/><path d="M26.82542,-18.09871c12.32035,6.39707 17.51598,20.81198 11.60477,32.19659c-5.91121,11.38462 -20.69082,15.42784 -33.01116,9.03078c-12.32035,-6.39707 -17.51598,-20.81198 -11.60477,-32.19659c5.91121,-11.38462 20.69082,-15.42784 33.01116,-9.03078z" fill="#2480e2" stroke="none" stroke-width="0"/><path d="M24.5222,-13.66285c9.66913,5.02048 13.74671,16.33345 9.10754,25.26821c-4.63917,8.93476 -16.23836,12.10792 -25.90749,7.08744c-9.66913,-5.02048 -13.74671,-16.33345 -9.10754,-25.26821c4.63917,-8.93476 16.23836,-12.10792 25.90749,-7.08744z" fill="#2074cc" stroke="#2480e2" stroke-width="1"/></g><g stroke="none" stroke-width="0"><g fill="#40a946"><path d="M58.82798,13.47948c-3.32025,-3.32025 -9.02466,-9.02466 -10.89802,-10.89802c-1.17486,-1.17486 -1.21206,-3.84559 -0.06022,-4.99743c1.99652,-1.99652 8.0808,-8.0808 11.25928,-11.25928c1.09813,-1.09813 3.78655,-0.54858 5.11786,0.78272c1.89966,1.89966 7.21831,7.21831 10.41634,10.41634c1.49663,1.49663 1.55213,3.50552 0.12042,4.93723c-3.20131,3.20131 -8.67761,8.67761 -10.59696,10.59696c-1.30944,1.30944 -3.89166,1.8885 -5.35869,0.42147z"/><path d="M68.96303,11.39146c-4.69554,0 -12.76279,0.00001 -15.41212,0.00001c-1.66152,0 -3.5763,-1.86219 -3.5763,-3.49115c0,-2.82351 0,-11.42798 0,-15.92303c0,-1.55299 2.2896,-3.06539 4.17235,-3.06539c2.68652,0 10.20822,-0.00001 14.73093,0c2.11655,0 3.5763,1.38124 3.5763,3.406c0,4.52734 0,12.27199 0,14.98638c0,1.85183 -1.41644,4.0872 -3.49114,4.08719z"/></g><g fill="#43b149"><path d="M56.83997,8.64274c-1.56391,-2.93825 -4.25081,-7.98638 -5.13321,-9.64421c-0.55339,-1.03969 -0.02587,-2.85811 0.99346,-3.40065c1.76683,-0.9404 7.15111,-3.80624 9.96391,-5.30336c0.97179,-0.51725 2.68076,0.41176 3.30785,1.58989c0.89478,1.68111 3.39998,6.38785 4.90632,9.21795c0.70495,1.32445 0.32681,2.69792 -0.94018,3.37229c-2.83301,1.50789 -7.67926,4.08734 -9.37779,4.99141c-1.15879,0.61678 -3.02934,0.47495 -3.72035,-0.82331z"/><path d="M64.14353,9.32469c-3.18351,-0.97181 -8.65301,-2.64144 -10.44921,-3.18976c-1.12648,-0.34387 -2.03927,-2.0027 -1.70215,-3.10711c0.58436,-1.9143 2.36519,-7.74801 3.29551,-10.79559c0.32142,-1.05292 2.18673,-1.60443 3.46321,-1.21477c1.82144,0.55601 6.92103,2.11274 9.98737,3.04877c1.435,0.43805 2.13881,1.67664 1.71975,3.04938c-0.93699,3.06947 -2.53986,8.32024 -3.10164,10.16056c-0.38326,1.25552 -1.80624,2.47791 -3.21285,2.04852z"/></g><g fill="#48bd4e"><path d="M60.19414,6.04887c-1.48277,-1.48277 -4.03028,-4.03028 -4.8669,-4.8669c-0.52468,-0.52468 -0.54128,-1.71739 -0.02688,-2.23178c0.89162,-0.89162 3.60877,-3.60877 5.02824,-5.02824c0.49041,-0.49041 1.69102,-0.24498 2.28556,0.34956c0.84837,0.84837 3.22359,3.22359 4.65179,4.65179c0.66837,0.66837 0.69316,1.56551 0.05378,2.20489c-1.42966,1.42966 -3.87529,3.87529 -4.73245,4.73245c-0.58478,0.58478 -1.73796,0.84337 -2.39312,0.18822z"/><path d="M64.72032,5.1164c-2.09695,0 -5.69968,0 -6.88284,0c-0.74201,0 -1.59712,-0.83162 -1.59712,-1.55909c0,-1.26094 0.00001,-5.10356 0.00001,-7.111c0,-0.69354 1.0225,-1.36897 1.8633,-1.36897c1.19976,0 4.55885,0.00001 6.57862,0c0.94523,0 1.59712,0.61684 1.59713,1.52107c0,2.02184 -0.00001,5.48049 0,6.69269c0,0.827 -0.63256,1.82528 -1.5591,1.82528z"/></g><g fill="#ffffff"><path d="M60.66485,3.48869c-0.84968,-0.84968 -2.3095,-2.3095 -2.78891,-2.78891c-0.30065,-0.30065 -0.31018,-0.98412 -0.01541,-1.27889c0.51093,-0.51093 2.06796,-2.06796 2.88136,-2.88136c0.28103,-0.28103 0.96901,-0.14038 1.30971,0.20032c0.48614,0.48614 1.84724,1.84724 2.66565,2.66565c0.383,0.383 0.39721,0.89709 0.03082,1.26349c-0.81925,0.81925 -2.22068,2.22068 -2.71187,2.71187c-0.3351,0.3351 -0.99592,0.48328 -1.37134,0.10785z"/><path d="M63.25851,2.95435c-1.20163,0 -3.26613,0 -3.94411,0c-0.4252,0 -0.91521,-0.47655 -0.91521,-0.89342c0,-0.72256 -0.00001,-2.92453 0,-4.07486c0,-0.39742 0.58592,-0.78446 1.06775,-0.78446c0.68752,0 2.61238,-0.00001 3.76979,-0.00001c0.54164,0 0.91522,0.35348 0.91522,0.87163c0,1.15859 -0.00001,3.14052 0,3.83516c0,0.4739 -0.36248,1.04595 -0.89342,1.04595z"/></g></g><path d="M-90.74727,421.36383v-513.51351h630.63063v513.51352z" fill="none" stroke="none" stroke-width="0"/></g></g></svg>