<svg version="1.1" xmlns="http://www.w3.org/2000/svg" xmlns:xlink="http://www.w3.org/1999/xlink" width="635.15295" height="513.51352" viewBox="0,0,635.15295,513.51352"><g transform="translate(90.74727,92.14969)"><g data-paper-data="{&quot;isPaintingLayer&quot;:true}" fill-rule="nonzero" stroke-linecap="butt" stroke-linejoin="miter" stroke-miterlimit="10" stroke-dasharray="" stroke-dashoffset="0" style="mix-blend-mode: normal"><path d="M126.42426,191.82286c0,-5.4141 4.38899,-9.80309 9.80309,-9.80309c5.41409,0 9.80309,4.38899 9.80309,9.80309c0,5.4141 -4.389,9.80309 -9.80309,9.80309c-5.4141,0 -9.80309,-4.389 -9.80309,-9.80309z" fill="#ffffff" stroke="none" stroke-width="0"/><path d="M98.42426,184.82287c0,-5.4141 4.38899,-9.80309 9.80309,-9.80309c5.4141,0 9.80309,4.38899 9.80309,9.80309c0,5.4141 -4.389,9.80309 -9.80309,9.80309c-5.4141,0 -9.80309,-4.389 -9.80309,-9.80309z" fill="#ffffff" stroke="none" stroke-width="0"/><path d="M80.42426,152.82286c0,-5.4141 4.38899,-9.80309 9.80309,-9.80309c5.4141,0 9.80309,4.38899 9.80309,9.80309c0,5.4141 -4.389,9.80309 -9.80309,9.80309c-5.4141,0 -9.80309,-4.389 -9.80309,-9.80309z" fill="#ffffff" stroke="none" stroke-width="0"/><path d="M82.42426,141.82287c0,-9.28009 7.523,-16.80309 16.80309,-16.80309c9.28009,0 16.80309,7.523 16.80309,16.80309c0,9.28009 -7.52301,16.80309 -16.80309,16.80309c-9.28009,0 -16.80309,-7.52301 -16.80309,-16.80309z" fill="#ffffff" stroke="none" stroke-width="0"/><path d="M83.42426,168.82287c0,-9.28009 7.523,-16.80309 16.80309,-16.80309c9.28009,0 16.80309,7.523 16.80309,16.80309c0,9.28009 -7.52301,16.80309 -16.80309,16.80309c-9.28009,0 -16.80309,-7.52301 -16.80309,-16.80309z" fill="#ffffff" stroke="none" stroke-width="0"/><path d="M128.42426,162.82287c0,-9.28009 7.523,-16.80309 16.80309,-16.80309c9.28009,0 16.80309,7.523 16.80309,16.80309c0,9.28009 -7.52301,16.80309 -16.80309,16.80309c-9.28009,0 -16.80309,-7.52301 -16.80309,-16.80309z" fill="#ffffff" stroke="none" stroke-width="0"/><path d="M107.42426,181.82287c0,-9.28009 7.523,-16.80309 16.80309,-16.80309c9.28009,0 16.80309,7.523 16.80309,16.80309c0,9.28009 -7.52301,16.80309 -16.80309,16.80309c-9.28009,0 -16.80309,-7.52301 -16.80309,-16.80309z" fill="#ffffff" stroke="none" stroke-width="0"/><path d="M135.42426,186.82287c0,-9.28009 7.523,-16.80309 16.80309,-16.80309c9.28009,0 16.80309,7.523 16.80309,16.80309c0,9.28009 -7.52301,16.80309 -16.80309,16.80309c-9.28009,0 -16.80309,-7.52301 -16.80309,-16.80309z" fill="#ffffff" stroke="none" stroke-width="0"/><path d="M30.33337,307.66667v-13h196v13z" fill="none" stroke="none" stroke-width="0"/><g stroke="none" stroke-width="0"><g fill="#40a946"><path d="M184.9677,308.74864c0,-4.69554 0,-12.7628 0,-15.41213c0,-1.66151 1.86219,-3.5763 3.49114,-3.5763c2.82351,0 11.42797,0 15.92302,0c1.55299,0 3.0654,2.28959 3.0654,4.17234c0,2.68653 0,10.20823 0,14.73093c0,2.11655 -1.38125,3.5763 -3.406,3.5763c-4.52734,0 -12.27199,0 -14.98637,0c-1.85183,0 -4.08719,-1.41645 -4.08719,-3.49114z"/><path d="M193.61071,314.43874c-3.32025,-3.32025 -9.02466,-9.02465 -10.89802,-10.89801c-1.17487,-1.17487 -1.21206,-3.84559 -0.06021,-4.99744c1.99652,-1.99652 8.0808,-8.0808 11.25928,-11.25928c1.09813,-1.09813 3.78655,-0.54857 5.11785,0.78274c1.89966,1.89966 7.21831,7.2183 10.41634,10.41634c1.49663,1.49663 1.55214,3.50551 0.12042,4.93723c-3.20131,3.20131 -8.67761,8.67761 -10.59697,10.59697c-1.30944,1.30944 -3.89166,1.88851 -5.35869,0.42147z"/></g><g fill="#43b149"><path d="M186.98205,303.9228c0.97181,-3.18351 2.64144,-8.653 3.18976,-10.44921c0.34387,-1.12648 2.0027,-2.03928 3.10711,-1.70214c1.9143,0.58437 7.74801,2.36518 10.79559,3.2955c1.05291,0.32141 1.60443,2.18674 1.21478,3.46322c-0.55602,1.82143 -2.11274,6.92104 -3.04878,9.98737c-0.43805,1.435 -1.67663,2.13881 -3.04938,1.71976c-3.06948,-0.937 -8.32024,-2.53987 -10.16056,-3.10164c-1.25552,-0.38326 -2.47791,-1.80623 -2.04852,-3.21285z"/><path d="M191.66424,309.56941c-1.56391,-2.93826 -4.25082,-7.98638 -5.13321,-9.64421c-0.55339,-1.0397 -0.02586,-2.85811 0.99346,-3.40066c1.76682,-0.94041 7.15111,-3.80623 9.96391,-5.30336c0.9718,-0.51725 2.68076,0.41175 3.30783,1.58989c0.89479,1.68111 3.39998,6.38784 4.90633,9.21794c0.70495,1.32444 0.32681,2.69793 -0.94019,3.37229c-2.833,1.50789 -7.67925,4.08735 -9.37779,4.99141c-1.15879,0.61678 -3.02935,0.47494 -3.72035,-0.82331z"/></g><g fill="#48bd4e"><path d="M191.18795,304.46043c0,-2.09696 0,-5.69968 0,-6.88283c0,-0.74201 0.83163,-1.59712 1.5591,-1.59712c1.26094,0 5.10357,0 7.111,0c0.69355,0 1.36896,1.0225 1.36896,1.86331c0,1.19977 0,4.55884 0,6.57862c0,0.94522 -0.61685,1.59712 -1.52107,1.59712c-2.02185,0 -5.48049,0 -6.6927,0c-0.82701,0 -1.82528,-0.63257 -1.82528,-1.5591z"/><path d="M195.0478,307.00155c-1.48277,-1.48277 -4.03028,-4.03028 -4.8669,-4.8669c-0.52468,-0.52468 -0.54129,-1.71738 -0.02689,-2.23178c0.89162,-0.89162 3.60877,-3.60876 5.02824,-5.02823c0.49041,-0.49041 1.69102,-0.24499 2.28556,0.34955c0.84836,0.84836 3.22359,3.2236 4.65179,4.65179c0.66838,0.66838 0.69316,1.56551 0.05378,2.2049c-1.42966,1.42966 -3.8753,3.87529 -4.73245,4.73245c-0.58478,0.58478 -1.73796,0.84338 -2.39312,0.18822z"/></g><g fill="#ffffff"><path d="M193.33111,302.98295c0,-1.20163 0,-3.26612 0,-3.94411c0,-0.42519 0.47655,-0.91521 0.89342,-0.91521c0.72257,0 2.92454,0 4.07486,0c0.39743,0 0.78446,0.58593 0.78446,1.06775c0,0.68751 0,2.61239 0,3.7698c0,0.54164 -0.35347,0.91521 -0.87163,0.91521c-1.15859,0 -3.14052,0 -3.83517,0c-0.4739,0 -1.04595,-0.36249 -1.04595,-0.89342z"/><path d="M195.54294,304.43911c-0.84968,-0.84968 -2.3095,-2.3095 -2.78891,-2.78891c-0.30066,-0.30066 -0.31018,-0.98412 -0.01541,-1.27889c0.51093,-0.51093 2.06795,-2.06796 2.88136,-2.88136c0.28102,-0.28102 0.96901,-0.14039 1.30971,0.20031c0.48615,0.48615 1.84724,1.84723 2.66565,2.66564c0.383,0.383 0.39721,0.8971 0.03082,1.26349c-0.81925,0.81925 -2.22069,2.22068 -2.71187,2.71187c-0.3351,0.3351 -0.99591,0.48328 -1.37134,0.10786z"/></g></g><g stroke="none" stroke-width="0"><g fill="#40a946"><path d="M145.30103,313.41531c0,-4.69554 0,-12.76279 0,-15.41213c0,-1.6615 1.86219,-3.5763 3.49114,-3.5763c2.82351,0 11.42798,0 15.92302,0c1.553,0 3.0654,2.28959 3.0654,4.17234c0,2.68653 0,10.20823 0,14.73093c0,2.11656 -1.38125,3.5763 -3.406,3.5763c-4.52734,0 -12.27199,0 -14.98637,0c-1.85183,0 -4.0872,-1.41645 -4.0872,-3.49114z"/><path d="M153.94404,319.10541c-3.32025,-3.32025 -9.02467,-9.02465 -10.89803,-10.89801c-1.17487,-1.17487 -1.21205,-3.84559 -0.0602,-4.99743c1.99652,-1.99653 8.08079,-8.08081 11.25928,-11.25929c1.09813,-1.09813 3.78655,-0.54857 5.11786,0.78274c1.89966,1.89967 7.21831,7.2183 10.41634,10.41634c1.49663,1.49663 1.55213,3.50551 0.12042,4.93723c-3.20131,3.20132 -8.67761,8.67761 -10.59697,10.59697c-1.30945,1.30944 -3.89165,1.88851 -5.35869,0.42147z"/></g><g fill="#43b149"><path d="M147.31538,308.58947c0.97181,-3.18351 2.64144,-8.653 3.18976,-10.44921c0.34387,-1.12648 2.0027,-2.03928 3.10711,-1.70214c1.91431,0.58436 7.74801,2.36518 10.79559,3.2955c1.05291,0.32141 1.60443,2.18674 1.21478,3.46322c-0.55602,1.82143 -2.11274,6.92103 -3.04878,9.98737c-0.43805,1.435 -1.67663,2.13882 -3.04938,1.71976c-3.06948,-0.937 -8.32024,-2.53987 -10.16056,-3.10165c-1.25552,-0.38326 -2.47791,-1.80623 -2.04852,-3.21284z"/><path d="M151.99758,314.23607c-1.56391,-2.93826 -4.25081,-7.98638 -5.13321,-9.6442c-0.55339,-1.03969 -0.02587,-2.85811 0.99346,-3.40066c1.76683,-0.94041 7.15111,-3.80622 9.96391,-5.30336c0.97179,-0.51725 2.68076,0.41174 3.30784,1.58988c0.89479,1.68111 3.39998,6.38784 4.90632,9.21794c0.70495,1.32444 0.32681,2.69793 -0.94019,3.3723c-2.83301,1.50788 -7.67925,4.08735 -9.37779,4.99141c-1.15879,0.61678 -3.02935,0.47494 -3.72036,-0.82331z"/></g><g fill="#48bd4e"><path d="M151.52129,309.12709c0,-2.09695 0,-5.69968 0,-6.88283c0,-0.74201 0.83162,-1.59712 1.55909,-1.59712c1.26094,0 5.10358,0 7.111,0c0.69355,0 1.36896,1.0225 1.36896,1.8633c0,1.19977 0,4.55885 0,6.57863c0,0.94522 -0.61685,1.59712 -1.52107,1.59712c-2.02185,0 -5.48049,0 -6.6927,0c-0.82701,0 -1.82528,-0.63257 -1.82528,-1.5591z"/><path d="M155.38113,311.66822c-1.48277,-1.48277 -4.03028,-4.03028 -4.8669,-4.8669c-0.52468,-0.52468 -0.54129,-1.71739 -0.02689,-2.23178c0.89162,-0.89162 3.60877,-3.60877 5.02823,-5.02823c0.49042,-0.49041 1.69102,-0.24498 2.28556,0.34956c0.84836,0.84836 3.2236,3.22359 4.65179,4.65179c0.66837,0.66838 0.69316,1.56551 0.05378,2.20489c-1.42966,1.42966 -3.8753,3.87529 -4.73245,4.73246c-0.58478,0.58478 -1.73796,0.84337 -2.39311,0.18822z"/></g><g fill="#ffffff"><path d="M153.66444,307.64962c0,-1.20164 0,-3.26612 0,-3.94412c0,-0.42519 0.47655,-0.91521 0.89342,-0.91521c0.72257,0 2.92454,0 4.07487,0c0.39742,0 0.78446,0.58593 0.78446,1.06775c0,0.68751 0,2.61239 0,3.7698c0,0.54165 -0.35347,0.91521 -0.87163,0.91521c-1.15859,0 -3.14053,0 -3.83517,0c-0.4739,0 -1.04595,-0.36249 -1.04595,-0.89342z"/><path d="M155.87627,309.10577c-0.84968,-0.84968 -2.3095,-2.3095 -2.78891,-2.78891c-0.30067,-0.30066 -0.31018,-0.98412 -0.01541,-1.27889c0.51093,-0.51093 2.06795,-2.06796 2.88136,-2.88137c0.28102,-0.28102 0.96901,-0.14038 1.30971,0.20031c0.48614,0.48615 1.84723,1.84724 2.66564,2.66564c0.383,0.383 0.39721,0.89709 0.03082,1.26349c-0.81925,0.81925 -2.22069,2.22068 -2.71187,2.71187c-0.3351,0.3351 -0.9959,0.48328 -1.37133,0.10785z"/></g></g><g stroke="none" stroke-width="0"><g fill="#40a946"><path d="M104.30104,308.74864c0,-4.69554 0,-12.76279 0,-15.41213c0,-1.6615 1.86219,-3.5763 3.49114,-3.5763c2.82351,0 11.42798,0 15.92302,0c1.553,0 3.06539,2.28959 3.06539,4.17234c0,2.68653 0,10.20823 0,14.73093c0,2.11656 -1.38124,3.5763 -3.40599,3.5763c-4.52734,0 -12.27199,0 -14.98638,0c-1.85183,0 -4.08719,-1.41645 -4.08719,-3.49114z"/><path d="M112.94405,314.43874c-3.32025,-3.32025 -9.02467,-9.02465 -10.89803,-10.89801c-1.17487,-1.17487 -1.21205,-3.84559 -0.0602,-4.99743c1.99652,-1.99653 8.08079,-8.08081 11.25928,-11.25929c1.09813,-1.09813 3.78655,-0.54857 5.11785,0.78274c1.89966,1.89967 7.21831,7.2183 10.41635,10.41634c1.49663,1.49663 1.55213,3.50551 0.12042,4.93723c-3.20131,3.20132 -8.67761,8.67761 -10.59697,10.59697c-1.30945,1.30944 -3.89165,1.88851 -5.35869,0.42147z"/></g><g fill="#43b149"><path d="M106.31538,303.9228c0.97181,-3.18351 2.64144,-8.653 3.18976,-10.44921c0.34387,-1.12648 2.0027,-2.03928 3.10711,-1.70214c1.91431,0.58436 7.74801,2.36518 10.79559,3.2955c1.05291,0.32141 1.60443,2.18674 1.21478,3.46322c-0.55602,1.82143 -2.11274,6.92103 -3.04878,9.98737c-0.43805,1.435 -1.67663,2.13882 -3.04938,1.71976c-3.06948,-0.937 -8.32024,-2.53987 -10.16056,-3.10165c-1.25552,-0.38326 -2.47791,-1.80623 -2.04852,-3.21284z"/><path d="M110.99758,309.56941c-1.56391,-2.93826 -4.25081,-7.98638 -5.13321,-9.6442c-0.55339,-1.03969 -0.02587,-2.85811 0.99346,-3.40066c1.76683,-0.94041 7.15111,-3.80622 9.96391,-5.30336c0.97179,-0.51725 2.68076,0.41174 3.30784,1.58988c0.89479,1.68111 3.39998,6.38784 4.90632,9.21794c0.70495,1.32444 0.32681,2.69793 -0.94019,3.3723c-2.83301,1.50788 -7.67925,4.08735 -9.37779,4.99141c-1.15879,0.61678 -3.02935,0.47494 -3.72035,-0.82331z"/></g><g fill="#48bd4e"><path d="M110.52129,304.46043c0,-2.09695 0,-5.69968 0,-6.88283c0,-0.74201 0.83163,-1.59712 1.5591,-1.59712c1.26094,0 5.10358,0 7.111,0c0.69355,0 1.36896,1.0225 1.36896,1.8633c0,1.19977 0,4.55885 0,6.57863c0,0.94522 -0.61684,1.59712 -1.52107,1.59712c-2.02185,0 -5.48049,0 -6.6927,0c-0.82701,0 -1.82529,-0.63257 -1.82529,-1.5591z"/><path d="M114.38114,307.00155c-1.48277,-1.48277 -4.03028,-4.03028 -4.8669,-4.8669c-0.52468,-0.52468 -0.54129,-1.71739 -0.02689,-2.23178c0.89162,-0.89162 3.60877,-3.60877 5.02823,-5.02823c0.49042,-0.49041 1.69102,-0.24498 2.28556,0.34956c0.84836,0.84836 3.2236,3.22359 4.65179,4.65179c0.66837,0.66838 0.69316,1.56551 0.05378,2.20489c-1.42966,1.42966 -3.8753,3.87529 -4.73245,4.73246c-0.58478,0.58478 -1.73796,0.84337 -2.39311,0.18822z"/></g><g fill="#ffffff"><path d="M112.66445,302.98295c0,-1.20164 0,-3.26612 0,-3.94412c0,-0.42519 0.47655,-0.91521 0.89342,-0.91521c0.72257,0 2.92454,0 4.07486,0c0.39742,0 0.78447,0.58593 0.78447,1.06775c0,0.68751 0,2.61239 0,3.7698c0,0.54165 -0.35348,0.91521 -0.87163,0.91521c-1.15859,0 -3.14052,0 -3.83516,0c-0.4739,0 -1.04595,-0.36249 -1.04595,-0.89342z"/><path d="M114.87628,304.43911c-0.84968,-0.84968 -2.3095,-2.3095 -2.78891,-2.78891c-0.30067,-0.30066 -0.31018,-0.98412 -0.01541,-1.27889c0.51093,-0.51093 2.06795,-2.06796 2.88136,-2.88137c0.28102,-0.28102 0.96901,-0.14038 1.30971,0.20031c0.48614,0.48615 1.84723,1.84724 2.66564,2.66564c0.383,0.383 0.39721,0.89709 0.03082,1.26349c-0.81925,0.81925 -2.22069,2.22068 -2.71187,2.71187c-0.3351,0.3351 -0.99591,0.48328 -1.37134,0.10785z"/></g></g><path d="M175.18028,305.88889v-4.33333h1.66667v4.33333z" fill="#6bdcff" stroke="none" stroke-width="0"/><path d="M131.84695,305.55556v-4.33333h7v4.33333z" fill="#6bdcff" stroke="none" stroke-width="0"/><g stroke="none" stroke-width="0"><g fill="#40a946"><path d="M226.9677,124.24863c0,-4.69554 0,-12.7628 0,-15.41213c0,-1.66151 1.86219,-3.5763 3.49114,-3.5763c2.82351,0 11.42797,0 15.92302,0c1.55299,0 3.0654,2.28959 3.0654,4.17234c0,2.68653 0,10.20823 0,14.73093c0,2.11655 -1.38125,3.5763 -3.406,3.5763c-4.52734,0 -12.27199,0 -14.98637,0c-1.85183,0 -4.08719,-1.41645 -4.08719,-3.49114z"/><path d="M235.61071,129.93874c-3.32025,-3.32025 -9.02466,-9.02465 -10.89802,-10.89801c-1.17487,-1.17487 -1.21206,-3.84559 -0.06021,-4.99744c1.99652,-1.99652 8.0808,-8.0808 11.25928,-11.25928c1.09813,-1.09813 3.78655,-0.54857 5.11785,0.78274c1.89966,1.89966 7.21831,7.2183 10.41634,10.41634c1.49663,1.49663 1.55214,3.50551 0.12042,4.93723c-3.20131,3.20131 -8.67761,8.67761 -10.59697,10.59697c-1.30944,1.30944 -3.89166,1.88851 -5.35869,0.42147z"/></g><g fill="#43b149"><path d="M228.98205,119.4228c0.97181,-3.18351 2.64144,-8.653 3.18976,-10.44921c0.34387,-1.12648 2.0027,-2.03928 3.10711,-1.70214c1.9143,0.58437 7.74801,2.36518 10.79559,3.2955c1.05291,0.32141 1.60443,2.18674 1.21478,3.46322c-0.55602,1.82143 -2.11274,6.92104 -3.04878,9.98737c-0.43805,1.435 -1.67663,2.13881 -3.04938,1.71976c-3.06948,-0.937 -8.32024,-2.53987 -10.16056,-3.10164c-1.25552,-0.38326 -2.47791,-1.80623 -2.04852,-3.21285z"/><path d="M233.66424,125.06941c-1.56391,-2.93826 -4.25082,-7.98638 -5.13321,-9.64421c-0.55339,-1.0397 -0.02586,-2.85811 0.99346,-3.40066c1.76682,-0.94041 7.15111,-3.80623 9.96391,-5.30336c0.9718,-0.51725 2.68076,0.41175 3.30783,1.58989c0.89479,1.68111 3.39998,6.38784 4.90633,9.21794c0.70495,1.32444 0.32681,2.69793 -0.94019,3.37229c-2.833,1.50789 -7.67925,4.08735 -9.37779,4.99141c-1.15879,0.61678 -3.02935,0.47494 -3.72035,-0.82331z"/></g><g fill="#48bd4e"><path d="M233.18795,119.96042c0,-2.09696 0,-5.69968 0,-6.88283c0,-0.74201 0.83163,-1.59712 1.5591,-1.59712c1.26094,0 5.10357,0 7.111,0c0.69355,0 1.36896,1.0225 1.36896,1.86331c0,1.19977 0,4.55884 0,6.57862c0,0.94522 -0.61685,1.59712 -1.52107,1.59712c-2.02185,0 -5.48049,0 -6.6927,0c-0.82701,0 -1.82528,-0.63257 -1.82528,-1.5591z"/><path d="M237.0478,122.50155c-1.48277,-1.48277 -4.03028,-4.03028 -4.8669,-4.8669c-0.52468,-0.52468 -0.54129,-1.71738 -0.02689,-2.23178c0.89162,-0.89162 3.60877,-3.60876 5.02824,-5.02823c0.49041,-0.49041 1.69102,-0.24499 2.28556,0.34955c0.84836,0.84836 3.22359,3.2236 4.65179,4.65179c0.66838,0.66838 0.69316,1.56551 0.05378,2.2049c-1.42966,1.42966 -3.8753,3.87529 -4.73245,4.73245c-0.58478,0.58478 -1.73796,0.84338 -2.39312,0.18822z"/></g><g fill="#ffffff"><path d="M235.33111,118.48294c0,-1.20163 0,-3.26612 0,-3.94411c0,-0.42519 0.47655,-0.91521 0.89342,-0.91521c0.72257,0 2.92454,0 4.07486,0c0.39743,0 0.78446,0.58593 0.78446,1.06775c0,0.68751 0,2.61239 0,3.7698c0,0.54164 -0.35347,0.91521 -0.87163,0.91521c-1.15859,0 -3.14052,0 -3.83517,0c-0.4739,0 -1.04595,-0.36249 -1.04595,-0.89342z"/><path d="M237.54294,119.9391c-0.84968,-0.84968 -2.3095,-2.3095 -2.78891,-2.78891c-0.30066,-0.30066 -0.31018,-0.98412 -0.01541,-1.27889c0.51093,-0.51093 2.06795,-2.06796 2.88136,-2.88136c0.28102,-0.28102 0.96901,-0.14039 1.30971,0.20031c0.48615,0.48615 1.84724,1.84723 2.66565,2.66564c0.383,0.383 0.39721,0.8971 0.03082,1.26349c-0.81925,0.81925 -2.22069,2.22068 -2.71187,2.71187c-0.3351,0.3351 -0.99591,0.48328 -1.37134,0.10786z"/></g></g><g stroke="none" stroke-width="0"><g fill="#40a946"><path d="M217.4677,69.74863c0,-4.69554 0,-12.7628 0,-15.41213c0,-1.66151 1.86219,-3.5763 3.49114,-3.5763c2.82351,0 11.42797,0 15.92302,0c1.55299,0 3.0654,2.28959 3.0654,4.17234c0,2.68653 0,10.20823 0,14.73093c0,2.11655 -1.38125,3.5763 -3.406,3.5763c-4.52734,0 -12.27199,0 -14.98637,0c-1.85183,0 -4.08719,-1.41645 -4.08719,-3.49114z"/><path d="M226.11071,75.43874c-3.32025,-3.32025 -9.02466,-9.02465 -10.89802,-10.89801c-1.17487,-1.17487 -1.21206,-3.84559 -0.06021,-4.99744c1.99652,-1.99652 8.0808,-8.0808 11.25928,-11.25928c1.09813,-1.09813 3.78655,-0.54857 5.11785,0.78274c1.89966,1.89966 7.21831,7.2183 10.41634,10.41634c1.49663,1.49663 1.55214,3.50551 0.12042,4.93723c-3.20131,3.20131 -8.67761,8.67761 -10.59697,10.59697c-1.30944,1.30944 -3.89166,1.88851 -5.35869,0.42147z"/></g><g fill="#43b149"><path d="M219.48205,64.92279c0.97181,-3.18351 2.64144,-8.653 3.18976,-10.44921c0.34387,-1.12648 2.0027,-2.03928 3.10711,-1.70214c1.9143,0.58437 7.74801,2.36518 10.79559,3.2955c1.05291,0.32141 1.60443,2.18674 1.21478,3.46322c-0.55602,1.82143 -2.11274,6.92104 -3.04878,9.98737c-0.43805,1.435 -1.67663,2.13881 -3.04938,1.71976c-3.06948,-0.937 -8.32024,-2.53987 -10.16056,-3.10164c-1.25552,-0.38326 -2.47791,-1.80623 -2.04852,-3.21285z"/><path d="M224.16424,70.56941c-1.56391,-2.93826 -4.25082,-7.98638 -5.13321,-9.64421c-0.55339,-1.0397 -0.02586,-2.85811 0.99346,-3.40066c1.76682,-0.94041 7.15111,-3.80623 9.96391,-5.30336c0.9718,-0.51725 2.68076,0.41175 3.30783,1.58989c0.89479,1.68111 3.39998,6.38784 4.90633,9.21794c0.70495,1.32444 0.32681,2.69793 -0.94019,3.37229c-2.833,1.50789 -7.67925,4.08735 -9.37779,4.99141c-1.15879,0.61678 -3.02935,0.47494 -3.72035,-0.82331z"/></g><g fill="#48bd4e"><path d="M223.68795,65.46043c0,-2.09696 0,-5.69968 0,-6.88283c0,-0.74201 0.83163,-1.59712 1.5591,-1.59712c1.26094,0 5.10357,0 7.111,0c0.69355,0 1.36896,1.0225 1.36896,1.86331c0,1.19977 0,4.55884 0,6.57862c0,0.94522 -0.61685,1.59712 -1.52107,1.59712c-2.02185,0 -5.48049,0 -6.6927,0c-0.82701,0 -1.82528,-0.63257 -1.82528,-1.5591z"/><path d="M227.5478,68.00154c-1.48277,-1.48277 -4.03028,-4.03028 -4.8669,-4.8669c-0.52468,-0.52468 -0.54129,-1.71738 -0.02689,-2.23178c0.89162,-0.89162 3.60877,-3.60876 5.02824,-5.02823c0.49041,-0.49041 1.69102,-0.24499 2.28556,0.34955c0.84836,0.84836 3.22359,3.2236 4.65179,4.65179c0.66838,0.66838 0.69316,1.56551 0.05378,2.2049c-1.42966,1.42966 -3.8753,3.87529 -4.73245,4.73245c-0.58478,0.58478 -1.73796,0.84338 -2.39312,0.18822z"/></g><g fill="#ffffff"><path d="M225.83111,63.98295c0,-1.20163 0,-3.26612 0,-3.94411c0,-0.42519 0.47655,-0.91521 0.89342,-0.91521c0.72257,0 2.92454,0 4.07486,0c0.39743,0 0.78446,0.58593 0.78446,1.06775c0,0.68751 0,2.61239 0,3.7698c0,0.54164 -0.35347,0.91521 -0.87163,0.91521c-1.15859,0 -3.14052,0 -3.83517,0c-0.4739,0 -1.04595,-0.36249 -1.04595,-0.89342z"/><path d="M228.04294,65.43911c-0.84968,-0.84968 -2.3095,-2.3095 -2.78891,-2.78891c-0.30066,-0.30066 -0.31018,-0.98412 -0.01541,-1.27889c0.51093,-0.51093 2.06795,-2.06796 2.88136,-2.88136c0.28102,-0.28102 0.96901,-0.14039 1.30971,0.20031c0.48615,0.48615 1.84724,1.84723 2.66565,2.66564c0.383,0.383 0.39721,0.8971 0.03082,1.26349c-0.81925,0.81925 -2.22069,2.22068 -2.71187,2.71187c-0.3351,0.3351 -0.99591,0.48328 -1.37134,0.10786z"/></g></g><g stroke="none" stroke-width="0"><g fill="#40a946"><path d="M244.9677,52.24863c0,-4.69554 0,-12.7628 0,-15.41213c0,-1.66151 1.86219,-3.5763 3.49114,-3.5763c2.82351,0 11.42797,0 15.92302,0c1.55299,0 3.0654,2.28959 3.0654,4.17234c0,2.68653 0,10.20823 0,14.73093c0,2.11655 -1.38125,3.5763 -3.406,3.5763c-4.52734,0 -12.27199,0 -14.98637,0c-1.85183,0 -4.08719,-1.41645 -4.08719,-3.49114z"/><path d="M253.61071,57.93873c-3.32025,-3.32025 -9.02466,-9.02465 -10.89802,-10.89801c-1.17487,-1.17487 -1.21206,-3.84559 -0.06021,-4.99744c1.99652,-1.99652 8.0808,-8.0808 11.25928,-11.25928c1.09813,-1.09813 3.78655,-0.54857 5.11785,0.78274c1.89966,1.89966 7.21831,7.2183 10.41634,10.41634c1.49663,1.49663 1.55214,3.50551 0.12042,4.93723c-3.20131,3.20131 -8.67761,8.67761 -10.59697,10.59697c-1.30944,1.30944 -3.89166,1.88851 -5.35869,0.42147z"/></g><g fill="#43b149"><path d="M246.98205,47.42279c0.97181,-3.18351 2.64144,-8.653 3.18976,-10.44921c0.34387,-1.12648 2.0027,-2.03928 3.10711,-1.70214c1.9143,0.58437 7.74801,2.36518 10.79559,3.2955c1.05291,0.32141 1.60443,2.18674 1.21478,3.46322c-0.55602,1.82143 -2.11274,6.92104 -3.04878,9.98737c-0.43805,1.435 -1.67663,2.13881 -3.04938,1.71976c-3.06948,-0.937 -8.32024,-2.53987 -10.16056,-3.10164c-1.25552,-0.38326 -2.47791,-1.80623 -2.04852,-3.21285z"/><path d="M251.66424,53.06941c-1.56391,-2.93826 -4.25082,-7.98638 -5.13321,-9.64421c-0.55339,-1.0397 -0.02586,-2.85811 0.99346,-3.40066c1.76682,-0.94041 7.15111,-3.80623 9.96391,-5.30336c0.9718,-0.51725 2.68076,0.41175 3.30783,1.58989c0.89479,1.68111 3.39998,6.38784 4.90633,9.21794c0.70495,1.32444 0.32681,2.69793 -0.94019,3.37229c-2.833,1.50789 -7.67925,4.08735 -9.37779,4.99141c-1.15879,0.61678 -3.02935,0.47494 -3.72035,-0.82331z"/></g><g fill="#48bd4e"><path d="M251.18795,47.96043c0,-2.09696 0,-5.69968 0,-6.88283c0,-0.74201 0.83163,-1.59712 1.5591,-1.59712c1.26094,0 5.10357,0 7.111,0c0.69355,0 1.36896,1.0225 1.36896,1.86331c0,1.19977 0,4.55884 0,6.57862c0,0.94522 -0.61685,1.59712 -1.52107,1.59712c-2.02185,0 -5.48049,0 -6.6927,0c-0.82701,0 -1.82528,-0.63257 -1.82528,-1.5591z"/><path d="M255.0478,50.50154c-1.48277,-1.48277 -4.03028,-4.03028 -4.8669,-4.8669c-0.52468,-0.52468 -0.54129,-1.71738 -0.02689,-2.23178c0.89162,-0.89162 3.60877,-3.60876 5.02824,-5.02823c0.49041,-0.49041 1.69102,-0.24499 2.28556,0.34955c0.84836,0.84836 3.22359,3.2236 4.65179,4.65179c0.66838,0.66838 0.69316,1.56551 0.05378,2.2049c-1.42966,1.42966 -3.8753,3.87529 -4.73245,4.73245c-0.58478,0.58478 -1.73796,0.84338 -2.39312,0.18822z"/></g><g fill="#ffffff"><path d="M253.33111,46.48295c0,-1.20163 0,-3.26612 0,-3.94411c0,-0.42519 0.47655,-0.91521 0.89342,-0.91521c0.72257,0 2.92454,0 4.07486,0c0.39743,0 0.78446,0.58593 0.78446,1.06775c0,0.68751 0,2.61239 0,3.7698c0,0.54164 -0.35347,0.91521 -0.87163,0.91521c-1.15859,0 -3.14052,0 -3.83517,0c-0.4739,0 -1.04595,-0.36249 -1.04595,-0.89342z"/><path d="M255.54294,47.93911c-0.84968,-0.84968 -2.3095,-2.3095 -2.78891,-2.78891c-0.30066,-0.30066 -0.31018,-0.98412 -0.01541,-1.27889c0.51093,-0.51093 2.06795,-2.06796 2.88136,-2.88136c0.28102,-0.28102 0.96901,-0.14039 1.30971,0.20031c0.48615,0.48615 1.84724,1.84723 2.66565,2.66564c0.383,0.383 0.39721,0.8971 0.03082,1.26349c-0.81925,0.81925 -2.22069,2.22068 -2.71187,2.71187c-0.3351,0.3351 -0.99591,0.48328 -1.37134,0.10786z"/></g></g><path d="M248.73045,81.30572c-0.62702,-0.09658 -1.41217,-0.22669 -2.17154,-0.35244c-0.6215,-0.10299 -1.20865,-0.20024 -1.64056,-0.26764c-0.06082,-0.00703 -0.14414,-0.01869 -0.24267,-0.03387c-1.07482,-0.16556 -3.99848,-0.75171 -4.0279,-0.75763c-0.14602,-0.02169 -0.33446,-0.03474 -0.53393,-0.04847c-0.24012,-0.01663 -0.51237,-0.03534 -0.76996,-0.07502c-0.52843,-0.0814 -1.23553,-0.27448 -1.27481,-1.00866c-0.00903,-0.16913 0.11899,-0.40726 0.26716,-0.68294c0.11076,-0.20599 0.22524,-0.41895 0.24925,-0.55582c0.02238,-0.12724 0.03032,-0.28387 0.03872,-0.44966c0.02047,-0.40442 0.04368,-0.86285 0.29234,-1.127c0.26831,-0.28524 0.68432,-0.45131 1.05132,-0.59783c0.26702,-0.10663 0.51921,-0.20733 0.65872,-0.33219c0.14648,-0.13111 0.27235,-0.28057 0.3941,-0.42518c0.26429,-0.31382 0.51388,-0.61029 0.93112,-0.68439c0.16094,-0.02861 0.31454,-0.03088 0.46938,-0.00703c0.21467,0.03307 0.40663,0.11216 0.60984,0.19584c0.24612,0.10134 0.50071,0.20619 0.84889,0.25982c0.1517,0.02337 0.30597,0.03475 0.4716,0.0347c0.66945,-0.00002 0.89882,-0.11618 1.14169,-0.23919c0.25424,-0.12873 0.51714,-0.26191 1.24288,-0.24879c0.15422,0.00273 0.30522,0.01537 0.44883,0.03749c1.38186,0.21285 2.21797,1.34453 2.13033,2.88317c-0.03571,0.62513 0.39747,0.90113 0.89904,1.22063c0.38502,0.24529 0.78319,0.49898 0.99731,0.93786c0.32,0.6561 0.1164,1.16226 -0.11068,1.47135c-0.45706,0.62182 -1.41732,0.99752 -2.23375,0.87367z" fill="#91b6c5" stroke="none" stroke-width="0.66342"/><path d="M243.40891,81.60025c-0.03406,-0.00525 -0.06719,-0.0113 -0.09948,-0.01803c-0.23264,-0.04909 -0.45108,-0.17035 -0.6623,-0.28756c-0.23321,-0.12954 -0.47437,-0.26346 -0.73813,-0.30409c-0.01203,-0.00185 -0.02414,-0.00356 -0.0363,-0.00501c-0.14693,-0.01772 -0.31627,-0.01062 -0.48009,-0.00385c-0.18468,0.00775 -0.37572,0.01575 -0.5463,-0.01052c-0.28886,-0.04449 -0.47275,-0.18321 -0.56225,-0.42393c-0.17364,-0.46721 0.04796,-0.61379 0.45032,-0.88005c0.12357,-0.08175 0.26363,-0.17446 0.42658,-0.29601c0.03657,-0.02725 0.09669,-0.1127 0.16045,-0.20324c0.2455,-0.3488 0.70249,-0.99819 1.57495,-0.8638c0.67146,0.10343 1.13726,0.75072 1.44551,1.17911c0.07073,0.09821 0.13185,0.18314 0.18323,0.24424c0.28659,0.34081 0.62323,1.26591 0.31319,1.58624c-0.26703,0.27597 -0.93653,0.36242 -1.42939,0.2865z" fill="#5f8ba5" stroke="none" stroke-width="0.66342"/><path d="M229.47147,103.668c-0.0335,0.00807 -0.06646,0.01503 -0.09889,0.02105c-0.23387,0.04281 -0.48197,0.01347 -0.72187,-0.01487c-0.26491,-0.03141 -0.53886,-0.06385 -0.79831,-0.0014c-0.01183,0.00285 -0.02369,0.00585 -0.03548,0.00913c-0.14267,0.03933 -0.29667,0.11013 -0.44568,0.17853c-0.16794,0.07721 -0.34167,0.15708 -0.50947,0.19747c-0.28415,0.06839 -0.50691,0.00979 -0.68103,-0.179c-0.33787,-0.36643 -0.18843,-0.58612 0.08288,-0.9851c0.08333,-0.12251 0.17776,-0.26141 0.28244,-0.43569c0.0235,-0.03908 0.04672,-0.14096 0.07137,-0.24891c0.09485,-0.41586 0.2714,-1.19005 1.12964,-1.39661c0.66052,-0.15898 1.33702,0.26327 1.78473,0.54274c0.10269,0.06404 0.19146,0.11945 0.26218,0.15649c0.39444,0.20664 1.05681,0.93493 0.89143,1.34893c-0.14241,0.35663 -0.7291,0.69055 -1.21392,0.80724z" fill="#5f8ba5" stroke="none" stroke-width="0.66342"/><path d="M300.71002,214.50153c0,-8.79166 7.12706,-15.91872 15.91872,-15.91872c8.79166,0 15.91872,7.12706 15.91872,15.91872c0,8.79166 -7.12706,15.91872 -15.91872,15.91872c-8.79166,0 -15.91872,-7.12706 -15.91872,-15.91872z" fill="#ffffff" stroke="none" stroke-width="0"/><g stroke="none" stroke-width="0"><g fill="#40a946"><path d="M307.96768,212.74863c0,-4.69554 0,-12.7628 0,-15.41213c0,-1.66151 1.86219,-3.5763 3.49114,-3.5763c2.82351,0 11.42797,0 15.92302,0c1.55299,0 3.0654,2.28959 3.0654,4.17234c0,2.68653 0,10.20823 0,14.73093c0,2.11655 -1.38125,3.5763 -3.406,3.5763c-4.52734,0 -12.27199,0 -14.98637,0c-1.85183,0 -4.08719,-1.41645 -4.08719,-3.49114z"/><path d="M316.61069,218.43874c-3.32025,-3.32025 -9.02466,-9.02465 -10.89802,-10.89801c-1.17487,-1.17487 -1.21206,-3.84559 -0.06021,-4.99744c1.99652,-1.99652 8.0808,-8.0808 11.25928,-11.25928c1.09813,-1.09813 3.78655,-0.54857 5.11785,0.78274c1.89966,1.89966 7.21831,7.2183 10.41634,10.41634c1.49663,1.49663 1.55214,3.50551 0.12042,4.93723c-3.20131,3.20131 -8.67761,8.67761 -10.59697,10.59697c-1.30944,1.30944 -3.89166,1.88851 -5.35869,0.42147z"/></g><g fill="#43b149"><path d="M309.98204,207.9228c0.97181,-3.18351 2.64144,-8.653 3.18976,-10.44921c0.34387,-1.12648 2.0027,-2.03928 3.10711,-1.70214c1.9143,0.58437 7.74801,2.36518 10.79559,3.2955c1.05291,0.32141 1.60443,2.18674 1.21478,3.46322c-0.55602,1.82143 -2.11274,6.92104 -3.04878,9.98737c-0.43805,1.435 -1.67663,2.13881 -3.04938,1.71976c-3.06948,-0.937 -8.32024,-2.53987 -10.16056,-3.10164c-1.25552,-0.38326 -2.47791,-1.80623 -2.04852,-3.21285z"/><path d="M314.66423,213.56941c-1.56391,-2.93826 -4.25082,-7.98638 -5.13321,-9.64421c-0.55339,-1.0397 -0.02586,-2.85811 0.99346,-3.40066c1.76682,-0.94041 7.15111,-3.80623 9.96391,-5.30336c0.9718,-0.51725 2.68076,0.41175 3.30783,1.58989c0.89479,1.68111 3.39998,6.38784 4.90633,9.21794c0.70495,1.32444 0.32681,2.69793 -0.94019,3.37229c-2.833,1.50789 -7.67925,4.08735 -9.37779,4.99141c-1.15879,0.61678 -3.02935,0.47494 -3.72035,-0.82331z"/></g><g fill="#48bd4e"><path d="M314.18795,208.46042c0,-2.09696 0,-5.69968 0,-6.88283c0,-0.74201 0.83163,-1.59712 1.5591,-1.59712c1.26094,0 5.10357,0 7.111,0c0.69355,0 1.36896,1.0225 1.36896,1.86331c0,1.19977 0,4.55884 0,6.57862c0,0.94522 -0.61685,1.59712 -1.52107,1.59712c-2.02185,0 -5.48049,0 -6.6927,0c-0.82701,0 -1.82528,-0.63257 -1.82528,-1.5591z"/><path d="M318.04778,211.00155c-1.48277,-1.48277 -4.03028,-4.03028 -4.8669,-4.8669c-0.52468,-0.52468 -0.54129,-1.71738 -0.02689,-2.23178c0.89162,-0.89162 3.60877,-3.60876 5.02824,-5.02823c0.49041,-0.49041 1.69102,-0.24499 2.28556,0.34955c0.84836,0.84836 3.22359,3.2236 4.65179,4.65179c0.66838,0.66838 0.69316,1.56551 0.05378,2.2049c-1.42966,1.42966 -3.8753,3.87529 -4.73245,4.73245c-0.58478,0.58478 -1.73796,0.84338 -2.39312,0.18822z"/></g><g fill="#ffffff"><path d="M316.3311,206.98294c0,-1.20163 0,-3.26612 0,-3.94411c0,-0.42519 0.47655,-0.91521 0.89342,-0.91521c0.72257,0 2.92454,0 4.07486,0c0.39743,0 0.78446,0.58593 0.78446,1.06775c0,0.68751 0,2.61239 0,3.7698c0,0.54164 -0.35347,0.91521 -0.87163,0.91521c-1.15859,0 -3.14052,0 -3.83517,0c-0.4739,0 -1.04595,-0.36249 -1.04595,-0.89342z"/><path d="M318.54292,208.4391c-0.84968,-0.84968 -2.3095,-2.3095 -2.78891,-2.78891c-0.30066,-0.30066 -0.31018,-0.98412 -0.01541,-1.27889c0.51093,-0.51093 2.06795,-2.06796 2.88136,-2.88136c0.28102,-0.28102 0.96901,-0.14039 1.30971,0.20031c0.48615,0.48615 1.84724,1.84723 2.66565,2.66564c0.383,0.383 0.39721,0.8971 0.03082,1.26349c-0.81925,0.81925 -2.22069,2.22068 -2.71187,2.71187c-0.3351,0.3351 -0.99591,0.48328 -1.37134,0.10786z"/></g></g><g><path d="M131.17576,152.47088c3.84378,12.14624 -2.88669,25.10871 -15.03293,28.95249c-12.14624,3.84378 -25.10871,-2.88669 -28.95249,-15.03293c-3.84378,-12.14624 2.88669,-25.10871 15.03293,-28.95249c12.14624,-3.84378 25.10871,2.88669 28.95249,15.03293z" fill="#ececec" stroke="none" stroke-width="0"/><path d="M94.25374,163.28377c0.24741,0.78182 -0.34428,1.66633 -1.32155,1.9756c-0.97728,0.30927 -1.97009,-0.07381 -2.21751,-0.85563c-0.24741,-0.78182 0.34426,-1.66634 1.32154,-1.97561c0.97728,-0.30927 1.97011,0.07382 2.21752,0.85564z" fill="#000000" stroke="none" stroke-width="0"/><path d="M133.82525,150.29752c3.52567,11.14103 -2.6478,23.03075 -13.78883,26.55642c-11.14103,3.52567 -23.03075,-2.6478 -26.55642,-13.78883c-3.52567,-11.14103 2.6478,-23.03075 13.78883,-26.55642c11.14103,-3.52567 23.03075,2.6478 26.55642,13.78883z" fill="#efefef" stroke="none" stroke-width="0"/><path d="M102.94457,152.07907c0.3888,1.22858 -0.54099,2.61852 -2.07672,3.10452c-1.53573,0.48599 -3.09587,-0.11599 -3.48467,-1.34457c-0.3888,-1.22858 0.54099,-2.61852 2.07672,-3.10452c1.53573,-0.48599 3.09587,0.11599 3.48467,1.34457z" fill="#000000" stroke="none" stroke-width="0"/><path d="M107.33996,167.37445c0.3888,1.22858 -0.54099,2.61852 -2.07672,3.10452c-1.53573,0.48599 -3.09587,-0.11599 -3.48467,-1.34457c-0.3888,-1.22858 0.54099,-2.61852 2.07672,-3.10452c1.53573,-0.48599 3.09587,0.11599 3.48467,1.34457z" fill="#000000" stroke="none" stroke-width="0"/><path d="M89.63248,164.61642c-0.76875,-2.42924 10.42381,-8.13774 24.99929,-12.75028c14.57548,-4.61253 17.35939,4.18455 2.78391,8.79708c-14.57548,4.61253 -27.01445,6.38244 -27.78321,3.95319z" fill="#ffac29" stroke="none" stroke-width="0"/><path d="M146.66762,147.29025c4.18839,13.23521 -2.33063,27.10196 -14.56062,30.97224c-12.23,3.87029 -25.53975,-3.72149 -29.72814,-16.95669c-4.18839,-13.23521 2.33063,-27.10196 14.56062,-30.97224c12.23,-3.87029 25.53975,3.72149 29.72814,16.95669z" fill="#2480e2" stroke="none" stroke-width="0"/><path d="M141.90237,148.79825c3.28709,10.38712 -1.8291,21.26989 -11.42732,24.30733c-9.59822,3.03744 -20.04385,-2.92066 -23.33094,-13.30779c-3.28709,-10.38712 1.8291,-21.26989 11.42732,-24.30733c9.59822,-3.03744 20.04385,2.92066 23.33094,13.30779z" fill="#2074cc" stroke="#2480e2" stroke-width="1"/></g><g stroke="none" stroke-width="0"><g fill="#40a946"><path d="M146.96769,192.24863c0,-4.69554 0,-12.7628 0,-15.41213c0,-1.66151 1.86219,-3.5763 3.49114,-3.5763c2.82351,0 11.42797,0 15.92302,0c1.55299,0 3.0654,2.28959 3.0654,4.17234c0,2.68653 0,10.20823 0,14.73093c0,2.11655 -1.38125,3.5763 -3.406,3.5763c-4.52734,0 -12.27199,0 -14.98637,0c-1.85183,0 -4.08719,-1.41645 -4.08719,-3.49114z"/><path d="M155.61071,197.93874c-3.32025,-3.32025 -9.02466,-9.02465 -10.89802,-10.89801c-1.17487,-1.17487 -1.21206,-3.84559 -0.06021,-4.99744c1.99652,-1.99652 8.0808,-8.0808 11.25928,-11.25928c1.09813,-1.09813 3.78655,-0.54857 5.11785,0.78274c1.89966,1.89966 7.21831,7.2183 10.41634,10.41634c1.49663,1.49663 1.55214,3.50551 0.12042,4.93723c-3.20131,3.20131 -8.67761,8.67761 -10.59697,10.59697c-1.30944,1.30944 -3.89166,1.88851 -5.35869,0.42147z"/></g><g fill="#43b149"><path d="M148.98205,187.4228c0.97181,-3.18351 2.64144,-8.653 3.18976,-10.44921c0.34387,-1.12648 2.0027,-2.03928 3.10711,-1.70214c1.9143,0.58437 7.74801,2.36518 10.79559,3.2955c1.05291,0.32141 1.60443,2.18674 1.21478,3.46322c-0.55602,1.82143 -2.11274,6.92104 -3.04878,9.98737c-0.43805,1.435 -1.67663,2.13881 -3.04938,1.71976c-3.06948,-0.937 -8.32024,-2.53987 -10.16056,-3.10164c-1.25552,-0.38326 -2.47791,-1.80623 -2.04852,-3.21285z"/><path d="M153.66423,193.06941c-1.56391,-2.93826 -4.25082,-7.98638 -5.13321,-9.64421c-0.55339,-1.0397 -0.02586,-2.85811 0.99346,-3.40066c1.76682,-0.94041 7.15111,-3.80623 9.96391,-5.30336c0.9718,-0.51725 2.68076,0.41175 3.30783,1.58989c0.89479,1.68111 3.39998,6.38784 4.90633,9.21794c0.70495,1.32444 0.32681,2.69793 -0.94019,3.37229c-2.833,1.50789 -7.67925,4.08735 -9.37779,4.99141c-1.15879,0.61678 -3.02935,0.47494 -3.72035,-0.82331z"/></g><g fill="#48bd4e"><path d="M153.18795,187.96042c0,-2.09696 0,-5.69968 0,-6.88283c0,-0.74201 0.83163,-1.59712 1.5591,-1.59712c1.26094,0 5.10357,0 7.111,0c0.69355,0 1.36896,1.0225 1.36896,1.86331c0,1.19977 0,4.55884 0,6.57862c0,0.94522 -0.61685,1.59712 -1.52107,1.59712c-2.02185,0 -5.48049,0 -6.6927,0c-0.82701,0 -1.82528,-0.63257 -1.82528,-1.5591z"/><path d="M157.0478,190.50155c-1.48277,-1.48277 -4.03028,-4.03028 -4.8669,-4.8669c-0.52468,-0.52468 -0.54129,-1.71738 -0.02689,-2.23178c0.89162,-0.89162 3.60877,-3.60876 5.02824,-5.02823c0.49041,-0.49041 1.69102,-0.24499 2.28556,0.34955c0.84836,0.84836 3.22359,3.2236 4.65179,4.65179c0.66838,0.66838 0.69316,1.56551 0.05378,2.2049c-1.42966,1.42966 -3.8753,3.87529 -4.73245,4.73245c-0.58478,0.58478 -1.73796,0.84338 -2.39312,0.18822z"/></g><g fill="#ffffff"><path d="M155.33111,186.48294c0,-1.20163 0,-3.26612 0,-3.94411c0,-0.42519 0.47655,-0.91521 0.89342,-0.91521c0.72257,0 2.92454,0 4.07486,0c0.39743,0 0.78446,0.58593 0.78446,1.06775c0,0.68751 0,2.61239 0,3.7698c0,0.54164 -0.35347,0.91521 -0.87163,0.91521c-1.15859,0 -3.14052,0 -3.83517,0c-0.4739,0 -1.04595,-0.36249 -1.04595,-0.89342z"/><path d="M157.54294,187.9391c-0.84968,-0.84968 -2.3095,-2.3095 -2.78891,-2.78891c-0.30066,-0.30066 -0.31018,-0.98412 -0.01541,-1.27889c0.51093,-0.51093 2.06795,-2.06796 2.88136,-2.88136c0.28102,-0.28102 0.96901,-0.14039 1.30971,0.20031c0.48615,0.48615 1.84724,1.84723 2.66565,2.66564c0.383,0.383 0.39721,0.8971 0.03082,1.26349c-0.81925,0.81925 -2.22069,2.22068 -2.71187,2.71187c-0.3351,0.3351 -0.99591,0.48328 -1.37134,0.10786z"/></g></g><path d="M17.84694,300.05556v-4.33333h79.5v4.33333z" fill="#6bdcff" stroke="none" stroke-width="0"/><path d="M499.75301,136.06305c0,-8.79166 7.12706,-15.91872 15.91872,-15.91872c8.79166,0 15.91872,7.12706 15.91872,15.91872c0,8.79166 -7.12706,15.91872 -15.91872,15.91872c-8.79166,0 -15.91872,-7.12706 -15.91872,-15.91872z" fill="#ffffff" stroke="none" stroke-width="0"/><g stroke="none" stroke-width="0"><g fill="#40a946"><path d="M511.86174,142.07187c0,-4.69554 0,-12.7628 0,-15.41213c0,-1.66151 1.86219,-3.5763 3.49114,-3.5763c2.82351,0 11.42797,0 15.92302,0c1.55299,0 3.0654,2.28959 3.0654,4.17234c0,2.68653 0,10.20823 0,14.73093c0,2.11655 -1.38125,3.5763 -3.406,3.5763c-4.52734,0 -12.27199,0 -14.98637,0c-1.85183,0 -4.08719,-1.41645 -4.08719,-3.49114z"/><path d="M520.50475,147.76198c-3.32025,-3.32025 -9.02466,-9.02465 -10.89802,-10.89801c-1.17487,-1.17487 -1.21206,-3.84559 -0.06021,-4.99744c1.99652,-1.99652 8.0808,-8.0808 11.25928,-11.25928c1.09813,-1.09813 3.78655,-0.54857 5.11785,0.78274c1.89966,1.89966 7.21831,7.2183 10.41634,10.41634c1.49663,1.49663 1.55214,3.50551 0.12042,4.93723c-3.20131,3.20131 -8.67761,8.67761 -10.59697,10.59697c-1.30944,1.30944 -3.89166,1.88851 -5.35869,0.42147z"/></g><g fill="#43b149"><path d="M513.8761,137.24604c0.97181,-3.18351 2.64144,-8.653 3.18976,-10.44921c0.34387,-1.12648 2.0027,-2.03928 3.10711,-1.70214c1.9143,0.58437 7.74801,2.36518 10.79559,3.2955c1.05291,0.32141 1.60443,2.18674 1.21478,3.46322c-0.55602,1.82143 -2.11274,6.92104 -3.04878,9.98737c-0.43805,1.435 -1.67663,2.13881 -3.04938,1.71976c-3.06948,-0.937 -8.32024,-2.53987 -10.16056,-3.10164c-1.25552,-0.38326 -2.47791,-1.80623 -2.04852,-3.21285z"/><path d="M518.55829,142.89265c-1.56391,-2.93826 -4.25082,-7.98638 -5.13321,-9.64421c-0.55339,-1.0397 -0.02586,-2.85811 0.99346,-3.40066c1.76682,-0.94041 7.15111,-3.80623 9.96391,-5.30336c0.9718,-0.51725 2.68076,0.41175 3.30783,1.58989c0.89479,1.68111 3.39998,6.38784 4.90633,9.21794c0.70495,1.32444 0.32681,2.69793 -0.94019,3.37229c-2.833,1.50789 -7.67925,4.08735 -9.37779,4.99141c-1.15879,0.61678 -3.02935,0.47494 -3.72035,-0.82331z"/></g><g fill="#48bd4e"><path d="M518.08201,137.78366c0,-2.09696 0,-5.69968 0,-6.88283c0,-0.74201 0.83163,-1.59712 1.5591,-1.59712c1.26094,0 5.10357,0 7.111,0c0.69355,0 1.36896,1.0225 1.36896,1.86331c0,1.19977 0,4.55884 0,6.57862c0,0.94522 -0.61685,1.59712 -1.52107,1.59712c-2.02185,0 -5.48049,0 -6.6927,0c-0.82701,0 -1.82528,-0.63257 -1.82528,-1.5591z"/><path d="M521.94184,140.32479c-1.48277,-1.48277 -4.03028,-4.03028 -4.8669,-4.8669c-0.52468,-0.52468 -0.54129,-1.71738 -0.02689,-2.23178c0.89162,-0.89162 3.60877,-3.60876 5.02824,-5.02823c0.49041,-0.49041 1.69102,-0.24499 2.28556,0.34955c0.84836,0.84836 3.22359,3.2236 4.65179,4.65179c0.66838,0.66838 0.69316,1.56551 0.05378,2.2049c-1.42966,1.42966 -3.8753,3.87529 -4.73245,4.73245c-0.58478,0.58478 -1.73796,0.84338 -2.39312,0.18822z"/></g><g fill="#ffffff"><path d="M520.22516,136.30618c0,-1.20163 0,-3.26612 0,-3.94411c0,-0.42519 0.47655,-0.91521 0.89342,-0.91521c0.72257,0 2.92454,0 4.07486,0c0.39743,0 0.78446,0.58593 0.78446,1.06775c0,0.68751 0,2.61239 0,3.7698c0,0.54164 -0.35347,0.91521 -0.87163,0.91521c-1.15859,0 -3.14052,0 -3.83517,0c-0.4739,0 -1.04595,-0.36249 -1.04595,-0.89342z"/><path d="M522.43698,137.76234c-0.84968,-0.84968 -2.3095,-2.3095 -2.78891,-2.78891c-0.30066,-0.30066 -0.31018,-0.98412 -0.01541,-1.27889c0.51093,-0.51093 2.06795,-2.06796 2.88136,-2.88136c0.28102,-0.28102 0.96901,-0.14039 1.30971,0.20031c0.48615,0.48615 1.84724,1.84723 2.66565,2.66564c0.383,0.383 0.39721,0.8971 0.03082,1.26349c-0.81925,0.81925 -2.22069,2.22068 -2.71187,2.71187c-0.3351,0.3351 -0.99591,0.48328 -1.37134,0.10786z"/></g></g><path d="M452.1801,179.92062c-6.21664,6.21664 -16.29583,6.21664 -22.51247,0c-6.21664,-6.21664 -6.21664,-16.29583 0,-22.51247c6.21664,-6.21664 16.29583,-6.21664 22.51247,0c6.21664,6.21664 6.21664,16.29583 0,22.51247z" fill="#ffffff" stroke="none" stroke-width="0"/><g stroke="none" stroke-width="0"><g fill="#40a946"><path d="M445.80867,176.02817c-3.32025,3.32025 -9.02466,9.02466 -10.89802,10.89802c-1.17486,1.17486 -3.84559,1.21206 -4.99743,0.06022c-1.99652,-1.99652 -8.0808,-8.0808 -11.25928,-11.25928c-1.09813,-1.09813 -0.54858,-3.78655 0.78272,-5.11786c1.89966,-1.89966 7.21831,-7.21831 10.41634,-10.41634c1.49663,-1.49663 3.50552,-1.55213 4.93723,-0.12042c3.20131,3.20131 8.67761,8.67761 10.59696,10.59696c1.30944,1.30944 1.8885,3.89166 0.42147,5.35869z"/><path d="M443.72065,165.89312c0,4.69554 0.00001,12.76279 0.00001,15.41212c0,1.66152 -1.86219,3.5763 -3.49115,3.5763c-2.82351,0 -11.42798,0 -15.92303,0c-1.55299,0 -3.06539,-2.2896 -3.06539,-4.17235c0,-2.68652 -0.00001,-10.20822 0,-14.73093c0,-2.11655 1.38124,-3.5763 3.406,-3.5763c4.52734,0 12.27199,0 14.98638,0c1.85183,0 4.0872,1.41644 4.08719,3.49114z"/></g><g fill="#43b149"><path d="M440.97193,178.01618c-2.93825,1.56391 -7.98638,4.25081 -9.64421,5.13321c-1.03969,0.55339 -2.85811,0.02587 -3.40065,-0.99346c-0.9404,-1.76683 -3.80624,-7.15111 -5.30336,-9.96391c-0.51725,-0.97179 0.41176,-2.68076 1.58989,-3.30785c1.68111,-0.89478 6.38785,-3.39998 9.21795,-4.90632c1.32445,-0.70495 2.69792,-0.32681 3.37229,0.94018c1.50789,2.83301 4.08734,7.67926 4.99141,9.37779c0.61678,1.15879 0.47495,3.02934 -0.82331,3.72035z"/><path d="M441.65387,170.71261c-0.97181,3.18351 -2.64144,8.65301 -3.18976,10.44921c-0.34387,1.12648 -2.0027,2.03927 -3.10711,1.70215c-1.9143,-0.58436 -7.74801,-2.36519 -10.79559,-3.29551c-1.05292,-0.32142 -1.60443,-2.18673 -1.21477,-3.46321c0.55601,-1.82144 2.11274,-6.92103 3.04877,-9.98737c0.43805,-1.435 1.67664,-2.13881 3.04938,-1.71975c3.06947,0.93699 8.32024,2.53986 10.16056,3.10164c1.25552,0.38326 2.47791,1.80624 2.04852,3.21285z"/></g><g fill="#48bd4e"><path d="M438.37805,174.662c-1.48277,1.48277 -4.03028,4.03028 -4.8669,4.8669c-0.52468,0.52468 -1.71739,0.54128 -2.23178,0.02688c-0.89162,-0.89162 -3.60877,-3.60877 -5.02824,-5.02824c-0.49041,-0.49041 -0.24498,-1.69102 0.34956,-2.28556c0.84837,-0.84837 3.22359,-3.22359 4.65179,-4.65179c0.66837,-0.66837 1.56551,-0.69316 2.20489,-0.05378c1.42966,1.42966 3.87529,3.87529 4.73245,4.73245c0.58478,0.58478 0.84337,1.73796 0.18822,2.39312z"/><path d="M437.44559,170.13583c0,2.09695 0,5.69968 0,6.88284c0,0.74201 -0.83162,1.59712 -1.55909,1.59712c-1.26094,0 -5.10356,-0.00001 -7.111,-0.00001c-0.69354,0 -1.36897,-1.0225 -1.36897,-1.8633c0,-1.19976 0.00001,-4.55885 0,-6.57862c0,-0.94523 0.61684,-1.59712 1.52107,-1.59713c2.02184,0 5.48049,0.00001 6.69269,0c0.827,0 1.82528,0.63256 1.82528,1.5591z"/></g><g fill="#ffffff"><path d="M435.81788,174.1913c-0.84968,0.84968 -2.3095,2.3095 -2.78891,2.78891c-0.30065,0.30065 -0.98412,0.31018 -1.27889,0.01541c-0.51093,-0.51093 -2.06796,-2.06796 -2.88136,-2.88136c-0.28103,-0.28103 -0.14038,-0.96901 0.20032,-1.30971c0.48614,-0.48614 1.84724,-1.84724 2.66565,-2.66565c0.383,-0.383 0.89709,-0.39721 1.26349,-0.03082c0.81925,0.81925 2.22068,2.22068 2.71187,2.71187c0.3351,0.3351 0.48328,0.99592 0.10785,1.37134z"/><path d="M435.28355,171.59764c0,1.20163 0,3.26613 0,3.94411c0,0.4252 -0.47655,0.91521 -0.89342,0.91521c-0.72256,0 -2.92453,0.00001 -4.07486,0c-0.39742,0 -0.78446,-0.58592 -0.78446,-1.06775c0,-0.68752 -0.00001,-2.61238 -0.00001,-3.76979c0,-0.54164 0.35348,-0.91522 0.87163,-0.91522c1.15859,0 3.14052,0.00001 3.83516,0c0.4739,0 1.04595,0.36248 1.04595,0.89342z"/></g></g><path d="M536.4971,158.62212c6.21664,6.21664 6.21664,16.29583 0,22.51247c-6.21664,6.21664 -16.29582,6.21664 -22.51246,0c-6.21664,-6.21664 -6.21664,-16.29583 0,-22.51247c6.21664,-6.21664 16.29583,-6.21664 22.51247,0z" fill="#ffffff" stroke="none" stroke-width="0"/><g stroke="none" stroke-width="0"><g fill="#40a946"><path d="M532.60465,164.99355c3.32025,3.32025 9.02466,9.02466 10.89802,10.89802c1.17486,1.17486 1.21206,3.8456 0.06022,4.99744c-1.99652,1.99653 -8.08079,8.08079 -11.25928,11.25927c-1.09813,1.09813 -3.78655,0.54858 -5.11785,-0.78273c-1.89966,-1.89967 -7.21831,-7.21831 -10.41634,-10.41634c-1.49662,-1.49662 -1.55214,-3.50552 -0.12042,-4.93723c3.20132,-3.20132 8.67761,-8.67761 10.59696,-10.59697c1.30944,-1.30944 3.89167,-1.88849 5.35869,-0.42147z"/><path d="M522.4696,167.08157c4.69554,0 12.76279,-0.00001 15.41212,-0.00001c1.66152,0 3.57629,1.86218 3.57629,3.49115c0,2.8235 0,11.42798 0,15.92303c0,1.55299 -2.28959,3.06539 -4.17234,3.06538c-2.68652,0 -10.20822,0 -14.73093,0c-2.11656,0 -3.5763,-1.38124 -3.5763,-3.406c0,-4.52733 0,-12.272 0,-14.98638c0,-1.85183 1.41645,-4.08719 3.49114,-4.08719z"/></g><g fill="#43b149"><path d="M534.59266,169.8303c1.56391,2.93826 4.25081,7.98637 5.1332,9.64421c0.55339,1.0397 0.02587,2.85811 -0.99347,3.40065c-1.76683,0.94041 -7.15111,3.80624 -9.96391,5.30337c-0.97179,0.51725 -2.68076,-0.41176 -3.30784,-1.58989c-0.89478,-1.68111 -3.39998,-6.38785 -4.90632,-9.21795c-0.70495,-1.32444 -0.32681,-2.69792 0.94018,-3.37229c2.83301,-1.50789 7.67925,-4.08734 9.37779,-4.99141c1.15879,-0.61678 3.02934,-0.47495 3.72035,0.8233z"/><path d="M527.28909,169.14835c3.18351,0.97181 8.65301,2.64144 10.44921,3.18976c1.12649,0.34388 2.03927,2.0027 1.70215,3.10711c-0.58436,1.9143 -2.36518,7.74801 -3.2955,10.79559c-0.32142,1.05292 -2.18673,1.60443 -3.46321,1.21477c-1.82144,-0.55601 -6.92103,-2.11274 -9.98737,-3.04877c-1.43499,-0.43805 -2.13881,-1.67664 -1.71975,-3.04939c0.937,-3.06948 2.53986,-8.32024 3.10164,-10.16056c0.38326,-1.25552 1.80624,-2.47791 3.21286,-2.04852z"/></g><g fill="#48bd4e"><path d="M531.23847,172.42417c1.48278,1.48277 4.03028,4.03028 4.86689,4.86689c0.52468,0.52468 0.54129,1.71739 0.02689,2.23179c-0.89162,0.89162 -3.60877,3.60878 -5.02824,5.02824c-0.49041,0.49041 -1.69102,0.24498 -2.28556,-0.34956c-0.84837,-0.84837 -3.22359,-3.22358 -4.65179,-4.65178c-0.66837,-0.66837 -0.69315,-1.56552 -0.05377,-2.20489c1.42967,-1.42967 3.87529,-3.8753 4.73245,-4.73246c0.58479,-0.58479 1.73797,-0.84337 2.39312,-0.18821z"/><path d="M526.71231,173.35663c2.09696,0 5.69968,0 6.88284,0c0.74201,0 1.59712,0.83162 1.59712,1.55909c0,1.26094 0,5.10356 0,7.111c0,0.69355 -1.0225,1.36896 -1.8633,1.36896c-1.19976,0 -4.55885,0 -6.57862,0c-0.94523,0 -1.59713,-0.61685 -1.59713,-1.52107c0,-2.02184 0,-5.48049 0,-6.69269c0,-0.82701 0.63256,-1.82529 1.5591,-1.82529z"/></g><g fill="#ffffff"><path d="M530.76777,174.98434c0.84968,0.84968 2.3095,2.3095 2.78891,2.78891c0.30066,0.30066 0.31018,0.98412 0.01541,1.27889c-0.51094,0.51094 -2.06796,2.06796 -2.88136,2.88136c-0.28102,0.28103 -0.96901,0.14039 -1.30971,-0.20031c-0.48614,-0.48615 -1.84724,-1.84724 -2.66565,-2.66565c-0.38299,-0.383 -0.39721,-0.8971 -0.03082,-1.26349c0.81925,-0.81924 2.22069,-2.22069 2.71188,-2.71188c0.3351,-0.3351 0.99591,-0.48328 1.37134,-0.10785z"/><path d="M528.17412,175.51867c1.20163,0 3.26612,0 3.94412,0c0.42519,0 0.9152,0.47655 0.9152,0.89342c0,0.72257 0.00001,2.92453 0,4.07486c0,0.39742 -0.58592,0.78446 -1.06774,0.78446c-0.68752,0 -2.61239,0.00001 -3.76979,0.00001c-0.54165,0 -0.91521,-0.35348 -0.91522,-0.87163c0,-1.1586 0,-3.14052 0,-3.83516c0,-0.4739 0.36248,-1.04595 0.89342,-1.04595z"/></g></g><g><path d="M399.12253,340.65389c-3.82835,3.82835 -10.03532,3.82835 -13.86366,0c-3.82834,-3.82834 -3.82835,-10.03532 0,-13.86366c3.82835,-3.82835 10.03532,-3.82834 13.86366,0c3.82835,3.82835 3.82834,10.03532 0,13.86366z" fill="#ffffff" stroke="none" stroke-width="0"/><path d="M413.97178,365.40262c-3.82835,3.82835 -10.03532,3.82835 -13.86366,0c-3.82835,-3.82835 -3.82835,-10.03532 0,-13.86366c3.82835,-3.82835 10.03532,-3.82834 13.86366,0c3.82835,3.82835 3.82834,10.03532 0,13.86366z" fill="#ffffff" stroke="none" stroke-width="0"/><path d="M404.07227,400.75797c-3.82835,3.82835 -10.03532,3.82835 -13.86366,0c-3.82835,-3.82835 -3.82835,-10.03532 0,-13.86366c3.82835,-3.82835 10.03532,-3.82834 13.86366,0c3.82835,3.82835 3.82834,10.03532 0,13.86366z" fill="#ffffff" stroke="none" stroke-width="0"/><path d="M394.87989,407.12192c-6.56201,6.56201 -17.20114,6.56201 -23.76316,0c-6.56201,-6.56201 -6.56201,-17.20114 0,-23.76316c6.56201,-6.56201 17.20115,-6.56201 23.76316,0c6.56201,6.56201 6.56201,17.20115 0,23.76316z" fill="#ffffff" stroke="none" stroke-width="0"/><path d="M413.26467,387.32293c-6.56201,6.56201 -17.20114,6.56201 -23.76316,0c-6.56201,-6.56201 -6.56201,-17.20114 0,-23.76316c6.56201,-6.56201 17.20115,-6.56201 23.76316,0c6.56201,6.56201 6.56201,17.20115 0,23.76316z" fill="#ffffff" stroke="none" stroke-width="0"/><path d="M377.20222,359.74577c-6.56201,6.56201 -17.20114,6.56201 -23.76316,0c-6.56201,-6.56201 -6.56201,-17.20114 0,-23.76316c6.56201,-6.56201 17.20115,-6.56201 23.76316,0c6.56201,6.56201 6.56201,17.20115 0,23.76316z" fill="#ffffff" stroke="none" stroke-width="0"/><path d="M405.48649,361.15998c-6.56201,6.56201 -17.20114,6.56201 -23.76316,0c-6.56201,-6.56201 -6.56201,-17.20114 0,-23.76316c6.56201,-6.56201 17.20115,-6.56201 23.76316,0c6.56201,6.56201 6.56201,17.20115 0,23.76316z" fill="#ffffff" stroke="none" stroke-width="0"/><path d="M389.22304,337.82546c-6.56201,6.56201 -17.20114,6.56201 -23.76316,0c-6.56201,-6.56201 -6.56201,-17.20114 0,-23.76316c6.56201,-6.56201 17.20115,-6.56201 23.76316,0c6.56201,6.56201 6.56201,17.20115 0,23.76316z" fill="#ffffff" stroke="none" stroke-width="0"/><g><path d="M367.93666,365.12013c5.87073,-11.30665 19.79574,-15.71334 31.10239,-9.84262c11.30665,5.87073 15.71334,19.79574 9.84262,31.10239c-5.87073,11.30665 -19.79574,15.71334 -31.10239,9.84262c-11.30665,-5.87073 -15.71334,-19.79574 -9.84262,-31.10239z" fill="#ececec" stroke="none" stroke-width="0"/><path d="M401.69034,383.58207c0.37788,-0.72778 1.42172,-0.93483 2.33144,-0.46248c0.90973,0.47235 1.34087,1.44526 0.96299,2.17304c-0.37788,0.72778 -1.42171,0.93485 -2.33144,0.4625c-0.90973,-0.47235 -1.34088,-1.44528 -0.96299,-2.17305z" fill="#000000" stroke="none" stroke-width="0"/><path d="M364.52639,364.78345c5.38487,-10.37092 18.15748,-14.41292 28.5284,-9.02805c10.37092,5.38487 14.41292,18.15748 9.02805,28.5284c-5.38487,10.37092 -18.15748,14.41292 -28.5284,9.02805c-10.37092,-5.38487 -14.41292,-18.15748 -9.02805,-28.5284z" fill="#efefef" stroke="none" stroke-width="0"/><path d="M387.62207,385.35964c0.59381,-1.14366 2.23411,-1.46904 3.66369,-0.72676c1.42957,0.74228 2.10709,2.27113 1.51328,3.41479c-0.59381,1.14366 -2.23411,1.46904 -3.66369,0.72676c-1.42957,-0.74228 -2.10709,-2.27113 -1.51328,-3.41479z" fill="#000000" stroke="none" stroke-width="0"/><path d="M395.32953,371.43617c0.59381,-1.14366 2.23411,-1.46904 3.66369,-0.72676c1.42957,0.74228 2.10709,2.27113 1.51328,3.41479c-0.59381,1.14366 -2.23411,1.46904 -3.66369,0.72676c-1.42957,-0.74228 -2.10709,-2.27113 -1.51328,-3.41479z" fill="#000000" stroke="none" stroke-width="0"/><path d="M405.90039,385.90747c-1.17414,2.26132 -13.125,-1.6165 -26.69298,-8.66136c-13.56797,-7.04487 -9.31602,-15.23387 4.25195,-8.189c13.56797,7.04487 23.61517,14.58903 22.44102,16.85037z" fill="#ffac29" stroke="none" stroke-width="0"/><path d="M353.319,357.82898c6.39707,-12.32035 20.81198,-17.51598 32.19659,-11.60477c11.38462,5.91121 15.42784,20.69082 9.03078,33.01116c-6.39707,12.32035 -20.81198,17.51598 -32.19659,11.60477c-11.38462,-5.91121 -15.42784,-20.69082 -9.03078,-33.01116z" fill="#2480e2" stroke="none" stroke-width="0"/><path d="M357.75486,360.13221c5.02048,-9.66913 16.33345,-13.74671 25.26821,-9.10754c8.93476,4.63917 12.10792,16.23836 7.08744,25.90749c-5.02048,9.66913 -16.33345,13.74671 -25.26821,9.10754c-8.93476,-4.63917 -12.10792,-16.23836 -7.08744,-25.90749z" fill="#2074cc" stroke="#2480e2" stroke-width="1"/></g><g stroke="none" stroke-width="0"><g fill="#40a946"><path d="M384.89719,325.82643c-3.32025,3.32025 -9.02466,9.02466 -10.89802,10.89802c-1.17486,1.17486 -3.84559,1.21206 -4.99743,0.06022c-1.99652,-1.99652 -8.0808,-8.0808 -11.25928,-11.25928c-1.09813,-1.09813 -0.54858,-3.78655 0.78272,-5.11786c1.89966,-1.89966 7.21831,-7.21831 10.41634,-10.41634c1.49663,-1.49663 3.50552,-1.55213 4.93723,-0.12042c3.20131,3.20131 8.67761,8.67761 10.59696,10.59696c1.30944,1.30944 1.8885,3.89166 0.42147,5.35869z"/><path d="M382.80917,315.69137c0,4.69554 0.00001,12.76279 0.00001,15.41212c0,1.66152 -1.86219,3.5763 -3.49115,3.5763c-2.82351,0 -11.42798,0 -15.92303,0c-1.55299,0 -3.06539,-2.2896 -3.06539,-4.17235c0,-2.68652 -0.00001,-10.20822 0,-14.73093c0,-2.11655 1.38124,-3.5763 3.406,-3.5763c4.52734,0 12.27199,0 14.98638,0c1.85183,0 4.0872,1.41644 4.08719,3.49114z"/></g><g fill="#43b149"><path d="M380.06045,327.81444c-2.93825,1.56391 -7.98638,4.25081 -9.64421,5.13321c-1.03969,0.55339 -2.85811,0.02587 -3.40065,-0.99346c-0.9404,-1.76683 -3.80624,-7.15111 -5.30336,-9.96391c-0.51725,-0.97179 0.41176,-2.68076 1.58989,-3.30785c1.68111,-0.89478 6.38785,-3.39998 9.21795,-4.90632c1.32445,-0.70495 2.69792,-0.32681 3.37229,0.94018c1.50789,2.83301 4.08734,7.67926 4.99141,9.37779c0.61678,1.15879 0.47495,3.02934 -0.82331,3.72035z"/><path d="M380.7424,320.51088c-0.97181,3.18351 -2.64144,8.65301 -3.18976,10.44921c-0.34387,1.12648 -2.0027,2.03927 -3.10711,1.70215c-1.9143,-0.58436 -7.74801,-2.36519 -10.79559,-3.29551c-1.05292,-0.32142 -1.60443,-2.18673 -1.21477,-3.46321c0.55601,-1.82144 2.11274,-6.92103 3.04877,-9.98737c0.43805,-1.435 1.67664,-2.13881 3.04938,-1.71975c3.06947,0.93699 8.32024,2.53986 10.16056,3.10164c1.25552,0.38326 2.47791,1.80624 2.04852,3.21285z"/></g><g fill="#48bd4e"><path d="M377.46658,324.46026c-1.48277,1.48277 -4.03028,4.03028 -4.8669,4.8669c-0.52468,0.52468 -1.71739,0.54128 -2.23178,0.02688c-0.89162,-0.89162 -3.60877,-3.60877 -5.02824,-5.02824c-0.49041,-0.49041 -0.24498,-1.69102 0.34956,-2.28556c0.84837,-0.84837 3.22359,-3.22359 4.65179,-4.65179c0.66837,-0.66837 1.56551,-0.69316 2.20489,-0.05378c1.42966,1.42966 3.87529,3.87529 4.73245,4.73245c0.58478,0.58478 0.84337,1.73796 0.18822,2.39312z"/><path d="M376.53411,319.93409c0,2.09695 0,5.69968 0,6.88284c0,0.74201 -0.83162,1.59712 -1.55909,1.59712c-1.26094,0 -5.10356,-0.00001 -7.111,-0.00001c-0.69354,0 -1.36897,-1.0225 -1.36897,-1.8633c0,-1.19976 0.00001,-4.55885 0,-6.57862c0,-0.94523 0.61684,-1.59712 1.52107,-1.59713c2.02184,0 5.48049,0.00001 6.69269,0c0.827,0 1.82528,0.63256 1.82528,1.5591z"/></g><g fill="#ffffff"><path d="M374.9064,323.98955c-0.84968,0.84968 -2.3095,2.3095 -2.78891,2.78891c-0.30065,0.30065 -0.98412,0.31018 -1.27889,0.01541c-0.51093,-0.51093 -2.06796,-2.06796 -2.88136,-2.88136c-0.28103,-0.28103 -0.14038,-0.96901 0.20032,-1.30971c0.48614,-0.48614 1.84724,-1.84724 2.66565,-2.66565c0.383,-0.383 0.89709,-0.39721 1.26349,-0.03082c0.81925,0.81925 2.22068,2.22068 2.71187,2.71187c0.3351,0.3351 0.48328,0.99592 0.10785,1.37134z"/><path d="M374.37206,321.39589c0,1.20163 0,3.26613 0,3.94411c0,0.4252 -0.47655,0.91521 -0.89342,0.91521c-0.72256,0 -2.92453,0.00001 -4.07486,0c-0.39742,0 -0.78446,-0.58592 -0.78446,-1.06775c0,-0.68752 -0.00001,-2.61238 -0.00001,-3.76979c0,-0.54164 0.35348,-0.91522 0.87163,-0.91522c1.15859,0 3.14052,0.00001 3.83516,0c0.4739,0 1.04595,0.36248 1.04595,0.89342z"/></g></g></g><path d="M-90.74727,421.36383v-513.51351h630.63063v513.51352z" fill="none" stroke="none" stroke-width="0"/></g></g></svg>