<svg version="1.1" xmlns="http://www.w3.org/2000/svg" xmlns:xlink="http://www.w3.org/1999/xlink" width="24.54167" height="19.75" viewBox="0,0,24.54167,19.75"><g transform="translate(-231.625,-170.125)"><g data-paper-data="{&quot;isPaintingLayer&quot;:true}" fill-rule="nonzero" stroke-linecap="butt" stroke-linejoin="miter" stroke-miterlimit="10" stroke-dasharray="" stroke-dashoffset="0" style="mix-blend-mode: normal"><path d="M238.04167,179.89583c0,-5.00508 4.05742,-9.0625 9.0625,-9.0625c5.00508,0 9.0625,4.05742 9.0625,9.0625c0,5.00508 -4.05742,9.0625 -9.0625,9.0625c-5.00508,0 -9.0625,-4.05742 -9.0625,-9.0625z" fill="#ececec" stroke="none" stroke-width="0"/><path d="M253.15278,180.22222c0,-0.32217 0.32646,-0.58333 0.72917,-0.58333c0.40271,0 0.72916,0.26116 0.72916,0.58333c0,0.32217 -0.32646,0.58334 -0.72916,0.58334c-0.40271,0 -0.72917,-0.26117 -0.72917,-0.58334z" fill="#000000" stroke="none" stroke-width="0"/><path d="M236.79167,180.39583c0,-4.59087 3.72163,-8.3125 8.3125,-8.3125c4.59087,0 8.3125,3.72163 8.3125,8.3125c0,4.59087 -3.72163,8.3125 -8.3125,8.3125c-4.59087,0 -8.3125,-3.72163 -8.3125,-8.3125z" fill="#efefef" stroke="none" stroke-width="0"/><path d="M248.56944,183.38889c0,-0.50626 0.51301,-0.91666 1.14584,-0.91666c0.63282,0 1.14584,0.4104 1.14584,0.91666c0,0.50626 -0.51301,0.91666 -1.14584,0.91666c-0.63282,0 -1.14584,-0.4104 -1.14584,-0.91666z" fill="#000000" stroke="none" stroke-width="0"/><path d="M248.73611,177.13889c0,-0.50626 0.51301,-0.91667 1.14583,-0.91667c0.63283,0 1.14583,0.41041 1.14583,0.91667c0,0.50626 -0.51301,0.91667 -1.14583,0.91667c-0.63283,0 -1.14583,-0.41041 -1.14583,-0.91667z" fill="#000000" stroke="none" stroke-width="0"/><path d="M255.04167,180.27084c0,1.00101 -4.86891,1.8125 -10.875,1.8125c-6.00609,0 -6.00609,-3.625 0,-3.625c6.00609,0 10.875,0.81149 10.875,1.8125z" fill="#ffac29" stroke="none" stroke-width="0"/><path d="M231.625,180c0,-5.45381 4.0854,-9.875 9.125,-9.875c5.0396,0 9.125,4.42119 9.125,9.875c0,5.45381 -4.0854,9.875 -9.125,9.875c-5.0396,0 -9.125,-4.42119 -9.125,-9.875z" fill="#2480e2" stroke="none" stroke-width="0"/><path d="M233.58861,180c0,-4.2802 3.20627,-7.75 7.16139,-7.75c3.95513,0 7.16139,3.4698 7.16139,7.75c0,4.2802 -3.20627,7.75 -7.16139,7.75c-3.95513,0 -7.16139,-3.4698 -7.16139,-7.75z" fill="#2074cc" stroke="#2480e2" stroke-width="1"/></g></g></svg>