<svg version="1.1" xmlns="http://www.w3.org/2000/svg" xmlns:xlink="http://www.w3.org/1999/xlink" width="69.82576" height="75.75971" viewBox="0,0,69.82576,75.75971"><g transform="translate(-205.08711,-142.12015)"><g data-paper-data="{&quot;isPaintingLayer&quot;:true}" fill-rule="nonzero" stroke-width="0" stroke-linecap="butt" stroke-linejoin="miter" stroke-miterlimit="10" stroke-dasharray="" stroke-dashoffset="0" style="mix-blend-mode: normal"><g><path d="M254.33339,215.92262c-0.3601,0 -0.73345,-0.09978 -1.14011,-0.30536c-1.83281,-0.92417 -3.30644,-2.59804 -4.37704,-4.97512l-0.46358,-1.02847l1.03519,-0.44651c0.41175,-0.17674 0.8236,-0.36527 1.23988,-0.57078c3.32859,-1.65617 6.27193,-4.22099 8.74733,-7.62209l0.49763,-0.68317l0.79037,0.29801c2.5737,0.97 4.90116,2.03914 6.91669,3.17627c1.25912,0.71049 1.97478,1.70575 2.01255,2.80146c0.03694,1.06831 -0.57005,2.07092 -1.70872,2.82062c-0.69498,0.45696 -1.51865,0.68907 -2.44655,0.68907c-1.01957,0 -2.0583,-0.27868 -3.04165,-0.65657c0.4044,0.45768 0.7408,0.9339 1.05651,1.39819c0.54192,0.79555 0.62326,1.68795 0.22177,2.44798c-0.44279,0.83547 -1.41953,1.37522 -2.48867,1.37522v0c-0.54119,0 -1.06614,-0.13978 -1.52009,-0.40593c-1.45428,-0.85245 -2.6987,-2.03172 -3.75967,-3.174c0.37708,1.92378 0.45251,3.37879 -0.23438,4.22761c-0.32969,0.40884 -0.80517,0.6336 -1.33745,0.6336z" fill="#f7941e" stroke="#000000"/><path d="M259.65238,151.72266c0.5323,0 1.00776,0.22476 1.33745,0.6336c0.68689,0.84884 0.61147,2.30383 0.23438,4.22761c1.06097,-1.1423 2.30539,-2.32155 3.75968,-3.174c0.45397,-0.26614 0.97891,-0.40594 1.52009,-0.40594v0c1.06914,0 2.04586,0.53974 2.48866,1.37522c0.40149,0.76004 0.32016,1.65245 -0.22176,2.448c-0.31571,0.46431 -0.65211,0.94051 -1.05651,1.39819c0.98334,-0.3779 2.02207,-0.65657 3.04165,-0.65657c0.9279,0 1.75157,0.23211 2.44653,0.68907c1.13867,0.74969 1.74566,1.7523 1.70873,2.82062c-0.03775,1.09573 -0.75343,2.09097 -2.01255,2.80146c-2.01555,1.13713 -4.34299,2.20628 -6.91669,3.17627l-0.79038,0.29801l-0.49763,-0.68317c-2.47541,-3.40112 -5.41875,-5.96592 -8.74733,-7.62209c-0.41628,-0.20553 -0.82814,-0.39405 -1.23988,-0.57078l-1.03519,-0.44651l0.46358,-1.02847c1.07059,-2.37709 2.54421,-4.05096 4.37704,-4.97512c0.40666,-0.20559 0.78002,-0.30536 1.14012,-0.30536z" data-paper-data="{&quot;index&quot;:null}" fill="#f7941e" stroke="#000000"/><path d="M270.18391,181.32769c0,16.7004 -11.68052,30.23875 -26.08916,30.23875c-14.40865,0 -26.08916,-13.53835 -26.08916,-30.23875c0,-16.7004 11.68052,-30.23875 26.08916,-30.23875c14.40865,0 26.08916,13.53835 26.08916,30.23875z" fill="#787cac" stroke="#000000"/><path d="M258.85332,158.55729c6.2504,0 11.31736,10.08324 11.31736,22.52156c0,12.43832 -5.06695,22.52157 -11.31736,22.52157c-6.2504,0 -11.31737,-10.08326 -11.31737,-22.52157c0,-12.43832 5.06697,-22.52156 11.31737,-22.52156z" fill="#f3f3f3" stroke="none"/></g><path d="M228.39943,153.5003c-0.95471,-2.392 3.72954,-6.50962 10.46257,-9.19696c6.73303,-2.68735 12.96518,-2.92677 13.91991,-0.53477c0.95473,2.392 -3.72954,6.50962 -10.46258,9.19696c-6.73304,2.68735 -12.96518,2.92677 -13.91989,0.53477z" data-paper-data="{&quot;index&quot;:null}" fill="#898dc5" stroke="#000000"/><path d="M242.87268,207.03448c6.73303,2.68735 11.41728,6.80496 10.46258,9.19696c-0.95473,2.392 -7.18687,2.15257 -13.91991,-0.53477c-6.73304,-2.68735 -11.41728,-6.80496 -10.46257,-9.19696c0.95471,-2.392 7.18687,-2.15257 13.91989,0.53477z" fill="#898dc5" stroke="#000000"/><path d="M257.26543,179.46303c0,16.7004 -11.68052,30.23875 -26.08916,30.23875c-14.40865,0 -26.08916,-13.53835 -26.08916,-30.23875c0,-16.7004 11.68052,-30.23876 26.08916,-30.23876c14.40865,0 26.08916,13.53836 26.08916,30.23876z" fill="#898dc5" stroke="#000000"/><path d="M246.6257,157.72893c6.2504,0 11.31736,10.08324 11.31736,22.52156c0,12.43832 -5.06695,22.52157 -11.31736,22.52157c-6.2504,0 -11.31736,-10.08326 -11.31736,-22.52157c0,-12.43832 5.06695,-22.52156 11.31736,-22.52156z" fill="#ffffff" stroke="none"/><path d="M254.9182,169.09124c6.36226,0 11.51989,4.79484 11.51989,10.70957c0,5.91473 -5.15763,10.70955 -11.51989,10.70955c-6.36226,0 -5.42114,-4.79483 -5.42114,-10.70955c0,-5.91473 -0.94112,-10.70957 5.42114,-10.70957z" fill="#f7941e" stroke="#000000"/><path d="M239.13647,168.04511c0,-1.80887 2.0895,-3.27525 4.66705,-3.27525c2.57755,0 4.66707,1.46639 4.66707,3.27525c0,1.80887 -2.08952,3.27525 -4.66707,3.27525c-2.57755,0 -4.66705,-1.46637 -4.66705,-3.27525z" fill="#231f20" stroke="none"/><path d="M239.13647,195.27141c0,-1.80887 2.0895,-3.27525 4.66705,-3.27525c2.57755,0 4.66707,1.46637 4.66707,3.27525c0,1.80887 -2.08952,3.27525 -4.66707,3.27525c-2.57755,0 -4.66705,-1.46639 -4.66705,-3.27525z" fill="#231f20" stroke="none"/></g></g></svg>