<svg version="1.1" xmlns="http://www.w3.org/2000/svg" xmlns:xlink="http://www.w3.org/1999/xlink" width="630.63063" height="513.51351" viewBox="0,0,630.63063,513.51351"><g transform="translate(90.74727,92.14969)"><g data-paper-data="{&quot;isPaintingLayer&quot;:true}" fill-rule="nonzero" stroke-linejoin="miter" stroke-miterlimit="10" stroke-dasharray="" stroke-dashoffset="0" style="mix-blend-mode: normal"><path d="M-90.74727,421.36382v-513.51351h630.63063v513.51351z" fill="none" stroke="none" stroke-width="0" stroke-linecap="butt"/><path d="M226.22675,77.13739c0,-6.59375 5.34529,-11.93904 11.93904,-11.93904c6.59375,0 11.93904,5.34529 11.93904,11.93904c0,6.59375 -5.34529,11.93904 -11.93904,11.93904c-6.59375,0 -11.93904,-5.34529 -11.93904,-11.93904z" fill="#ffffff" stroke="none" stroke-width="0" stroke-linecap="butt"/><path d="M251.92163,343.45863c-65.9842,21.66224 -182.58829,-11.79195 -182.58829,-11.79195" fill="none" stroke="#ffffff" stroke-width="35" stroke-linecap="round"/><path d="M261.22944,358.54365l-18.61335,-28.78866l17.19322,-11.11631l20.11335,32.28866z" fill="#ffffff" stroke="none" stroke-width="0" stroke-linecap="butt"/><path d="M258.16667,245.87699c0,-7.75276 -6.58397,-25.94472 -2.64861,-28.66294c3.63393,-2.51001 17.98968,8.66294 25.14861,8.66294c8.5542,0 18.13768,6.09881 22.75297,12.99615c2.83537,4.23734 13.77474,30.53076 10.9284,33.78863c-3.8251,4.37814 -19.13169,2.71522 -27.68138,2.71522c-4.33165,0 -10.06145,3.2254 -14.32013,1.16017c-4.1821,-2.0281 -6.90988,-9.31865 -9.36011,-12.41334c-3.64402,-4.60246 -4.81976,-11.92056 -4.81976,-18.24683z" fill="#ffffff" stroke="none" stroke-width="0" stroke-linecap="butt"/><path d="M111.16667,227.62699c0,13.68809 -10.19288,37.28448 -28,29.28448c-12.5945,-5.65819 -22,-15.59639 -22,-29.28448c0,-13.68809 11.19288,-24.78448 25,-24.78448c6.66969,0 12.32047,3.07094 17.21198,6.80931c11.797,9.01593 7.78802,10.89927 7.78802,17.97517z" fill="#ffffff" stroke="none" stroke-width="0" stroke-linecap="butt"/><path d="M206.16667,151.12698c0,-9.52691 -2.99418,-17.75 16.75,-17.75c19.74418,0 16.25,8.72309 16.25,18.25c0,9.52691 4.49418,17.25 -15.25,17.25c-19.74418,0 -17.75,-8.22309 -17.75,-17.75z" fill="#ffffff" stroke="none" stroke-width="0" stroke-linecap="butt"/><path d="M469.01352,164.41995c0,-9.52691 -3.19572,-17.75 17.87743,-17.75c21.07314,0 17.34377,8.72309 17.34377,18.25c0,9.52691 4.79668,17.25 -16.27646,17.25c-21.07314,0 -18.94474,-8.22309 -18.94474,-17.75z" fill="#ffffff" stroke="none" stroke-width="0" stroke-linecap="butt"/><path d="M439.32292,379.75979c0,-9.52691 -2.99418,-17.75 16.75,-17.75c19.74418,0 16.25,8.72309 16.25,18.25c0,9.52691 4.49418,17.25 -15.25,17.25c-19.74418,0 -17.75,-8.22309 -17.75,-17.75z" fill="#ffffff" stroke="none" stroke-width="0" stroke-linecap="butt"/><path d="M97.51182,299.59161c0,-8.79166 7.12706,-15.91872 15.91872,-15.91872c8.79166,0 15.91872,7.12706 15.91872,15.91872c0,8.79166 -7.12706,15.91872 -15.91872,15.91872c-8.79166,0 -15.91872,-7.12706 -15.91872,-15.91872z" fill="#ffffff" stroke="none" stroke-width="0" stroke-linecap="butt"/><path d="M141.42425,302.82286c0,-9.28009 7.523,-16.80309 16.80309,-16.80309c9.28009,0 16.80309,7.523 16.80309,16.80309c0,9.28009 -7.52301,16.80309 -16.80309,16.80309c-9.28009,0 -16.80309,-7.52301 -16.80309,-16.80309z" fill="#ffffff" stroke="none" stroke-width="0" stroke-linecap="butt"/><path d="M176.49294,299.8635c0,-9.28008 7.523,-16.80309 16.80309,-16.80309c9.28009,0 16.80309,7.523 16.80309,16.80309c0,9.28008 -7.523,16.80309 -16.80309,16.80309c-9.28009,0 -16.80309,-7.52301 -16.80309,-16.80309z" fill="#ffffff" stroke="none" stroke-width="0" stroke-linecap="butt"/><path d="M220.07048,112.54667c0,-9.03588 7.32503,-16.36091 16.36091,-16.36091c9.03588,0 16.36091,7.32503 16.36091,16.36091c0,9.03588 -7.32503,16.36091 -16.36091,16.36091c-9.03588,0 -16.36091,-7.32503 -16.36091,-16.36091z" fill="#ffffff" stroke="none" stroke-width="0" stroke-linecap="butt"/><path d="M215.34238,91.89985c0,-9.03588 7.32503,-16.36091 16.36091,-16.36091c9.03588,0 16.36091,7.32502 16.36091,16.36091c0,9.03588 -7.32503,16.36091 -16.36091,16.36091c-9.03588,0 -16.36091,-7.32502 -16.36091,-16.36091z" fill="#ffffff" stroke="none" stroke-width="0" stroke-linecap="butt"/><path d="M232.72361,93.36235c0,-6.59375 5.34529,-11.93904 11.93904,-11.93904c6.59375,0 11.93904,5.34529 11.93904,11.93904c0,6.59375 -5.34529,11.93904 -11.93904,11.93904c-6.59375,0 -11.93904,-5.34529 -11.93904,-11.93904z" fill="#ffffff" stroke="none" stroke-width="0" stroke-linecap="butt"/><path d="M206.4643,65.3343c0,-9.03588 7.32503,-16.36091 16.36091,-16.36091c9.03588,0 16.36091,7.32502 16.36091,16.36091c0,9.03588 -7.32503,16.36091 -16.36091,16.36091c-9.03588,0 -16.36091,-7.32502 -16.36091,-16.36091z" fill="#ffffff" stroke="none" stroke-width="0" stroke-linecap="butt"/><path d="M242.41737,39.38124c0,-9.03588 7.32503,-16.36091 16.36091,-16.36091c9.03588,0 16.36091,7.32503 16.36091,16.36091c0,9.03588 -7.32503,16.36091 -16.36091,16.36091c-9.03588,0 -16.36091,-7.32502 -16.36091,-16.36091z" fill="#ffffff" stroke="none" stroke-width="0" stroke-linecap="butt"/><path d="M209.87983,-12.67581c0,-9.03588 7.32503,-16.36091 16.36091,-16.36091c9.03588,0 16.36091,7.32503 16.36091,16.36091c0,9.03588 -7.32503,16.36091 -16.36091,16.36091c-9.03588,0 -16.36091,-7.32502 -16.36091,-16.36091z" fill="#ffffff" stroke="none" stroke-width="0" stroke-linecap="butt"/><text transform="translate(163.00649,-36.11121) scale(1.2651,0.53254)" font-size="40" xml:space="preserve" fill="#ff0000" fill-rule="nonzero" stroke="none" stroke-width="1" stroke-linecap="butt" stroke-linejoin="miter" stroke-miterlimit="10" stroke-dasharray="" stroke-dashoffset="0" font-family="Sans Serif" font-weight="normal" text-anchor="start" style="mix-blend-mode: normal"><tspan x="0" dy="0">hello</tspan></text></g></g></svg>