<svg version="1.1" xmlns="http://www.w3.org/2000/svg" xmlns:xlink="http://www.w3.org/1999/xlink" width="121.968" height="74.646" viewBox="0,0,121.968,74.646"><g transform="translate(-182.14298,-166.1445)"><g data-paper-data="{&quot;isPaintingLayer&quot;:true}" fill-rule="nonzero" stroke="none" stroke-width="0.66342" stroke-linecap="butt" stroke-linejoin="miter" stroke-miterlimit="10" stroke-dasharray="" stroke-dashoffset="0" style="mix-blend-mode: normal"><path d="M282.3176,230.6993c-5.8135,0 -13.1058,-0.083 -20.1587,-0.1626c-5.7724,-0.0657 -11.2257,-0.1274 -15.2314,-0.1353c-0.5606,0.0212 -1.3315,0.0318 -2.245,0.0318c-9.9653,0 -37.2617,-1.23 -37.5364,-1.2426c-1.3527,0.0073 -3.0776,0.152 -4.9033,0.3059c-2.1979,0.1844 -4.6897,0.3947 -7.078,0.3947c-4.8994,0 -11.5727,-0.7623 -12.9527,-7.3567c-0.3177,-1.5192 0.5095,-3.8544 1.4669,-6.5579c0.7158,-2.0201 1.4555,-4.1085 1.482,-5.3816c0.0252,-1.1836 -0.1214,-2.6132 -0.2766,-4.1265c-0.3788,-3.6913 -0.8081,-7.8755 1.0754,-10.6147c2.0321,-2.9576 5.5681,-5.042 8.6875,-6.881c2.2696,-1.3382 4.4131,-2.602 5.5024,-3.9275c1.1437,-1.3918 2.0752,-2.921 2.9761,-4.4005c1.9558,-3.2109 3.8027,-6.2441 7.4781,-7.4973c1.4177,-0.4836 2.8056,-0.7185 4.2412,-0.7185c1.9903,0 3.8392,0.4485 5.7963,0.9229c2.3704,0.5745 4.8224,1.1689 8.0506,1.1689c1.4065,0 2.8196,-0.1121 4.3196,-0.3436c6.063,-0.9341 7.9783,-2.3061 10.0063,-3.759c2.123,-1.5205 4.3182,-3.0935 10.9093,-3.9871c1.4005,-0.1904 2.7857,-0.2866 4.1172,-0.2866c12.812,0 21.9632,9.0829 23.3159,23.1401c0.5487,5.7114 4.8569,7.6068 9.8452,9.8007c3.8292,1.6844 7.7892,3.4265 10.3407,7.1026c3.8134,5.4957 2.6756,10.3639 1.0502,13.48c-3.272,6.2693 -11.4447,11.0115 -19.0116,11.0287l-1.2672,0.0027z" fill="#91b6c5"/><path d="M234.5328,240.7905c-0.3158,0 -0.6243,-0.0086 -0.9261,-0.0245c-2.1754,-0.1201 -4.3229,-0.9135 -6.3994,-1.6804c-2.2928,-0.8479 -4.6638,-1.7243 -7.1092,-1.7243c-0.1115,0 -0.2236,0.0014 -0.3357,0.0053c-1.3554,0.0445 -2.8792,0.345 -4.3534,0.6349c-1.6618,0.3278 -3.3808,0.6668 -4.9624,0.6668c-2.6782,0 -4.5371,-0.9998 -5.6835,-3.0551c-2.2244,-3.9891 -0.4219,-5.6258 2.8507,-8.5986c1.0051,-0.9128 2.1442,-1.9478 3.4505,-3.276c0.2932,-0.2978 0.7185,-1.1556 1.1696,-2.0645c1.7368,-3.5015 4.9697,-10.0203 13.0588,-10.0203c6.2255,0 11.3471,5.2125 14.7365,8.6623c0.7776,0.7908 1.4496,1.4747 2.0002,1.9564c3.071,2.6868 7.4104,10.5955 5.0493,13.9292c-2.0334,2.8719 -7.9763,4.5888 -12.5459,4.5888v0z" fill="#5f8ba5"/></g></g></svg>